{"glyphs":{"0":{"ha":625,"x_min":0,"x_max":556,"o":"m 347 69 l 347 208 l 417 208 l 417 556 l 347 556 l 347 694 l 208 694 l 208 556 l 139 556 l 139 208 l 208 208 l 208 69 l 347 69 m 556 556 l 556 208 l 486 208 l 486 69 l 417 69 l 417 0 l 139 0 l 139 69 l 69 69 l 69 208 l 0 208 l 0 556 l 69 556 l 69 694 l 139 694 l 139 764 l 417 764 l 417 694 l 486 694 l 486 556 l 556 556 z "},"1":{"ha":625,"x_min":139,"x_max":417,"o":"m 347 69 l 417 69 l 417 0 l 139 0 l 139 69 l 208 69 l 208 625 l 139 625 l 139 694 l 208 694 l 208 764 l 347 764 l 347 69 z "},"2":{"ha":625,"x_min":0,"x_max":556,"o":"m 0 0 l 0 139 l 69 139 l 69 208 l 139 208 l 139 278 l 208 278 l 208 347 l 278 347 l 278 417 l 347 417 l 347 486 l 417 486 l 417 625 l 347 625 l 347 694 l 139 694 l 139 625 l 0 625 l 0 694 l 69 694 l 69 764 l 417 764 l 417 694 l 486 694 l 486 625 l 556 625 l 556 486 l 486 486 l 486 417 l 417 417 l 417 347 l 347 347 l 347 278 l 278 278 l 278 208 l 208 208 l 208 139 l 139 139 l 139 69 l 417 69 l 417 139 l 556 139 l 556 0 l 0 0 z "},"3":{"ha":625,"x_min":0,"x_max":556,"o":"m 347 69 l 347 139 l 417 139 l 417 278 l 347 278 l 347 347 l 139 347 l 139 417 l 347 417 l 347 486 l 417 486 l 417 625 l 347 625 l 347 694 l 139 694 l 139 625 l 0 625 l 0 694 l 69 694 l 69 764 l 417 764 l 417 694 l 486 694 l 486 625 l 556 625 l 556 486 l 486 486 l 486 417 l 417 417 l 417 347 l 486 347 l 486 278 l 556 278 l 556 139 l 486 139 l 486 69 l 417 69 l 417 0 l 69 0 l 69 69 l 0 69 l 0 139 l 139 139 l 139 69 l 347 69 z "},"4":{"ha":625,"x_min":0,"x_max":556,"o":"m 417 347 l 556 347 l 556 278 l 417 278 l 417 69 l 486 69 l 486 0 l 208 0 l 208 69 l 278 69 l 278 278 l 0 278 l 0 417 l 69 417 l 69 556 l 139 556 l 139 764 l 417 764 l 417 347 m 208 556 l 208 417 l 139 417 l 139 347 l 278 347 l 278 556 l 208 556 z "},"5":{"ha":625,"x_min":0,"x_max":556,"o":"m 347 69 l 347 139 l 417 139 l 417 347 l 347 347 l 347 417 l 0 417 l 0 625 l 69 625 l 69 764 l 556 764 l 556 694 l 208 694 l 208 625 l 139 625 l 139 486 l 417 486 l 417 417 l 486 417 l 486 347 l 556 347 l 556 139 l 486 139 l 486 69 l 417 69 l 417 0 l 69 0 l 69 69 l 0 69 l 0 139 l 139 139 l 139 69 l 347 69 z "},"6":{"ha":625,"x_min":0,"x_max":556,"o":"m 347 69 l 347 139 l 417 139 l 417 347 l 347 347 l 347 417 l 208 417 l 208 347 l 139 347 l 139 139 l 208 139 l 208 69 l 347 69 m 486 139 l 486 69 l 417 69 l 417 0 l 139 0 l 139 69 l 69 69 l 69 139 l 0 139 l 0 556 l 69 556 l 69 625 l 139 625 l 139 694 l 208 694 l 208 764 l 486 764 l 486 694 l 278 694 l 278 625 l 208 625 l 208 556 l 139 556 l 139 486 l 417 486 l 417 417 l 486 417 l 486 347 l 556 347 l 556 139 l 486 139 z "},"7":{"ha":625,"x_min":0,"x_max":556,"o":"m 347 486 l 347 625 l 417 625 l 417 694 l 139 694 l 139 625 l 0 625 l 0 764 l 556 764 l 556 625 l 486 625 l 486 486 l 417 486 l 417 278 l 347 278 l 347 0 l 208 0 l 208 278 l 278 278 l 278 486 l 347 486 z "},"8":{"ha":625,"x_min":0,"x_max":556,"o":"m 486 278 l 556 278 l 556 139 l 486 139 l 486 69 l 417 69 l 417 0 l 139 0 l 139 69 l 69 69 l 69 139 l 0 139 l 0 278 l 69 278 l 69 347 l 139 347 l 139 417 l 69 417 l 69 486 l 0 486 l 0 625 l 69 625 l 69 694 l 139 694 l 139 764 l 417 764 l 417 694 l 486 694 l 486 625 l 556 625 l 556 486 l 486 486 l 486 417 l 417 417 l 417 347 l 486 347 l 486 278 m 208 347 l 208 278 l 139 278 l 139 139 l 208 139 l 208 69 l 347 69 l 347 139 l 417 139 l 417 278 l 347 278 l 347 347 l 208 347 m 139 486 l 208 486 l 208 417 l 347 417 l 347 486 l 417 486 l 417 625 l 347 625 l 347 694 l 208 694 l 208 625 l 139 625 l 139 486 z "},"9":{"ha":625,"x_min":0,"x_max":556,"o":"m 347 69 l 347 0 l 139 0 l 139 69 l 278 69 l 278 139 l 347 139 l 347 208 l 417 208 l 417 278 l 139 278 l 139 347 l 69 347 l 69 417 l 0 417 l 0 625 l 69 625 l 69 694 l 139 694 l 139 764 l 417 764 l 417 694 l 486 694 l 486 625 l 556 625 l 556 208 l 486 208 l 486 139 l 417 139 l 417 69 l 347 69 m 208 347 l 347 347 l 347 417 l 417 417 l 417 625 l 347 625 l 347 694 l 208 694 l 208 625 l 139 625 l 139 417 l 208 417 l 208 347 z "}," ":{"ha":417,"x_min":0,"x_max":0,"o":""},"!":{"ha":208,"x_min":0,"x_max":139,"o":"m 0 0 l 0 139 l 139 139 l 139 0 l 0 0 m 0 764 l 139 764 l 139 208 l 0 208 l 0 764 z "},"\"":{"ha":347,"x_min":0,"x_max":278,"o":"m 0 833 l 278 833 l 278 625 l 0 625 l 0 833 z "},"#":{"ha":694,"x_min":0,"x_max":625,"o":"m 417 208 l 278 208 l 278 347 l 208 347 l 208 208 l 69 208 l 69 347 l 0 347 l 0 417 l 139 417 l 139 556 l 69 556 l 69 625 l 208 625 l 208 764 l 347 764 l 347 625 l 417 625 l 417 764 l 556 764 l 556 625 l 625 625 l 625 556 l 486 556 l 486 417 l 556 417 l 556 347 l 417 347 l 417 208 m 347 417 l 347 556 l 278 556 l 278 417 l 347 417 z "},"$":{"ha":625,"x_min":0,"x_max":556,"o":"m 0 0 l 0 208 l 139 208 l 139 139 l 208 139 l 208 347 l 139 347 l 139 417 l 69 417 l 69 486 l 0 486 l 0 625 l 69 625 l 69 694 l 139 694 l 139 764 l 208 764 l 208 903 l 347 903 l 347 764 l 556 764 l 556 556 l 417 556 l 417 625 l 347 625 l 347 417 l 417 417 l 417 347 l 486 347 l 486 278 l 556 278 l 556 139 l 486 139 l 486 69 l 417 69 l 417 0 l 347 0 l 347 -139 l 208 -139 l 208 0 l 0 0 m 139 486 l 208 486 l 208 625 l 139 625 l 139 486 m 417 139 l 417 278 l 347 278 l 347 139 l 417 139 z "},"%":{"ha":764,"x_min":0,"x_max":694,"o":"m 347 69 l 347 139 l 278 139 l 278 0 l 139 0 l 139 139 l 208 139 l 208 278 l 278 278 l 278 417 l 69 417 l 69 486 l 0 486 l 0 694 l 69 694 l 69 764 l 556 764 l 556 625 l 486 625 l 486 486 l 417 486 l 417 347 l 625 347 l 625 278 l 694 278 l 694 69 l 625 69 l 625 0 l 417 0 l 417 69 l 347 69 m 486 278 l 486 69 l 556 69 l 556 278 l 486 278 m 139 694 l 139 486 l 208 486 l 208 694 l 139 694 m 347 625 l 417 625 l 417 694 l 347 694 l 347 625 z "},"&":{"ha":764,"x_min":0,"x_max":694,"o":"m 625 347 l 625 278 l 556 278 l 556 208 l 486 208 l 486 139 l 556 139 l 556 69 l 625 69 l 625 0 l 486 0 l 486 69 l 347 69 l 347 0 l 139 0 l 139 69 l 69 69 l 69 139 l 0 139 l 0 347 l 69 347 l 69 417 l 139 417 l 139 486 l 69 486 l 69 694 l 139 694 l 139 764 l 278 764 l 278 694 l 347 694 l 347 486 l 278 486 l 278 417 l 347 417 l 347 347 l 417 347 l 417 278 l 486 278 l 486 347 l 417 347 l 417 417 l 694 417 l 694 347 l 625 347 m 347 208 l 278 208 l 278 347 l 139 347 l 139 139 l 208 139 l 208 69 l 278 69 l 278 139 l 347 139 l 347 208 z "},"'":{"ha":208,"x_min":0,"x_max":139,"o":"m 0 833 l 139 833 l 139 625 l 0 625 l 0 833 z "},"(":{"ha":347,"x_min":0,"x_max":278,"o":"m 69 764 l 139 764 l 139 833 l 278 833 l 278 764 l 208 764 l 208 556 l 139 556 l 139 69 l 208 69 l 208 -139 l 278 -139 l 278 -208 l 139 -208 l 139 -139 l 69 -139 l 69 69 l 0 69 l 0 556 l 69 556 l 69 764 z "},")":{"ha":347,"x_min":0,"x_max":278,"o":"m 0 764 l 0 833 l 139 833 l 139 764 l 208 764 l 208 556 l 278 556 l 278 69 l 208 69 l 208 -139 l 139 -139 l 139 -208 l 0 -208 l 0 -139 l 69 -139 l 69 69 l 139 69 l 139 556 l 69 556 l 69 764 l 0 764 z "},"*":{"ha":486,"x_min":0,"x_max":417,"o":"m 0 764 l 139 764 l 139 833 l 278 833 l 278 764 l 417 764 l 417 694 l 347 694 l 347 625 l 417 625 l 417 556 l 278 556 l 278 486 l 139 486 l 139 556 l 0 556 l 0 625 l 69 625 l 69 694 l 0 694 l 0 764 z "},"+":{"ha":625,"x_min":0,"x_max":556,"o":"m 347 69 l 208 69 l 208 278 l 0 278 l 0 347 l 208 347 l 208 556 l 347 556 l 347 347 l 556 347 l 556 278 l 347 278 l 347 69 z "},",":{"ha":278,"x_min":0,"x_max":208,"o":"m 0 -69 l 0 0 l 69 0 l 69 139 l 208 139 l 208 0 l 139 0 l 139 -69 l 0 -69 z "},"-":{"ha":556,"x_min":0,"x_max":486,"o":"m 486 278 l 0 278 l 0 347 l 486 347 l 486 278 z "},".":{"ha":208,"x_min":0,"x_max":139,"o":"m 0 0 l 0 139 l 139 139 l 139 0 l 0 0 z "},"/":{"ha":486,"x_min":0,"x_max":417,"o":"m 0 0 l 69 0 l 69 208 l 139 208 l 139 417 l 208 417 l 208 625 l 278 625 l 278 833 l 417 833 l 417 625 l 347 625 l 347 417 l 278 417 l 278 208 l 208 208 l 208 0 l 139 0 l 139 -208 l 0 -208 l 0 0 z "},":":{"ha":208,"x_min":0,"x_max":139,"o":"m 0 0 l 0 139 l 139 139 l 139 0 l 0 0 m 0 486 l 139 486 l 139 347 l 0 347 l 0 486 z "},";":{"ha":278,"x_min":0,"x_max":208,"o":"m 0 0 l 69 0 l 69 139 l 208 139 l 208 0 l 139 0 l 139 -69 l 0 -69 l 0 0 m 208 486 l 208 347 l 69 347 l 69 486 l 208 486 z "},"<":{"ha":417,"x_min":0,"x_max":347,"o":"m 347 69 l 208 69 l 208 139 l 139 139 l 139 208 l 69 208 l 69 278 l 0 278 l 0 347 l 69 347 l 69 417 l 139 417 l 139 486 l 208 486 l 208 556 l 347 556 l 347 486 l 278 486 l 278 417 l 208 417 l 208 347 l 139 347 l 139 278 l 208 278 l 208 208 l 278 208 l 278 139 l 347 139 l 347 69 z "},"=":{"ha":556,"x_min":0,"x_max":486,"o":"m 486 278 l 486 208 l 0 208 l 0 278 l 486 278 m 0 417 l 486 417 l 486 347 l 0 347 l 0 417 z "},">":{"ha":417,"x_min":0,"x_max":347,"o":"m 208 208 l 208 139 l 139 139 l 139 69 l 0 69 l 0 139 l 69 139 l 69 208 l 139 208 l 139 278 l 208 278 l 208 347 l 139 347 l 139 417 l 69 417 l 69 486 l 0 486 l 0 556 l 139 556 l 139 486 l 208 486 l 208 417 l 278 417 l 278 347 l 347 347 l 347 278 l 278 278 l 278 208 l 208 208 z "},"?":{"ha":625,"x_min":0,"x_max":556,"o":"m 417 347 l 347 347 l 347 208 l 208 208 l 208 347 l 278 347 l 278 417 l 347 417 l 347 486 l 417 486 l 417 625 l 347 625 l 347 694 l 208 694 l 208 625 l 139 625 l 139 556 l 0 556 l 0 625 l 69 625 l 69 694 l 139 694 l 139 764 l 417 764 l 417 694 l 486 694 l 486 625 l 556 625 l 556 486 l 486 486 l 486 417 l 417 417 l 417 347 m 347 0 l 208 0 l 208 139 l 347 139 l 347 0 z "},"@":{"ha":833,"x_min":0,"x_max":764,"o":"m 694 278 l 694 208 l 278 208 l 278 278 l 208 278 l 208 417 l 278 417 l 278 486 l 556 486 l 556 278 l 625 278 l 625 486 l 556 486 l 556 556 l 486 556 l 486 625 l 278 625 l 278 556 l 208 556 l 208 486 l 139 486 l 139 208 l 208 208 l 208 139 l 278 139 l 278 69 l 486 69 l 486 0 l 208 0 l 208 69 l 69 69 l 69 208 l 0 208 l 0 486 l 69 486 l 69 625 l 208 625 l 208 694 l 556 694 l 556 625 l 694 625 l 694 486 l 764 486 l 764 278 l 694 278 m 417 417 l 347 417 l 347 278 l 417 278 l 417 417 z "},"A":{"ha":764,"x_min":0,"x_max":694,"o":"m 0 0 l 0 69 l 69 69 l 69 208 l 139 208 l 139 417 l 208 417 l 208 625 l 278 625 l 278 694 l 208 694 l 208 764 l 417 764 l 417 625 l 486 625 l 486 417 l 556 417 l 556 208 l 625 208 l 625 69 l 694 69 l 694 0 l 417 0 l 417 69 l 486 69 l 486 208 l 417 208 l 417 278 l 278 278 l 278 208 l 208 208 l 208 69 l 278 69 l 278 0 l 0 0 m 417 347 l 417 417 l 278 417 l 278 347 l 417 347 z "},"B":{"ha":694,"x_min":0,"x_max":625,"o":"m 0 0 l 0 69 l 69 69 l 69 694 l 0 694 l 0 764 l 486 764 l 486 694 l 556 694 l 556 625 l 625 625 l 625 486 l 556 486 l 556 417 l 486 417 l 486 347 l 556 347 l 556 278 l 625 278 l 625 139 l 556 139 l 556 69 l 486 69 l 486 0 l 0 0 m 486 278 l 417 278 l 417 347 l 208 347 l 208 69 l 417 69 l 417 139 l 486 139 l 486 278 m 417 417 l 417 486 l 486 486 l 486 625 l 417 625 l 417 694 l 208 694 l 208 417 l 417 417 z "},"C":{"ha":694,"x_min":0,"x_max":625,"o":"m 486 139 l 486 208 l 625 208 l 625 69 l 486 69 l 486 0 l 208 0 l 208 69 l 69 69 l 69 208 l 0 208 l 0 556 l 69 556 l 69 694 l 208 694 l 208 764 l 625 764 l 625 556 l 486 556 l 486 625 l 417 625 l 417 694 l 278 694 l 278 625 l 208 625 l 208 556 l 139 556 l 139 208 l 208 208 l 208 139 l 278 139 l 278 69 l 417 69 l 417 139 l 486 139 z "},"D":{"ha":694,"x_min":0,"x_max":625,"o":"m 347 69 l 347 139 l 417 139 l 417 208 l 486 208 l 486 556 l 417 556 l 417 625 l 347 625 l 347 694 l 208 694 l 208 69 l 347 69 m 0 0 l 0 69 l 69 69 l 69 694 l 0 694 l 0 764 l 417 764 l 417 694 l 556 694 l 556 556 l 625 556 l 625 208 l 556 208 l 556 69 l 417 69 l 417 0 l 0 0 z "},"E":{"ha":694,"x_min":0,"x_max":625,"o":"m 0 0 l 0 69 l 69 69 l 69 694 l 0 694 l 0 764 l 625 764 l 625 625 l 486 625 l 486 694 l 208 694 l 208 417 l 347 417 l 347 486 l 486 486 l 486 278 l 347 278 l 347 347 l 208 347 l 208 69 l 486 69 l 486 139 l 625 139 l 625 0 l 0 0 z "},"F":{"ha":694,"x_min":0,"x_max":625,"o":"m 0 0 l 0 69 l 69 69 l 69 694 l 0 694 l 0 764 l 625 764 l 625 625 l 486 625 l 486 694 l 208 694 l 208 417 l 347 417 l 347 486 l 486 486 l 486 278 l 347 278 l 347 347 l 208 347 l 208 69 l 278 69 l 278 0 l 0 0 z "},"G":{"ha":694,"x_min":0,"x_max":625,"o":"m 486 139 l 486 347 l 347 347 l 347 417 l 625 417 l 625 0 l 208 0 l 208 69 l 69 69 l 69 208 l 0 208 l 0 556 l 69 556 l 69 694 l 208 694 l 208 764 l 625 764 l 625 556 l 486 556 l 486 625 l 417 625 l 417 694 l 278 694 l 278 625 l 208 625 l 208 556 l 139 556 l 139 208 l 208 208 l 208 139 l 278 139 l 278 69 l 417 69 l 417 139 l 486 139 z "},"H":{"ha":764,"x_min":0,"x_max":694,"o":"m 0 0 l 0 69 l 69 69 l 69 694 l 0 694 l 0 764 l 278 764 l 278 694 l 208 694 l 208 417 l 486 417 l 486 694 l 417 694 l 417 764 l 694 764 l 694 694 l 625 694 l 625 69 l 694 69 l 694 0 l 417 0 l 417 69 l 486 69 l 486 347 l 208 347 l 208 69 l 278 69 l 278 0 l 0 0 z "},"I":{"ha":347,"x_min":0,"x_max":278,"o":"m 0 0 l 0 69 l 69 69 l 69 694 l 0 694 l 0 764 l 278 764 l 278 694 l 208 694 l 208 69 l 278 69 l 278 0 l 0 0 z "},"J":{"ha":694,"x_min":0,"x_max":625,"o":"m 347 69 l 347 0 l 139 0 l 139 69 l 0 69 l 0 208 l 139 208 l 139 139 l 208 139 l 208 69 l 278 69 l 278 139 l 347 139 l 347 208 l 417 208 l 417 694 l 347 694 l 347 764 l 625 764 l 625 694 l 556 694 l 556 208 l 486 208 l 486 69 l 347 69 z "},"K":{"ha":694,"x_min":0,"x_max":625,"o":"m 347 69 l 417 69 l 417 208 l 347 208 l 347 347 l 208 347 l 208 69 l 278 69 l 278 0 l 0 0 l 0 69 l 69 69 l 69 694 l 0 694 l 0 764 l 278 764 l 278 694 l 208 694 l 208 486 l 278 486 l 278 556 l 347 556 l 347 625 l 417 625 l 417 694 l 347 694 l 347 764 l 625 764 l 625 694 l 556 694 l 556 625 l 486 625 l 486 556 l 417 556 l 417 486 l 347 486 l 347 417 l 417 417 l 417 347 l 486 347 l 486 208 l 556 208 l 556 69 l 625 69 l 625 0 l 347 0 l 347 69 z "},"L":{"ha":694,"x_min":0,"x_max":625,"o":"m 0 0 l 0 69 l 69 69 l 69 694 l 0 694 l 0 764 l 278 764 l 278 694 l 208 694 l 208 69 l 486 69 l 486 139 l 625 139 l 625 0 l 0 0 z "},"M":{"ha":903,"x_min":0,"x_max":833,"o":"m 0 0 l 0 69 l 69 69 l 69 694 l 0 694 l 0 764 l 208 764 l 208 694 l 278 694 l 278 625 l 347 625 l 347 556 l 486 556 l 486 625 l 556 625 l 556 694 l 625 694 l 625 764 l 833 764 l 833 694 l 764 694 l 764 69 l 833 69 l 833 0 l 556 0 l 556 69 l 625 69 l 625 556 l 556 556 l 556 486 l 486 486 l 486 347 l 347 347 l 347 486 l 278 486 l 278 556 l 208 556 l 208 69 l 278 69 l 278 0 l 0 0 z "},"N":{"ha":764,"x_min":0,"x_max":694,"o":"m 0 0 l 0 69 l 69 69 l 69 694 l 0 694 l 0 764 l 208 764 l 208 694 l 278 694 l 278 556 l 347 556 l 347 417 l 417 417 l 417 278 l 486 278 l 486 694 l 417 694 l 417 764 l 694 764 l 694 694 l 625 694 l 625 0 l 486 0 l 486 69 l 417 69 l 417 139 l 347 139 l 347 278 l 278 278 l 278 417 l 208 417 l 208 69 l 278 69 l 278 0 l 0 0 z "},"O":{"ha":764,"x_min":0,"x_max":694,"o":"m 486 139 l 486 208 l 556 208 l 556 556 l 486 556 l 486 625 l 417 625 l 417 694 l 278 694 l 278 625 l 208 625 l 208 556 l 139 556 l 139 208 l 208 208 l 208 139 l 278 139 l 278 69 l 417 69 l 417 139 l 486 139 m 625 208 l 625 69 l 486 69 l 486 0 l 208 0 l 208 69 l 69 69 l 69 208 l 0 208 l 0 556 l 69 556 l 69 694 l 208 694 l 208 764 l 486 764 l 486 694 l 625 694 l 625 556 l 694 556 l 694 208 l 625 208 z "},"P":{"ha":694,"x_min":0,"x_max":625,"o":"m 0 0 l 0 69 l 69 69 l 69 694 l 0 694 l 0 764 l 486 764 l 486 694 l 556 694 l 556 625 l 625 625 l 625 486 l 556 486 l 556 417 l 486 417 l 486 347 l 208 347 l 208 69 l 278 69 l 278 0 l 0 0 m 417 417 l 417 486 l 486 486 l 486 625 l 417 625 l 417 694 l 208 694 l 208 417 l 417 417 z "},"Q":{"ha":764,"x_min":0,"x_max":694,"o":"m 694 -139 l 486 -139 l 486 -69 l 417 -69 l 417 0 l 278 0 l 278 -69 l 139 -69 l 139 0 l 208 0 l 208 69 l 69 69 l 69 208 l 0 208 l 0 556 l 69 556 l 69 694 l 208 694 l 208 764 l 486 764 l 486 694 l 625 694 l 625 556 l 694 556 l 694 208 l 625 208 l 625 69 l 486 69 l 486 0 l 556 0 l 556 -69 l 694 -69 l 694 -139 m 556 556 l 486 556 l 486 625 l 417 625 l 417 694 l 278 694 l 278 625 l 208 625 l 208 556 l 139 556 l 139 208 l 208 208 l 208 139 l 278 139 l 278 69 l 417 69 l 417 139 l 486 139 l 486 208 l 556 208 l 556 556 z "},"R":{"ha":694,"x_min":0,"x_max":625,"o":"m 0 0 l 0 69 l 69 69 l 69 694 l 0 694 l 0 764 l 486 764 l 486 694 l 556 694 l 556 625 l 625 625 l 625 486 l 556 486 l 556 417 l 486 417 l 486 347 l 417 347 l 417 278 l 486 278 l 486 208 l 556 208 l 556 69 l 625 69 l 625 0 l 486 0 l 486 69 l 417 69 l 417 208 l 347 208 l 347 278 l 278 278 l 278 347 l 208 347 l 208 69 l 278 69 l 278 0 l 0 0 m 417 417 l 417 486 l 486 486 l 486 625 l 417 625 l 417 694 l 208 694 l 208 417 l 417 417 z "},"S":{"ha":625,"x_min":0,"x_max":556,"o":"m 347 69 l 347 139 l 417 139 l 417 278 l 347 278 l 347 347 l 139 347 l 139 417 l 69 417 l 69 486 l 0 486 l 0 625 l 69 625 l 69 694 l 139 694 l 139 764 l 556 764 l 556 556 l 417 556 l 417 625 l 347 625 l 347 694 l 208 694 l 208 625 l 139 625 l 139 486 l 208 486 l 208 417 l 417 417 l 417 347 l 486 347 l 486 278 l 556 278 l 556 139 l 486 139 l 486 69 l 417 69 l 417 0 l 0 0 l 0 208 l 139 208 l 139 139 l 208 139 l 208 69 l 347 69 z "},"T":{"ha":625,"x_min":0,"x_max":556,"o":"m 347 69 l 417 69 l 417 0 l 139 0 l 139 69 l 208 69 l 208 694 l 139 694 l 139 625 l 0 625 l 0 764 l 556 764 l 556 625 l 417 625 l 417 694 l 347 694 l 347 69 z "},"U":{"ha":833,"x_min":0,"x_max":764,"o":"m 347 69 l 417 69 l 417 139 l 486 139 l 486 208 l 556 208 l 556 694 l 486 694 l 486 764 l 764 764 l 764 694 l 694 694 l 694 208 l 625 208 l 625 69 l 486 69 l 486 0 l 278 0 l 278 69 l 139 69 l 139 208 l 69 208 l 69 694 l 0 694 l 0 764 l 278 764 l 278 694 l 208 694 l 208 208 l 278 208 l 278 139 l 347 139 l 347 69 z "},"V":{"ha":764,"x_min":0,"x_max":694,"o":"m 0 764 l 278 764 l 278 694 l 208 694 l 208 556 l 278 556 l 278 347 l 417 347 l 417 556 l 486 556 l 486 694 l 417 694 l 417 764 l 694 764 l 694 694 l 625 694 l 625 556 l 556 556 l 556 347 l 486 347 l 486 139 l 417 139 l 417 0 l 278 0 l 278 139 l 208 139 l 208 347 l 139 347 l 139 556 l 69 556 l 69 694 l 0 694 l 0 764 z "},"W":{"ha":1042,"x_min":0,"x_max":972,"o":"m 694 139 l 694 0 l 556 0 l 556 139 l 417 139 l 417 0 l 278 0 l 278 139 l 208 139 l 208 347 l 139 347 l 139 556 l 69 556 l 69 694 l 0 694 l 0 764 l 278 764 l 278 694 l 208 694 l 208 556 l 278 556 l 278 347 l 417 347 l 417 556 l 556 556 l 556 347 l 694 347 l 694 556 l 764 556 l 764 694 l 694 694 l 694 764 l 972 764 l 972 694 l 903 694 l 903 556 l 833 556 l 833 347 l 764 347 l 764 139 l 694 139 z "},"X":{"ha":764,"x_min":0,"x_max":694,"o":"m 0 0 l 0 69 l 69 69 l 69 139 l 139 139 l 139 278 l 208 278 l 208 347 l 278 347 l 278 417 l 208 417 l 208 486 l 139 486 l 139 625 l 69 625 l 69 694 l 0 694 l 0 764 l 278 764 l 278 694 l 208 694 l 208 625 l 278 625 l 278 486 l 417 486 l 417 625 l 486 625 l 486 694 l 417 694 l 417 764 l 694 764 l 694 694 l 625 694 l 625 625 l 556 625 l 556 486 l 486 486 l 486 417 l 417 417 l 417 347 l 486 347 l 486 278 l 556 278 l 556 139 l 625 139 l 625 69 l 694 69 l 694 0 l 417 0 l 417 69 l 486 69 l 486 139 l 417 139 l 417 278 l 278 278 l 278 139 l 208 139 l 208 69 l 278 69 l 278 0 l 0 0 z "},"Y":{"ha":764,"x_min":0,"x_max":694,"o":"m 0 764 l 278 764 l 278 694 l 208 694 l 208 625 l 278 625 l 278 486 l 417 486 l 417 625 l 486 625 l 486 694 l 417 694 l 417 764 l 694 764 l 694 694 l 625 694 l 625 625 l 556 625 l 556 486 l 486 486 l 486 417 l 417 417 l 417 69 l 486 69 l 486 0 l 208 0 l 208 69 l 278 69 l 278 417 l 208 417 l 208 486 l 139 486 l 139 625 l 69 625 l 69 694 l 0 694 l 0 764 z "},"Z":{"ha":625,"x_min":0,"x_max":556,"o":"m 0 0 l 0 139 l 69 139 l 69 208 l 139 208 l 139 347 l 208 347 l 208 417 l 278 417 l 278 556 l 347 556 l 347 625 l 417 625 l 417 694 l 139 694 l 139 625 l 0 625 l 0 764 l 556 764 l 556 625 l 486 625 l 486 556 l 417 556 l 417 417 l 347 417 l 347 347 l 278 347 l 278 208 l 208 208 l 208 139 l 139 139 l 139 69 l 417 69 l 417 139 l 556 139 l 556 0 l 0 0 z "},"[":{"ha":347,"x_min":0,"x_max":278,"o":"m 0 -208 l 0 833 l 278 833 l 278 764 l 139 764 l 139 -139 l 278 -139 l 278 -208 l 0 -208 z "},"\\":{"ha":486,"x_min":0,"x_max":417,"o":"m 0 833 l 139 833 l 139 625 l 208 625 l 208 417 l 278 417 l 278 208 l 347 208 l 347 0 l 417 0 l 417 -208 l 278 -208 l 278 0 l 208 0 l 208 208 l 139 208 l 139 417 l 69 417 l 69 625 l 0 625 l 0 833 z "},"]":{"ha":347,"x_min":0,"x_max":278,"o":"m 0 -139 l 139 -139 l 139 764 l 0 764 l 0 833 l 278 833 l 278 -208 l 0 -208 l 0 -139 z "},"^":{"ha":486,"x_min":0,"x_max":417,"o":"m 139 625 l 0 625 l 0 694 l 69 694 l 69 764 l 139 764 l 139 833 l 278 833 l 278 764 l 347 764 l 347 694 l 417 694 l 417 625 l 278 625 l 278 694 l 139 694 l 139 625 z "},"_":{"ha":625,"x_min":0,"x_max":556,"o":"m 0 0 l 556 0 l 556 -69 l 0 -69 l 0 0 z "},"`":{"ha":347,"x_min":0,"x_max":278,"o":"m 0 764 l 0 833 l 139 833 l 139 764 l 208 764 l 208 694 l 278 694 l 278 625 l 139 625 l 139 694 l 69 694 l 69 764 l 0 764 z "},"a":{"ha":625,"x_min":0,"x_max":556,"o":"m 208 208 l 139 208 l 139 69 l 278 69 l 278 139 l 347 139 l 347 278 l 208 278 l 208 208 m 69 69 l 0 69 l 0 208 l 69 208 l 69 278 l 139 278 l 139 347 l 347 347 l 347 486 l 208 486 l 208 417 l 69 417 l 69 486 l 139 486 l 139 556 l 417 556 l 417 486 l 486 486 l 486 69 l 556 69 l 556 0 l 69 0 l 69 69 z "},"b":{"ha":694,"x_min":0,"x_max":625,"o":"m 0 0 l 0 69 l 69 69 l 69 764 l 0 764 l 0 833 l 208 833 l 208 556 l 486 556 l 486 486 l 556 486 l 556 417 l 625 417 l 625 139 l 556 139 l 556 69 l 486 69 l 486 0 l 0 0 m 278 486 l 278 417 l 208 417 l 208 139 l 278 139 l 278 69 l 417 69 l 417 139 l 486 139 l 486 417 l 417 417 l 417 486 l 278 486 z "},"c":{"ha":625,"x_min":0,"x_max":556,"o":"m 347 69 l 347 139 l 417 139 l 417 208 l 556 208 l 556 139 l 486 139 l 486 69 l 417 69 l 417 0 l 139 0 l 139 69 l 69 69 l 69 139 l 0 139 l 0 417 l 69 417 l 69 486 l 139 486 l 139 556 l 556 556 l 556 347 l 417 347 l 417 417 l 347 417 l 347 486 l 208 486 l 208 417 l 139 417 l 139 139 l 208 139 l 208 69 l 347 69 z "},"d":{"ha":694,"x_min":0,"x_max":625,"o":"m 347 69 l 347 139 l 417 139 l 417 417 l 347 417 l 347 486 l 208 486 l 208 417 l 139 417 l 139 139 l 208 139 l 208 69 l 347 69 m 139 0 l 139 69 l 69 69 l 69 139 l 0 139 l 0 417 l 69 417 l 69 486 l 139 486 l 139 556 l 417 556 l 417 764 l 347 764 l 347 833 l 556 833 l 556 69 l 625 69 l 625 0 l 139 0 z "},"e":{"ha":625,"x_min":0,"x_max":556,"o":"m 347 69 l 347 139 l 486 139 l 486 69 l 417 69 l 417 0 l 139 0 l 139 69 l 69 69 l 69 139 l 0 139 l 0 417 l 69 417 l 69 486 l 139 486 l 139 556 l 417 556 l 417 486 l 486 486 l 486 417 l 556 417 l 556 278 l 139 278 l 139 139 l 208 139 l 208 69 l 347 69 m 417 347 l 417 417 l 347 417 l 347 486 l 208 486 l 208 417 l 139 417 l 139 347 l 417 347 z "},"f":{"ha":347,"x_min":0,"x_max":417,"o":"m 0 0 l 0 69 l 69 69 l 69 486 l 0 486 l 0 556 l 69 556 l 69 694 l 139 694 l 139 764 l 208 764 l 208 833 l 417 833 l 417 764 l 278 764 l 278 694 l 208 694 l 208 556 l 278 556 l 278 486 l 208 486 l 208 69 l 278 69 l 278 0 l 0 0 z "},"g":{"ha":694,"x_min":0,"x_max":625,"o":"m 347 69 l 347 139 l 417 139 l 417 417 l 347 417 l 347 486 l 208 486 l 208 417 l 139 417 l 139 139 l 208 139 l 208 69 l 347 69 m 486 -139 l 486 -208 l 417 -208 l 417 -278 l 139 -278 l 139 -208 l 347 -208 l 347 -139 l 417 -139 l 417 0 l 139 0 l 139 69 l 69 69 l 69 139 l 0 139 l 0 417 l 69 417 l 69 486 l 139 486 l 139 556 l 625 556 l 625 486 l 556 486 l 556 -139 l 486 -139 z "},"h":{"ha":694,"x_min":0,"x_max":625,"o":"m 347 69 l 417 69 l 417 417 l 347 417 l 347 486 l 278 486 l 278 417 l 208 417 l 208 69 l 278 69 l 278 0 l 0 0 l 0 69 l 69 69 l 69 764 l 0 764 l 0 833 l 208 833 l 208 556 l 417 556 l 417 486 l 486 486 l 486 417 l 556 417 l 556 69 l 625 69 l 625 0 l 347 0 l 347 69 z "},"i":{"ha":347,"x_min":0,"x_max":278,"o":"m 69 833 l 208 833 l 208 694 l 69 694 l 69 833 m 0 0 l 0 69 l 69 69 l 69 486 l 0 486 l 0 556 l 208 556 l 208 69 l 278 69 l 278 0 l 0 0 z "},"j":{"ha":278,"x_min":-139,"x_max":208,"o":"m 69 833 l 208 833 l 208 694 l 69 694 l 69 833 m 69 -278 l -139 -278 l -139 -208 l 0 -208 l 0 -139 l 69 -139 l 69 486 l 0 486 l 0 556 l 208 556 l 208 -139 l 139 -139 l 139 -208 l 69 -208 l 69 -278 z "},"k":{"ha":694,"x_min":0,"x_max":625,"o":"m 347 69 l 417 69 l 417 139 l 347 139 l 347 208 l 208 208 l 208 69 l 278 69 l 278 0 l 0 0 l 0 69 l 69 69 l 69 764 l 0 764 l 0 833 l 208 833 l 208 347 l 278 347 l 278 417 l 347 417 l 347 486 l 278 486 l 278 556 l 556 556 l 556 486 l 486 486 l 486 417 l 417 417 l 417 347 l 347 347 l 347 278 l 417 278 l 417 208 l 486 208 l 486 139 l 556 139 l 556 69 l 625 69 l 625 0 l 347 0 l 347 69 z "},"l":{"ha":347,"x_min":0,"x_max":278,"o":"m 0 0 l 0 69 l 69 69 l 69 764 l 0 764 l 0 833 l 208 833 l 208 69 l 278 69 l 278 0 l 0 0 z "},"m":{"ha":1042,"x_min":0,"x_max":972,"o":"m 347 69 l 417 69 l 417 417 l 347 417 l 347 486 l 278 486 l 278 417 l 208 417 l 208 69 l 278 69 l 278 0 l 0 0 l 0 69 l 69 69 l 69 486 l 0 486 l 0 556 l 417 556 l 417 486 l 556 486 l 556 556 l 764 556 l 764 486 l 833 486 l 833 417 l 903 417 l 903 69 l 972 69 l 972 0 l 694 0 l 694 69 l 764 69 l 764 417 l 694 417 l 694 486 l 625 486 l 625 417 l 556 417 l 556 69 l 625 69 l 625 0 l 347 0 l 347 69 z "},"n":{"ha":694,"x_min":0,"x_max":625,"o":"m 347 69 l 417 69 l 417 417 l 347 417 l 347 486 l 278 486 l 278 417 l 208 417 l 208 69 l 278 69 l 278 0 l 0 0 l 0 69 l 69 69 l 69 486 l 0 486 l 0 556 l 417 556 l 417 486 l 486 486 l 486 417 l 556 417 l 556 69 l 625 69 l 625 0 l 347 0 l 347 69 z "},"o":{"ha":625,"x_min":0,"x_max":556,"o":"m 347 69 l 347 139 l 417 139 l 417 417 l 347 417 l 347 486 l 208 486 l 208 417 l 139 417 l 139 139 l 208 139 l 208 69 l 347 69 m 486 139 l 486 69 l 417 69 l 417 0 l 139 0 l 139 69 l 69 69 l 69 139 l 0 139 l 0 417 l 69 417 l 69 486 l 139 486 l 139 556 l 417 556 l 417 486 l 486 486 l 486 417 l 556 417 l 556 139 l 486 139 z "},"p":{"ha":694,"x_min":0,"x_max":625,"o":"m 0 -278 l 0 -208 l 69 -208 l 69 486 l 0 486 l 0 556 l 486 556 l 486 486 l 556 486 l 556 417 l 625 417 l 625 139 l 556 139 l 556 69 l 486 69 l 486 0 l 208 0 l 208 -208 l 278 -208 l 278 -278 l 0 -278 m 278 486 l 278 417 l 208 417 l 208 139 l 278 139 l 278 69 l 417 69 l 417 139 l 486 139 l 486 417 l 417 417 l 417 486 l 278 486 z "},"q":{"ha":694,"x_min":0,"x_max":625,"o":"m 347 69 l 347 139 l 417 139 l 417 417 l 347 417 l 347 486 l 208 486 l 208 417 l 139 417 l 139 139 l 208 139 l 208 69 l 347 69 m 139 0 l 139 69 l 69 69 l 69 139 l 0 139 l 0 417 l 69 417 l 69 486 l 139 486 l 139 556 l 625 556 l 625 486 l 556 486 l 556 -208 l 625 -208 l 625 -278 l 347 -278 l 347 -208 l 417 -208 l 417 0 l 139 0 z "},"r":{"ha":625,"x_min":0,"x_max":556,"o":"m 0 0 l 0 69 l 69 69 l 69 486 l 0 486 l 0 556 l 486 556 l 486 486 l 556 486 l 556 417 l 417 417 l 417 486 l 278 486 l 278 417 l 208 417 l 208 69 l 278 69 l 278 0 l 0 0 z "},"s":{"ha":556,"x_min":0,"x_max":486,"o":"m 347 69 l 347 208 l 208 208 l 208 278 l 69 278 l 69 347 l 0 347 l 0 486 l 69 486 l 69 556 l 486 556 l 486 347 l 347 347 l 347 417 l 278 417 l 278 486 l 139 486 l 139 347 l 278 347 l 278 278 l 417 278 l 417 208 l 486 208 l 486 69 l 417 69 l 417 0 l 0 0 l 0 208 l 139 208 l 139 139 l 208 139 l 208 69 l 347 69 z "},"t":{"ha":347,"x_min":0,"x_max":347,"o":"m 69 833 l 208 833 l 208 556 l 278 556 l 278 486 l 208 486 l 208 69 l 347 69 l 347 0 l 139 0 l 139 69 l 69 69 l 69 486 l 0 486 l 0 556 l 69 556 l 69 833 z "},"u":{"ha":694,"x_min":0,"x_max":625,"o":"m 347 69 l 347 139 l 417 139 l 417 486 l 347 486 l 347 556 l 556 556 l 556 69 l 625 69 l 625 0 l 208 0 l 208 69 l 139 69 l 139 139 l 69 139 l 69 486 l 0 486 l 0 556 l 208 556 l 208 139 l 278 139 l 278 69 l 347 69 z "},"v":{"ha":625,"x_min":0,"x_max":556,"o":"m 347 486 l 208 486 l 208 347 l 347 347 l 347 486 m 417 347 l 417 139 l 347 139 l 347 0 l 208 0 l 208 139 l 139 139 l 139 347 l 69 347 l 69 486 l 0 486 l 0 556 l 556 556 l 556 486 l 486 486 l 486 347 l 417 347 z "},"w":{"ha":764,"x_min":0,"x_max":694,"o":"m 625 347 l 556 347 l 556 139 l 486 139 l 486 0 l 208 0 l 208 139 l 139 139 l 139 347 l 69 347 l 69 486 l 0 486 l 0 556 l 278 556 l 278 486 l 208 486 l 208 347 l 486 347 l 486 486 l 417 486 l 417 556 l 694 556 l 694 486 l 625 486 l 625 347 z "},"x":{"ha":625,"x_min":0,"x_max":556,"o":"m 347 69 l 347 139 l 208 139 l 208 69 l 347 69 m 0 0 l 0 69 l 69 69 l 69 139 l 139 139 l 139 208 l 208 208 l 208 347 l 139 347 l 139 417 l 69 417 l 69 486 l 0 486 l 0 556 l 556 556 l 556 486 l 486 486 l 486 417 l 417 417 l 417 347 l 347 347 l 347 208 l 417 208 l 417 139 l 486 139 l 486 69 l 556 69 l 556 0 l 0 0 m 208 417 l 347 417 l 347 486 l 208 486 l 208 417 z "},"y":{"ha":625,"x_min":0,"x_max":556,"o":"m 0 -278 l 0 -208 l 69 -208 l 69 -139 l 139 -139 l 139 0 l 208 0 l 208 139 l 139 139 l 139 347 l 69 347 l 69 486 l 0 486 l 0 556 l 556 556 l 556 486 l 486 486 l 486 347 l 417 347 l 417 139 l 347 139 l 347 0 l 278 0 l 278 -139 l 208 -139 l 208 -208 l 139 -208 l 139 -278 l 0 -278 m 208 347 l 347 347 l 347 486 l 208 486 l 208 347 z "},"z":{"ha":556,"x_min":0,"x_max":486,"o":"m 347 69 l 347 139 l 486 139 l 486 0 l 0 0 l 0 139 l 69 139 l 69 208 l 139 208 l 139 278 l 208 278 l 208 347 l 278 347 l 278 417 l 347 417 l 347 486 l 139 486 l 139 417 l 0 417 l 0 556 l 486 556 l 486 417 l 417 417 l 417 347 l 347 347 l 347 278 l 278 278 l 278 208 l 208 208 l 208 139 l 139 139 l 139 69 l 347 69 z "},"{":{"ha":486,"x_min":0,"x_max":417,"o":"m 139 764 l 208 764 l 208 833 l 417 833 l 417 764 l 278 764 l 278 347 l 208 347 l 208 278 l 278 278 l 278 -139 l 417 -139 l 417 -208 l 208 -208 l 208 -139 l 139 -139 l 139 278 l 0 278 l 0 347 l 139 347 l 139 764 z "},"|":{"ha":208,"x_min":0,"x_max":139,"o":"m 0 -208 l 0 833 l 139 833 l 139 -208 l 0 -208 z "},"}":{"ha":486,"x_min":0,"x_max":417,"o":"m 0 764 l 0 833 l 208 833 l 208 764 l 278 764 l 278 347 l 417 347 l 417 278 l 278 278 l 278 -139 l 208 -139 l 208 -208 l 0 -208 l 0 -139 l 139 -139 l 139 278 l 208 278 l 208 347 l 139 347 l 139 764 l 0 764 z "},"~":{"ha":556,"x_min":0,"x_max":486,"o":"m 69 833 l 278 833 l 278 764 l 347 764 l 347 833 l 486 833 l 486 764 l 417 764 l 417 694 l 208 694 l 208 764 l 139 764 l 139 694 l 0 694 l 0 764 l 69 764 l 69 833 z "}," ":{"ha":417,"x_min":0,"x_max":0,"o":""},"¡":{"ha":208,"x_min":0,"x_max":139,"o":"m 0 -208 l 0 347 l 139 347 l 139 -208 l 0 -208 m 0 417 l 0 556 l 139 556 l 139 417 l 0 417 z "},"¢":{"ha":625,"x_min":0,"x_max":556,"o":"m 417 208 l 556 208 l 556 139 l 486 139 l 486 69 l 417 69 l 417 0 l 347 0 l 347 -139 l 208 -139 l 208 0 l 139 0 l 139 69 l 69 69 l 69 139 l 0 139 l 0 417 l 69 417 l 69 486 l 139 486 l 139 556 l 208 556 l 208 694 l 347 694 l 347 556 l 556 556 l 556 347 l 417 347 l 417 417 l 347 417 l 347 139 l 417 139 l 417 208 m 208 417 l 139 417 l 139 139 l 208 139 l 208 417 z "},"£":{"ha":625,"x_min":0,"x_max":556,"o":"m 0 0 l 0 69 l 69 69 l 69 139 l 139 139 l 139 417 l 69 417 l 69 486 l 139 486 l 139 694 l 208 694 l 208 764 l 417 764 l 417 694 l 486 694 l 486 625 l 347 625 l 347 694 l 278 694 l 278 486 l 417 486 l 417 417 l 278 417 l 278 139 l 208 139 l 208 69 l 417 69 l 417 139 l 556 139 l 556 0 l 0 0 z "},"¤":{"ha":556,"x_min":0,"x_max":486,"o":"m 486 278 l 417 278 l 417 208 l 486 208 l 486 139 l 0 139 l 0 208 l 69 208 l 69 278 l 0 278 l 0 417 l 69 417 l 69 486 l 0 486 l 0 556 l 486 556 l 486 486 l 417 486 l 417 417 l 486 417 l 486 278 m 278 486 l 208 486 l 208 417 l 139 417 l 139 278 l 208 278 l 208 208 l 278 208 l 278 278 l 347 278 l 347 417 l 278 417 l 278 486 z "},"¥":{"ha":764,"x_min":0,"x_max":694,"o":"m 0 764 l 278 764 l 278 694 l 208 694 l 208 625 l 278 625 l 278 486 l 417 486 l 417 625 l 486 625 l 486 694 l 417 694 l 417 764 l 694 764 l 694 694 l 625 694 l 625 625 l 556 625 l 556 486 l 486 486 l 486 417 l 556 417 l 556 347 l 417 347 l 417 278 l 556 278 l 556 208 l 417 208 l 417 69 l 486 69 l 486 0 l 208 0 l 208 69 l 278 69 l 278 208 l 139 208 l 139 278 l 278 278 l 278 347 l 139 347 l 139 417 l 208 417 l 208 486 l 139 486 l 139 625 l 69 625 l 69 694 l 0 694 l 0 764 z "},"¦":{"ha":208,"x_min":0,"x_max":139,"o":"m 0 -208 l 0 208 l 139 208 l 139 -208 l 0 -208 m 0 417 l 0 833 l 139 833 l 139 417 l 0 417 z "},"§":{"ha":556,"x_min":0,"x_max":486,"o":"m 417 208 l 347 208 l 347 139 l 417 139 l 417 0 l 347 0 l 347 -69 l 139 -69 l 139 0 l 69 0 l 69 69 l 208 69 l 208 0 l 278 0 l 278 139 l 139 139 l 139 208 l 69 208 l 69 278 l 0 278 l 0 417 l 69 417 l 69 486 l 139 486 l 139 556 l 69 556 l 69 694 l 139 694 l 139 764 l 347 764 l 347 694 l 417 694 l 417 625 l 278 625 l 278 694 l 208 694 l 208 556 l 347 556 l 347 486 l 417 486 l 417 417 l 486 417 l 486 278 l 417 278 l 417 208 m 278 278 l 347 278 l 347 417 l 278 417 l 278 486 l 208 486 l 208 417 l 139 417 l 139 278 l 208 278 l 208 208 l 278 208 l 278 278 z "},"¨":{"ha":556,"x_min":0,"x_max":486,"o":"m 486 833 l 486 764 l 278 764 l 278 833 l 486 833 m 0 764 l 0 833 l 208 833 l 208 764 l 0 764 z "},"©":{"ha":903,"x_min":0,"x_max":833,"o":"m 694 139 l 694 69 l 556 69 l 556 0 l 278 0 l 278 69 l 139 69 l 139 139 l 69 139 l 69 278 l 0 278 l 0 486 l 69 486 l 69 625 l 139 625 l 139 694 l 278 694 l 278 764 l 556 764 l 556 694 l 694 694 l 694 625 l 764 625 l 764 486 l 833 486 l 833 278 l 764 278 l 764 139 l 694 139 m 625 347 l 625 278 l 556 278 l 556 208 l 278 208 l 278 278 l 208 278 l 208 486 l 278 486 l 278 556 l 556 556 l 556 486 l 625 486 l 625 417 l 486 417 l 486 486 l 347 486 l 347 278 l 486 278 l 486 347 l 625 347 m 139 486 l 139 278 l 208 278 l 208 139 l 347 139 l 347 69 l 486 69 l 486 139 l 625 139 l 625 278 l 694 278 l 694 486 l 625 486 l 625 625 l 486 625 l 486 694 l 347 694 l 347 625 l 208 625 l 208 486 l 139 486 z "},"ª":{"ha":556,"x_min":0,"x_max":486,"o":"m 417 347 l 417 278 l 69 278 l 69 347 l 417 347 m 486 417 l 69 417 l 69 486 l 0 486 l 0 556 l 69 556 l 69 625 l 278 625 l 278 694 l 69 694 l 69 764 l 347 764 l 347 694 l 417 694 l 417 486 l 486 486 l 486 417 m 278 486 l 278 556 l 139 556 l 139 486 l 278 486 z "},"«":{"ha":625,"x_min":0,"x_max":556,"o":"m 417 208 l 486 208 l 486 139 l 556 139 l 556 69 l 417 69 l 417 139 l 347 139 l 347 208 l 278 208 l 278 278 l 208 278 l 208 347 l 278 347 l 278 417 l 347 417 l 347 486 l 417 486 l 417 556 l 556 556 l 556 486 l 486 486 l 486 417 l 417 417 l 417 347 l 347 347 l 347 278 l 417 278 l 417 208 m 208 347 l 139 347 l 139 278 l 208 278 l 208 208 l 278 208 l 278 139 l 347 139 l 347 69 l 208 69 l 208 139 l 139 139 l 139 208 l 69 208 l 69 278 l 0 278 l 0 347 l 69 347 l 69 417 l 139 417 l 139 486 l 208 486 l 208 556 l 347 556 l 347 486 l 278 486 l 278 417 l 208 417 l 208 347 z "},"¬":{"ha":625,"x_min":0,"x_max":556,"o":"m 417 208 l 417 347 l 0 347 l 0 417 l 556 417 l 556 208 l 417 208 z "},"­":{"ha":556,"x_min":0,"x_max":486,"o":"m 486 278 l 0 278 l 0 347 l 486 347 l 486 278 z "},"®":{"ha":903,"x_min":0,"x_max":833,"o":"m 694 139 l 694 69 l 556 69 l 556 0 l 278 0 l 278 69 l 139 69 l 139 139 l 69 139 l 69 278 l 0 278 l 0 486 l 69 486 l 69 625 l 139 625 l 139 694 l 278 694 l 278 764 l 556 764 l 556 694 l 694 694 l 694 625 l 764 625 l 764 486 l 833 486 l 833 278 l 764 278 l 764 139 l 694 139 m 486 278 l 417 278 l 417 347 l 347 347 l 347 208 l 208 208 l 208 139 l 347 139 l 347 69 l 486 69 l 486 139 l 625 139 l 625 208 l 486 208 l 486 278 m 556 556 l 556 486 l 625 486 l 625 417 l 556 417 l 556 278 l 694 278 l 694 486 l 625 486 l 625 625 l 486 625 l 486 694 l 347 694 l 347 625 l 208 625 l 208 556 l 556 556 m 139 486 l 139 278 l 208 278 l 208 486 l 139 486 m 347 417 l 486 417 l 486 486 l 347 486 l 347 417 z "},"¯":{"ha":486,"x_min":0,"x_max":417,"o":"m 0 764 l 0 833 l 417 833 l 417 764 l 0 764 z "},"°":{"ha":486,"x_min":0,"x_max":417,"o":"m 347 486 l 347 417 l 69 417 l 69 486 l 0 486 l 0 694 l 69 694 l 69 764 l 347 764 l 347 694 l 417 694 l 417 486 l 347 486 m 139 694 l 139 486 l 278 486 l 278 694 l 139 694 z "},"±":{"ha":625,"x_min":0,"x_max":556,"o":"m 0 0 l 0 69 l 556 69 l 556 0 l 0 0 m 556 417 l 556 347 l 347 347 l 347 139 l 208 139 l 208 347 l 0 347 l 0 417 l 208 417 l 208 625 l 347 625 l 347 417 l 556 417 z "},"²":{"ha":486,"x_min":0,"x_max":417,"o":"m 69 833 l 347 833 l 347 764 l 417 764 l 417 694 l 347 694 l 347 625 l 278 625 l 278 556 l 208 556 l 208 486 l 417 486 l 417 417 l 0 417 l 0 486 l 69 486 l 69 556 l 139 556 l 139 625 l 208 625 l 208 694 l 278 694 l 278 764 l 139 764 l 139 694 l 0 694 l 0 764 l 69 764 l 69 833 z "},"³":{"ha":486,"x_min":0,"x_max":417,"o":"m 69 833 l 347 833 l 347 764 l 417 764 l 417 694 l 347 694 l 347 625 l 417 625 l 417 486 l 347 486 l 347 417 l 69 417 l 69 486 l 0 486 l 0 556 l 139 556 l 139 486 l 278 486 l 278 625 l 139 625 l 139 694 l 278 694 l 278 764 l 139 764 l 139 694 l 0 694 l 0 764 l 69 764 l 69 833 z "},"´":{"ha":347,"x_min":0,"x_max":278,"o":"m 139 625 l 0 625 l 0 694 l 69 694 l 69 764 l 139 764 l 139 833 l 278 833 l 278 764 l 208 764 l 208 694 l 139 694 l 139 625 z "},"µ":{"ha":694,"x_min":0,"x_max":625,"o":"m 347 69 l 347 139 l 417 139 l 417 486 l 347 486 l 347 556 l 556 556 l 556 69 l 625 69 l 625 0 l 208 0 l 208 -278 l 69 -278 l 69 486 l 0 486 l 0 556 l 208 556 l 208 139 l 278 139 l 278 69 l 347 69 z "},"¶":{"ha":764,"x_min":0,"x_max":694,"o":"m 139 694 l 139 764 l 694 764 l 694 694 l 625 694 l 625 -69 l 347 -69 l 347 278 l 139 278 l 139 347 l 69 347 l 69 417 l 0 417 l 0 625 l 69 625 l 69 694 l 139 694 z "},"·":{"ha":208,"x_min":0,"x_max":139,"o":"m 0 486 l 139 486 l 139 347 l 0 347 l 0 486 z "},"¸":{"ha":486,"x_min":69,"x_max":347,"o":"m 139 0 l 278 0 l 278 -69 l 347 -69 l 347 -208 l 278 -208 l 278 -278 l 139 -278 l 139 -208 l 69 -208 l 69 -139 l 208 -139 l 208 -69 l 139 -69 l 139 0 z "},"¹":{"ha":486,"x_min":69,"x_max":347,"o":"m 347 486 l 347 417 l 69 417 l 69 486 l 139 486 l 139 694 l 69 694 l 69 764 l 139 764 l 139 833 l 278 833 l 278 486 l 347 486 z "},"º":{"ha":486,"x_min":0,"x_max":417,"o":"m 347 486 l 347 417 l 69 417 l 69 486 l 0 486 l 0 694 l 69 694 l 69 764 l 347 764 l 347 694 l 417 694 l 417 486 l 347 486 m 139 694 l 139 486 l 278 486 l 278 694 l 139 694 m 69 278 l 69 347 l 347 347 l 347 278 l 69 278 z "},"»":{"ha":625,"x_min":0,"x_max":556,"o":"m 486 278 l 486 208 l 417 208 l 417 139 l 347 139 l 347 69 l 208 69 l 208 139 l 278 139 l 278 208 l 347 208 l 347 278 l 417 278 l 417 347 l 347 347 l 347 417 l 278 417 l 278 486 l 208 486 l 208 556 l 347 556 l 347 486 l 417 486 l 417 417 l 486 417 l 486 347 l 556 347 l 556 278 l 486 278 m 208 347 l 139 347 l 139 417 l 69 417 l 69 486 l 0 486 l 0 556 l 139 556 l 139 486 l 208 486 l 208 417 l 278 417 l 278 347 l 347 347 l 347 278 l 278 278 l 278 208 l 208 208 l 208 139 l 139 139 l 139 69 l 0 69 l 0 139 l 69 139 l 69 208 l 139 208 l 139 278 l 208 278 l 208 347 z "},"¼":{"ha":764,"x_min":0,"x_max":694,"o":"m 347 69 l 347 139 l 278 139 l 278 0 l 139 0 l 139 139 l 208 139 l 208 278 l 278 278 l 278 417 l 0 417 l 0 486 l 69 486 l 69 625 l 0 625 l 0 694 l 69 694 l 69 764 l 208 764 l 208 486 l 347 486 l 347 625 l 417 625 l 417 764 l 556 764 l 556 625 l 486 625 l 486 486 l 417 486 l 417 278 l 347 278 l 347 208 l 417 208 l 417 278 l 486 278 l 486 347 l 625 347 l 625 139 l 694 139 l 694 69 l 625 69 l 625 0 l 486 0 l 486 69 l 347 69 z "},"½":{"ha":764,"x_min":0,"x_max":694,"o":"m 625 347 l 625 278 l 694 278 l 694 208 l 625 208 l 625 139 l 556 139 l 556 69 l 694 69 l 694 0 l 347 0 l 347 69 l 417 69 l 417 139 l 486 139 l 486 208 l 556 208 l 556 278 l 486 278 l 486 208 l 347 208 l 347 139 l 278 139 l 278 0 l 139 0 l 139 139 l 208 139 l 208 278 l 278 278 l 278 417 l 0 417 l 0 486 l 69 486 l 69 625 l 0 625 l 0 694 l 69 694 l 69 764 l 208 764 l 208 486 l 347 486 l 347 625 l 417 625 l 417 764 l 556 764 l 556 625 l 486 625 l 486 486 l 417 486 l 417 347 l 625 347 z "},"¾":{"ha":764,"x_min":0,"x_max":694,"o":"m 625 347 l 625 139 l 694 139 l 694 69 l 625 69 l 625 0 l 486 0 l 486 69 l 347 69 l 347 139 l 278 139 l 278 0 l 139 0 l 139 139 l 208 139 l 208 278 l 278 278 l 278 417 l 69 417 l 69 486 l 0 486 l 0 556 l 139 556 l 139 486 l 208 486 l 208 556 l 139 556 l 139 625 l 208 625 l 208 694 l 139 694 l 139 625 l 0 625 l 0 694 l 69 694 l 69 764 l 278 764 l 278 694 l 347 694 l 347 625 l 278 625 l 278 556 l 347 556 l 347 625 l 417 625 l 417 764 l 556 764 l 556 625 l 486 625 l 486 486 l 417 486 l 417 278 l 347 278 l 347 208 l 417 208 l 417 278 l 486 278 l 486 347 l 625 347 z "},"¿":{"ha":625,"x_min":0,"x_max":556,"o":"m 486 -139 l 417 -139 l 417 -208 l 139 -208 l 139 -139 l 69 -139 l 69 -69 l 0 -69 l 0 69 l 69 69 l 69 139 l 139 139 l 139 208 l 208 208 l 208 347 l 347 347 l 347 208 l 278 208 l 278 139 l 208 139 l 208 69 l 139 69 l 139 -69 l 208 -69 l 208 -139 l 347 -139 l 347 -69 l 417 -69 l 417 0 l 556 0 l 556 -69 l 486 -69 l 486 -139 m 208 417 l 208 556 l 347 556 l 347 417 l 208 417 z "},"À":{"ha":764,"x_min":0,"x_max":694,"o":"m 0 0 l 0 69 l 69 69 l 69 208 l 139 208 l 139 417 l 208 417 l 208 625 l 278 625 l 278 694 l 208 694 l 208 764 l 417 764 l 417 625 l 486 625 l 486 417 l 556 417 l 556 208 l 625 208 l 625 69 l 694 69 l 694 0 l 417 0 l 417 69 l 486 69 l 486 208 l 417 208 l 417 278 l 278 278 l 278 208 l 208 208 l 208 69 l 278 69 l 278 0 l 0 0 m 417 347 l 417 417 l 278 417 l 278 347 l 417 347 m 278 903 l 208 903 l 208 972 l 347 972 l 347 903 l 417 903 l 417 833 l 278 833 l 278 903 z "},"Á":{"ha":764,"x_min":0,"x_max":694,"o":"m 0 0 l 0 69 l 69 69 l 69 208 l 139 208 l 139 417 l 208 417 l 208 625 l 278 625 l 278 694 l 208 694 l 208 764 l 417 764 l 417 625 l 486 625 l 486 417 l 556 417 l 556 208 l 625 208 l 625 69 l 694 69 l 694 0 l 417 0 l 417 69 l 486 69 l 486 208 l 417 208 l 417 278 l 278 278 l 278 208 l 208 208 l 208 69 l 278 69 l 278 0 l 0 0 m 417 347 l 417 417 l 278 417 l 278 347 l 417 347 m 278 903 l 347 903 l 347 972 l 486 972 l 486 903 l 417 903 l 417 833 l 278 833 l 278 903 z "},"Â":{"ha":764,"x_min":0,"x_max":694,"o":"m 0 0 l 0 69 l 69 69 l 69 208 l 139 208 l 139 417 l 208 417 l 208 625 l 278 625 l 278 694 l 208 694 l 208 764 l 417 764 l 417 625 l 486 625 l 486 417 l 556 417 l 556 208 l 625 208 l 625 69 l 694 69 l 694 0 l 417 0 l 417 69 l 486 69 l 486 208 l 417 208 l 417 278 l 278 278 l 278 208 l 208 208 l 208 69 l 278 69 l 278 0 l 0 0 m 417 347 l 417 417 l 278 417 l 278 347 l 417 347 m 278 903 l 278 972 l 417 972 l 417 903 l 486 903 l 486 833 l 208 833 l 208 903 l 278 903 z "},"Ã":{"ha":764,"x_min":0,"x_max":694,"o":"m 0 0 l 0 69 l 69 69 l 69 208 l 139 208 l 139 417 l 208 417 l 208 625 l 278 625 l 278 694 l 208 694 l 208 764 l 417 764 l 417 625 l 486 625 l 486 417 l 556 417 l 556 208 l 625 208 l 625 69 l 694 69 l 694 0 l 417 0 l 417 69 l 486 69 l 486 208 l 417 208 l 417 278 l 278 278 l 278 208 l 208 208 l 208 69 l 278 69 l 278 0 l 0 0 m 417 347 l 417 417 l 278 417 l 278 347 l 417 347 m 139 903 l 208 903 l 208 972 l 556 972 l 556 903 l 486 903 l 486 833 l 139 833 l 139 903 z "},"Ä":{"ha":764,"x_min":0,"x_max":694,"o":"m 0 0 l 0 69 l 69 69 l 69 208 l 139 208 l 139 417 l 208 417 l 208 625 l 278 625 l 278 694 l 208 694 l 208 764 l 417 764 l 417 625 l 486 625 l 486 417 l 556 417 l 556 208 l 625 208 l 625 69 l 694 69 l 694 0 l 417 0 l 417 69 l 486 69 l 486 208 l 417 208 l 417 278 l 278 278 l 278 208 l 208 208 l 208 69 l 278 69 l 278 0 l 0 0 m 417 347 l 417 417 l 278 417 l 278 347 l 417 347 m 139 903 l 556 903 l 556 833 l 139 833 l 139 903 z "},"Å":{"ha":764,"x_min":0,"x_max":694,"o":"m 0 0 l 0 69 l 69 69 l 69 208 l 139 208 l 139 417 l 208 417 l 208 625 l 278 625 l 278 764 l 208 764 l 208 833 l 139 833 l 139 903 l 208 903 l 208 972 l 486 972 l 486 903 l 556 903 l 556 833 l 486 833 l 486 764 l 417 764 l 417 625 l 486 625 l 486 417 l 556 417 l 556 208 l 625 208 l 625 69 l 694 69 l 694 0 l 417 0 l 417 69 l 486 69 l 486 208 l 417 208 l 417 278 l 278 278 l 278 208 l 208 208 l 208 69 l 278 69 l 278 0 l 0 0 m 417 417 l 278 417 l 278 347 l 417 347 l 417 417 m 278 903 l 278 833 l 417 833 l 417 903 l 278 903 z "},"Æ":{"ha":1042,"x_min":0,"x_max":972,"o":"m 0 0 l 0 69 l 69 69 l 69 208 l 139 208 l 139 347 l 208 347 l 208 486 l 278 486 l 278 625 l 347 625 l 347 694 l 278 694 l 278 764 l 972 764 l 972 625 l 833 625 l 833 694 l 556 694 l 556 417 l 694 417 l 694 486 l 833 486 l 833 278 l 694 278 l 694 347 l 556 347 l 556 69 l 833 69 l 833 139 l 972 139 l 972 0 l 347 0 l 347 69 l 417 69 l 417 347 l 278 347 l 278 208 l 208 208 l 208 69 l 278 69 l 278 0 l 0 0 m 417 417 l 417 486 l 347 486 l 347 417 l 417 417 z "},"Ç":{"ha":694,"x_min":0,"x_max":625,"o":"m 486 139 l 486 208 l 625 208 l 625 69 l 486 69 l 486 0 l 417 0 l 417 -69 l 486 -69 l 486 -208 l 417 -208 l 417 -278 l 278 -278 l 278 -208 l 208 -208 l 208 -139 l 347 -139 l 347 -69 l 278 -69 l 278 0 l 208 0 l 208 69 l 69 69 l 69 208 l 0 208 l 0 556 l 69 556 l 69 694 l 208 694 l 208 764 l 625 764 l 625 556 l 486 556 l 486 625 l 417 625 l 417 694 l 278 694 l 278 625 l 208 625 l 208 556 l 139 556 l 139 208 l 208 208 l 208 139 l 278 139 l 278 69 l 417 69 l 417 139 l 486 139 z "},"È":{"ha":694,"x_min":0,"x_max":625,"o":"m 0 0 l 0 69 l 69 69 l 69 694 l 0 694 l 0 764 l 625 764 l 625 625 l 486 625 l 486 694 l 208 694 l 208 417 l 347 417 l 347 486 l 486 486 l 486 278 l 347 278 l 347 347 l 208 347 l 208 69 l 486 69 l 486 139 l 625 139 l 625 0 l 0 0 m 278 903 l 208 903 l 208 972 l 347 972 l 347 903 l 417 903 l 417 833 l 278 833 l 278 903 z "},"É":{"ha":694,"x_min":0,"x_max":625,"o":"m 0 0 l 0 69 l 69 69 l 69 694 l 0 694 l 0 764 l 625 764 l 625 625 l 486 625 l 486 694 l 208 694 l 208 417 l 347 417 l 347 486 l 486 486 l 486 278 l 347 278 l 347 347 l 208 347 l 208 69 l 486 69 l 486 139 l 625 139 l 625 0 l 0 0 m 278 903 l 278 972 l 417 972 l 417 903 l 347 903 l 347 833 l 208 833 l 208 903 l 278 903 z "},"Ê":{"ha":694,"x_min":0,"x_max":625,"o":"m 0 0 l 0 69 l 69 69 l 69 694 l 0 694 l 0 764 l 625 764 l 625 625 l 486 625 l 486 694 l 208 694 l 208 417 l 347 417 l 347 486 l 486 486 l 486 278 l 347 278 l 347 347 l 208 347 l 208 69 l 486 69 l 486 139 l 625 139 l 625 0 l 0 0 m 139 903 l 208 903 l 208 972 l 417 972 l 417 903 l 486 903 l 486 833 l 347 833 l 347 903 l 278 903 l 278 833 l 139 833 l 139 903 z "},"Ë":{"ha":694,"x_min":0,"x_max":625,"o":"m 69 833 l 69 903 l 278 903 l 278 833 l 69 833 m 0 0 l 0 69 l 69 69 l 69 694 l 0 694 l 0 764 l 625 764 l 625 625 l 486 625 l 486 694 l 208 694 l 208 417 l 347 417 l 347 486 l 486 486 l 486 278 l 347 278 l 347 347 l 208 347 l 208 69 l 486 69 l 486 139 l 625 139 l 625 0 l 0 0 m 347 833 l 347 903 l 556 903 l 556 833 l 347 833 z "},"Ì":{"ha":347,"x_min":0,"x_max":278,"o":"m 69 833 l 69 903 l 0 903 l 0 972 l 139 972 l 139 903 l 208 903 l 208 833 l 69 833 m 0 0 l 0 69 l 69 69 l 69 694 l 0 694 l 0 764 l 278 764 l 278 694 l 208 694 l 208 69 l 278 69 l 278 0 l 0 0 z "},"Í":{"ha":347,"x_min":0,"x_max":278,"o":"m 69 833 l 69 903 l 139 903 l 139 972 l 278 972 l 278 903 l 208 903 l 208 833 l 69 833 m 0 0 l 0 69 l 69 69 l 69 694 l 0 694 l 0 764 l 278 764 l 278 694 l 208 694 l 208 69 l 278 69 l 278 0 l 0 0 z "},"Î":{"ha":347,"x_min":0,"x_max":278,"o":"m 0 0 l 0 69 l 69 69 l 69 694 l 0 694 l 0 764 l 278 764 l 278 694 l 208 694 l 208 69 l 278 69 l 278 0 l 0 0 m 69 972 l 208 972 l 208 903 l 278 903 l 278 833 l 0 833 l 0 903 l 69 903 l 69 972 z "},"Ï":{"ha":347,"x_min":-69,"x_max":347,"o":"m 0 0 l 0 69 l 69 69 l 69 694 l 0 694 l 0 764 l 278 764 l 278 694 l 208 694 l 208 69 l 278 69 l 278 0 l 0 0 m 347 833 l -69 833 l -69 903 l 347 903 l 347 833 z "},"Ð":{"ha":694,"x_min":0,"x_max":625,"o":"m 347 69 l 347 139 l 417 139 l 417 208 l 486 208 l 486 556 l 417 556 l 417 625 l 347 625 l 347 694 l 208 694 l 208 417 l 278 417 l 278 347 l 208 347 l 208 69 l 347 69 m 0 0 l 0 69 l 69 69 l 69 347 l 0 347 l 0 417 l 69 417 l 69 694 l 0 694 l 0 764 l 417 764 l 417 694 l 556 694 l 556 556 l 625 556 l 625 208 l 556 208 l 556 69 l 417 69 l 417 0 l 0 0 z "},"Ñ":{"ha":764,"x_min":0,"x_max":694,"o":"m 69 833 l 69 903 l 139 903 l 139 972 l 417 972 l 417 903 l 486 903 l 486 972 l 625 972 l 625 903 l 556 903 l 556 833 l 278 833 l 278 903 l 208 903 l 208 833 l 69 833 m 0 0 l 0 69 l 69 69 l 69 694 l 0 694 l 0 764 l 208 764 l 208 694 l 278 694 l 278 556 l 347 556 l 347 417 l 417 417 l 417 278 l 486 278 l 486 694 l 417 694 l 417 764 l 694 764 l 694 694 l 625 694 l 625 0 l 486 0 l 486 69 l 417 69 l 417 139 l 347 139 l 347 278 l 278 278 l 278 417 l 208 417 l 208 69 l 278 69 l 278 0 l 0 0 z "},"Ò":{"ha":764,"x_min":0,"x_max":694,"o":"m 486 139 l 486 208 l 556 208 l 556 556 l 486 556 l 486 625 l 417 625 l 417 694 l 278 694 l 278 625 l 208 625 l 208 556 l 139 556 l 139 208 l 208 208 l 208 139 l 278 139 l 278 69 l 417 69 l 417 139 l 486 139 m 625 208 l 625 69 l 486 69 l 486 0 l 208 0 l 208 69 l 69 69 l 69 208 l 0 208 l 0 556 l 69 556 l 69 694 l 208 694 l 208 764 l 486 764 l 486 694 l 625 694 l 625 556 l 694 556 l 694 208 l 625 208 m 278 903 l 208 903 l 208 972 l 347 972 l 347 903 l 417 903 l 417 833 l 278 833 l 278 903 z "},"Ó":{"ha":764,"x_min":0,"x_max":694,"o":"m 486 139 l 486 208 l 556 208 l 556 556 l 486 556 l 486 625 l 417 625 l 417 694 l 278 694 l 278 625 l 208 625 l 208 556 l 139 556 l 139 208 l 208 208 l 208 139 l 278 139 l 278 69 l 417 69 l 417 139 l 486 139 m 625 208 l 625 69 l 486 69 l 486 0 l 208 0 l 208 69 l 69 69 l 69 208 l 0 208 l 0 556 l 69 556 l 69 694 l 208 694 l 208 764 l 486 764 l 486 694 l 625 694 l 625 556 l 694 556 l 694 208 l 625 208 m 278 903 l 347 903 l 347 972 l 486 972 l 486 903 l 417 903 l 417 833 l 278 833 l 278 903 z "},"Ô":{"ha":764,"x_min":0,"x_max":694,"o":"m 556 556 l 486 556 l 486 625 l 417 625 l 417 694 l 278 694 l 278 625 l 208 625 l 208 556 l 139 556 l 139 208 l 208 208 l 208 139 l 278 139 l 278 69 l 417 69 l 417 139 l 486 139 l 486 208 l 556 208 l 556 556 m 625 208 l 625 69 l 486 69 l 486 0 l 208 0 l 208 69 l 69 69 l 69 208 l 0 208 l 0 556 l 69 556 l 69 694 l 208 694 l 208 764 l 486 764 l 486 694 l 625 694 l 625 556 l 694 556 l 694 208 l 625 208 m 278 903 l 278 972 l 417 972 l 417 903 l 486 903 l 486 833 l 208 833 l 208 903 l 278 903 z "},"Õ":{"ha":764,"x_min":0,"x_max":694,"o":"m 556 556 l 486 556 l 486 625 l 417 625 l 417 694 l 278 694 l 278 625 l 208 625 l 208 556 l 139 556 l 139 208 l 208 208 l 208 139 l 278 139 l 278 69 l 417 69 l 417 139 l 486 139 l 486 208 l 556 208 l 556 556 m 625 208 l 625 69 l 486 69 l 486 0 l 208 0 l 208 69 l 69 69 l 69 208 l 0 208 l 0 556 l 69 556 l 69 694 l 208 694 l 208 764 l 486 764 l 486 694 l 625 694 l 625 556 l 694 556 l 694 208 l 625 208 m 139 903 l 208 903 l 208 972 l 556 972 l 556 903 l 486 903 l 486 833 l 139 833 l 139 903 z "},"Ö":{"ha":764,"x_min":0,"x_max":694,"o":"m 556 556 l 486 556 l 486 625 l 417 625 l 417 694 l 278 694 l 278 625 l 208 625 l 208 556 l 139 556 l 139 208 l 208 208 l 208 139 l 278 139 l 278 69 l 417 69 l 417 139 l 486 139 l 486 208 l 556 208 l 556 556 m 625 208 l 625 69 l 486 69 l 486 0 l 208 0 l 208 69 l 69 69 l 69 208 l 0 208 l 0 556 l 69 556 l 69 694 l 208 694 l 208 764 l 486 764 l 486 694 l 625 694 l 625 556 l 694 556 l 694 208 l 625 208 m 139 903 l 556 903 l 556 833 l 139 833 l 139 903 z "},"×":{"ha":625,"x_min":0,"x_max":556,"o":"m 417 208 l 486 208 l 486 139 l 556 139 l 556 69 l 417 69 l 417 139 l 347 139 l 347 208 l 208 208 l 208 139 l 139 139 l 139 69 l 0 69 l 0 139 l 69 139 l 69 208 l 139 208 l 139 278 l 208 278 l 208 347 l 139 347 l 139 417 l 69 417 l 69 486 l 0 486 l 0 556 l 139 556 l 139 486 l 208 486 l 208 417 l 347 417 l 347 486 l 417 486 l 417 556 l 556 556 l 556 486 l 486 486 l 486 417 l 417 417 l 417 347 l 347 347 l 347 278 l 417 278 l 417 208 z "},"Ø":{"ha":764,"x_min":0,"x_max":694,"o":"m 0 0 l 0 69 l 69 69 l 69 208 l 0 208 l 0 556 l 69 556 l 69 694 l 208 694 l 208 764 l 486 764 l 486 694 l 556 694 l 556 764 l 694 764 l 694 694 l 625 694 l 625 556 l 694 556 l 694 208 l 625 208 l 625 69 l 486 69 l 486 0 l 208 0 l 208 69 l 139 69 l 139 0 l 0 0 m 486 556 l 486 625 l 417 625 l 417 694 l 278 694 l 278 625 l 208 625 l 208 556 l 139 556 l 139 278 l 208 278 l 208 347 l 278 347 l 278 417 l 347 417 l 347 486 l 417 486 l 417 556 l 486 556 m 417 417 l 417 347 l 347 347 l 347 278 l 278 278 l 278 208 l 208 208 l 208 139 l 278 139 l 278 69 l 417 69 l 417 139 l 486 139 l 486 208 l 556 208 l 556 486 l 486 486 l 486 417 l 417 417 z "},"Ù":{"ha":833,"x_min":0,"x_max":764,"o":"m 347 69 l 417 69 l 417 139 l 486 139 l 486 208 l 556 208 l 556 694 l 486 694 l 486 764 l 764 764 l 764 694 l 694 694 l 694 208 l 625 208 l 625 69 l 486 69 l 486 0 l 278 0 l 278 69 l 139 69 l 139 208 l 69 208 l 69 694 l 0 694 l 0 764 l 278 764 l 278 694 l 208 694 l 208 208 l 278 208 l 278 139 l 347 139 l 347 69 m 278 903 l 278 972 l 417 972 l 417 903 l 486 903 l 486 833 l 347 833 l 347 903 l 278 903 z "},"Ú":{"ha":833,"x_min":0,"x_max":764,"o":"m 347 69 l 417 69 l 417 139 l 486 139 l 486 208 l 556 208 l 556 694 l 486 694 l 486 764 l 764 764 l 764 694 l 694 694 l 694 208 l 625 208 l 625 69 l 486 69 l 486 0 l 278 0 l 278 69 l 139 69 l 139 208 l 69 208 l 69 694 l 0 694 l 0 764 l 278 764 l 278 694 l 208 694 l 208 208 l 278 208 l 278 139 l 347 139 l 347 69 m 278 903 l 347 903 l 347 972 l 486 972 l 486 903 l 417 903 l 417 833 l 278 833 l 278 903 z "},"Û":{"ha":833,"x_min":0,"x_max":764,"o":"m 347 69 l 417 69 l 417 139 l 486 139 l 486 208 l 556 208 l 556 694 l 486 694 l 486 764 l 764 764 l 764 694 l 694 694 l 694 208 l 625 208 l 625 69 l 486 69 l 486 0 l 278 0 l 278 69 l 139 69 l 139 208 l 69 208 l 69 694 l 0 694 l 0 764 l 278 764 l 278 694 l 208 694 l 208 208 l 278 208 l 278 139 l 347 139 l 347 69 m 278 903 l 278 972 l 486 972 l 486 903 l 556 903 l 556 833 l 417 833 l 417 903 l 347 903 l 347 833 l 208 833 l 208 903 l 278 903 z "},"Ü":{"ha":833,"x_min":0,"x_max":764,"o":"m 347 69 l 417 69 l 417 139 l 486 139 l 486 208 l 556 208 l 556 694 l 486 694 l 486 764 l 764 764 l 764 694 l 694 694 l 694 208 l 625 208 l 625 69 l 486 69 l 486 0 l 278 0 l 278 69 l 139 69 l 139 208 l 69 208 l 69 694 l 0 694 l 0 764 l 278 764 l 278 694 l 208 694 l 208 208 l 278 208 l 278 139 l 347 139 l 347 69 m 139 903 l 347 903 l 347 833 l 139 833 l 139 903 m 625 833 l 417 833 l 417 903 l 625 903 l 625 833 z "},"Ý":{"ha":764,"x_min":0,"x_max":694,"o":"m 0 764 l 278 764 l 278 694 l 208 694 l 208 625 l 278 625 l 278 486 l 417 486 l 417 625 l 486 625 l 486 694 l 417 694 l 417 764 l 694 764 l 694 694 l 625 694 l 625 625 l 556 625 l 556 486 l 486 486 l 486 417 l 417 417 l 417 69 l 486 69 l 486 0 l 208 0 l 208 69 l 278 69 l 278 417 l 208 417 l 208 486 l 139 486 l 139 625 l 69 625 l 69 694 l 0 694 l 0 764 m 278 903 l 347 903 l 347 972 l 486 972 l 486 903 l 417 903 l 417 833 l 278 833 l 278 903 z "},"Þ":{"ha":694,"x_min":0,"x_max":625,"o":"m 0 0 l 0 69 l 69 69 l 69 694 l 0 694 l 0 764 l 278 764 l 278 694 l 208 694 l 208 625 l 486 625 l 486 556 l 556 556 l 556 486 l 625 486 l 625 278 l 556 278 l 556 208 l 486 208 l 486 139 l 208 139 l 208 69 l 278 69 l 278 0 l 0 0 m 486 278 l 486 486 l 417 486 l 417 556 l 208 556 l 208 208 l 417 208 l 417 278 l 486 278 z "},"ß":{"ha":694,"x_min":0,"x_max":625,"o":"m 0 0 l 0 69 l 69 69 l 69 625 l 139 625 l 139 694 l 208 694 l 208 764 l 486 764 l 486 694 l 556 694 l 556 625 l 625 625 l 625 486 l 556 486 l 556 417 l 486 417 l 486 347 l 556 347 l 556 278 l 625 278 l 625 139 l 556 139 l 556 69 l 486 69 l 486 0 l 278 0 l 278 69 l 417 69 l 417 139 l 486 139 l 486 278 l 417 278 l 417 347 l 278 347 l 278 417 l 417 417 l 417 486 l 486 486 l 486 625 l 417 625 l 417 694 l 278 694 l 278 625 l 208 625 l 208 0 l 0 0 z "},"à":{"ha":625,"x_min":0,"x_max":556,"o":"m 139 694 l 139 764 l 278 764 l 278 694 l 347 694 l 347 625 l 208 625 l 208 694 l 139 694 m 208 208 l 139 208 l 139 69 l 278 69 l 278 139 l 347 139 l 347 278 l 208 278 l 208 208 m 69 69 l 0 69 l 0 208 l 69 208 l 69 278 l 139 278 l 139 347 l 347 347 l 347 486 l 208 486 l 208 417 l 69 417 l 69 486 l 139 486 l 139 556 l 417 556 l 417 486 l 486 486 l 486 69 l 556 69 l 556 0 l 69 0 l 69 69 z "},"á":{"ha":625,"x_min":0,"x_max":556,"o":"m 208 208 l 139 208 l 139 69 l 278 69 l 278 139 l 347 139 l 347 278 l 208 278 l 208 208 m 69 69 l 0 69 l 0 208 l 69 208 l 69 278 l 139 278 l 139 347 l 347 347 l 347 486 l 208 486 l 208 417 l 69 417 l 69 486 l 139 486 l 139 556 l 417 556 l 417 486 l 486 486 l 486 69 l 556 69 l 556 0 l 69 0 l 69 69 m 278 764 l 417 764 l 417 694 l 347 694 l 347 625 l 208 625 l 208 694 l 278 694 l 278 764 z "},"â":{"ha":625,"x_min":0,"x_max":556,"o":"m 139 694 l 208 694 l 208 764 l 347 764 l 347 694 l 417 694 l 417 625 l 139 625 l 139 694 m 208 208 l 139 208 l 139 69 l 278 69 l 278 139 l 347 139 l 347 278 l 208 278 l 208 208 m 69 69 l 0 69 l 0 208 l 69 208 l 69 278 l 139 278 l 139 347 l 347 347 l 347 486 l 208 486 l 208 417 l 69 417 l 69 486 l 139 486 l 139 556 l 417 556 l 417 486 l 486 486 l 486 69 l 556 69 l 556 0 l 69 0 l 69 69 z "},"ã":{"ha":625,"x_min":0,"x_max":556,"o":"m 139 694 l 139 764 l 486 764 l 486 694 l 417 694 l 417 625 l 69 625 l 69 694 l 139 694 m 208 208 l 139 208 l 139 69 l 278 69 l 278 139 l 347 139 l 347 278 l 208 278 l 208 208 m 69 69 l 0 69 l 0 208 l 69 208 l 69 278 l 139 278 l 139 347 l 347 347 l 347 486 l 208 486 l 208 417 l 69 417 l 69 486 l 139 486 l 139 556 l 417 556 l 417 486 l 486 486 l 486 69 l 556 69 l 556 0 l 69 0 l 69 69 z "},"ä":{"ha":625,"x_min":0,"x_max":556,"o":"m 208 208 l 139 208 l 139 69 l 278 69 l 278 139 l 347 139 l 347 278 l 208 278 l 208 208 m 69 625 l 69 694 l 486 694 l 486 625 l 69 625 m 69 69 l 0 69 l 0 208 l 69 208 l 69 278 l 139 278 l 139 347 l 347 347 l 347 486 l 208 486 l 208 417 l 69 417 l 69 486 l 139 486 l 139 556 l 417 556 l 417 486 l 486 486 l 486 69 l 556 69 l 556 0 l 69 0 l 69 69 z "},"å":{"ha":625,"x_min":0,"x_max":556,"o":"m 139 694 l 69 694 l 69 764 l 139 764 l 139 833 l 417 833 l 417 764 l 486 764 l 486 694 l 417 694 l 417 625 l 139 625 l 139 694 m 208 208 l 139 208 l 139 69 l 278 69 l 278 139 l 347 139 l 347 278 l 208 278 l 208 208 m 69 69 l 0 69 l 0 208 l 69 208 l 69 278 l 139 278 l 139 347 l 347 347 l 347 486 l 208 486 l 208 417 l 69 417 l 69 486 l 139 486 l 139 556 l 417 556 l 417 486 l 486 486 l 486 69 l 556 69 l 556 0 l 69 0 l 69 69 m 347 764 l 208 764 l 208 694 l 347 694 l 347 764 z "},"æ":{"ha":972,"x_min":0,"x_max":903,"o":"m 764 0 l 486 0 l 486 69 l 347 69 l 347 0 l 69 0 l 69 69 l 0 69 l 0 208 l 69 208 l 69 278 l 139 278 l 139 347 l 347 347 l 347 486 l 208 486 l 208 417 l 69 417 l 69 486 l 139 486 l 139 556 l 417 556 l 417 486 l 486 486 l 486 556 l 764 556 l 764 486 l 833 486 l 833 417 l 903 417 l 903 278 l 486 278 l 486 139 l 556 139 l 556 69 l 694 69 l 694 139 l 833 139 l 833 69 l 764 69 l 764 0 m 694 486 l 556 486 l 556 417 l 486 417 l 486 347 l 764 347 l 764 417 l 694 417 l 694 486 m 278 69 l 278 139 l 347 139 l 347 278 l 208 278 l 208 208 l 139 208 l 139 69 l 278 69 z "},"ç":{"ha":625,"x_min":0,"x_max":556,"o":"m 347 69 l 347 139 l 417 139 l 417 208 l 556 208 l 556 139 l 486 139 l 486 69 l 417 69 l 417 0 l 347 0 l 347 -69 l 417 -69 l 417 -208 l 347 -208 l 347 -278 l 208 -278 l 208 -208 l 139 -208 l 139 -139 l 278 -139 l 278 -69 l 208 -69 l 208 0 l 139 0 l 139 69 l 69 69 l 69 139 l 0 139 l 0 417 l 69 417 l 69 486 l 139 486 l 139 556 l 556 556 l 556 347 l 417 347 l 417 417 l 347 417 l 347 486 l 208 486 l 208 417 l 139 417 l 139 139 l 208 139 l 208 69 l 347 69 z "},"è":{"ha":625,"x_min":0,"x_max":556,"o":"m 347 69 l 347 139 l 486 139 l 486 69 l 417 69 l 417 0 l 139 0 l 139 69 l 69 69 l 69 139 l 0 139 l 0 417 l 69 417 l 69 486 l 139 486 l 139 556 l 417 556 l 417 486 l 486 486 l 486 417 l 556 417 l 556 278 l 139 278 l 139 139 l 208 139 l 208 69 l 347 69 m 417 347 l 417 417 l 347 417 l 347 486 l 208 486 l 208 417 l 139 417 l 139 347 l 417 347 m 139 694 l 139 764 l 278 764 l 278 694 l 347 694 l 347 625 l 208 625 l 208 694 l 139 694 z "},"é":{"ha":625,"x_min":0,"x_max":556,"o":"m 347 69 l 347 139 l 486 139 l 486 69 l 417 69 l 417 0 l 139 0 l 139 69 l 69 69 l 69 139 l 0 139 l 0 417 l 69 417 l 69 486 l 139 486 l 139 556 l 417 556 l 417 486 l 486 486 l 486 417 l 556 417 l 556 278 l 139 278 l 139 139 l 208 139 l 208 69 l 347 69 m 417 347 l 417 417 l 347 417 l 347 486 l 208 486 l 208 417 l 139 417 l 139 347 l 417 347 m 278 764 l 417 764 l 417 694 l 347 694 l 347 625 l 208 625 l 208 694 l 278 694 l 278 764 z "},"ê":{"ha":625,"x_min":0,"x_max":556,"o":"m 347 69 l 347 139 l 486 139 l 486 69 l 417 69 l 417 0 l 139 0 l 139 69 l 69 69 l 69 139 l 0 139 l 0 417 l 69 417 l 69 486 l 139 486 l 139 556 l 417 556 l 417 486 l 486 486 l 486 417 l 556 417 l 556 278 l 139 278 l 139 139 l 208 139 l 208 69 l 347 69 m 417 347 l 417 417 l 347 417 l 347 486 l 208 486 l 208 417 l 139 417 l 139 347 l 417 347 m 139 694 l 208 694 l 208 764 l 347 764 l 347 694 l 417 694 l 417 625 l 139 625 l 139 694 z "},"ë":{"ha":625,"x_min":0,"x_max":556,"o":"m 347 69 l 347 139 l 486 139 l 486 69 l 417 69 l 417 0 l 139 0 l 139 69 l 69 69 l 69 139 l 0 139 l 0 417 l 69 417 l 69 486 l 139 486 l 139 556 l 417 556 l 417 486 l 486 486 l 486 417 l 556 417 l 556 278 l 139 278 l 139 139 l 208 139 l 208 69 l 347 69 m 417 347 l 417 417 l 347 417 l 347 486 l 208 486 l 208 417 l 139 417 l 139 347 l 417 347 m 69 625 l 69 694 l 486 694 l 486 625 l 69 625 z "},"ì":{"ha":347,"x_min":0,"x_max":278,"o":"m 0 0 l 0 69 l 69 69 l 69 486 l 0 486 l 0 556 l 208 556 l 208 69 l 278 69 l 278 0 l 0 0 m 0 764 l 0 833 l 139 833 l 139 764 l 208 764 l 208 694 l 69 694 l 69 764 l 0 764 z "},"í":{"ha":347,"x_min":0,"x_max":278,"o":"m 0 0 l 0 69 l 69 69 l 69 486 l 0 486 l 0 556 l 208 556 l 208 69 l 278 69 l 278 0 l 0 0 m 69 764 l 139 764 l 139 833 l 278 833 l 278 764 l 208 764 l 208 694 l 69 694 l 69 764 z "},"î":{"ha":347,"x_min":0,"x_max":278,"o":"m 69 833 l 208 833 l 208 764 l 278 764 l 278 694 l 0 694 l 0 764 l 69 764 l 69 833 m 0 0 l 0 69 l 69 69 l 69 486 l 0 486 l 0 556 l 208 556 l 208 69 l 278 69 l 278 0 l 0 0 z "},"ï":{"ha":347,"x_min":-69,"x_max":347,"o":"m 0 0 l 0 69 l 69 69 l 69 486 l 0 486 l 0 556 l 208 556 l 208 69 l 278 69 l 278 0 l 0 0 m 347 764 l 347 694 l -69 694 l -69 764 l 347 764 z "},"ð":{"ha":625,"x_min":0,"x_max":556,"o":"m 347 69 l 347 139 l 417 139 l 417 417 l 347 417 l 347 486 l 208 486 l 208 417 l 139 417 l 139 139 l 208 139 l 208 69 l 347 69 m 69 833 l 347 833 l 347 764 l 417 764 l 417 833 l 556 833 l 556 764 l 486 764 l 486 625 l 556 625 l 556 139 l 486 139 l 486 69 l 417 69 l 417 0 l 139 0 l 139 69 l 69 69 l 69 139 l 0 139 l 0 417 l 69 417 l 69 486 l 139 486 l 139 556 l 417 556 l 417 625 l 208 625 l 208 694 l 278 694 l 278 764 l 69 764 l 69 833 z "},"ñ":{"ha":694,"x_min":0,"x_max":625,"o":"m 347 69 l 417 69 l 417 417 l 347 417 l 347 486 l 278 486 l 278 417 l 208 417 l 208 69 l 278 69 l 278 0 l 0 0 l 0 69 l 69 69 l 69 486 l 0 486 l 0 556 l 417 556 l 417 486 l 486 486 l 486 417 l 556 417 l 556 69 l 625 69 l 625 0 l 347 0 l 347 69 m 139 694 l 139 764 l 347 764 l 347 694 l 417 694 l 417 764 l 556 764 l 556 694 l 486 694 l 486 625 l 278 625 l 278 694 l 208 694 l 208 625 l 69 625 l 69 694 l 139 694 z "},"ò":{"ha":625,"x_min":0,"x_max":556,"o":"m 347 69 l 347 139 l 417 139 l 417 417 l 347 417 l 347 486 l 208 486 l 208 417 l 139 417 l 139 139 l 208 139 l 208 69 l 347 69 m 486 139 l 486 69 l 417 69 l 417 0 l 139 0 l 139 69 l 69 69 l 69 139 l 0 139 l 0 417 l 69 417 l 69 486 l 139 486 l 139 556 l 417 556 l 417 486 l 486 486 l 486 417 l 556 417 l 556 139 l 486 139 m 139 694 l 139 764 l 278 764 l 278 694 l 347 694 l 347 625 l 208 625 l 208 694 l 139 694 z "},"ó":{"ha":625,"x_min":0,"x_max":556,"o":"m 347 69 l 347 139 l 417 139 l 417 417 l 347 417 l 347 486 l 208 486 l 208 417 l 139 417 l 139 139 l 208 139 l 208 69 l 347 69 m 486 139 l 486 69 l 417 69 l 417 0 l 139 0 l 139 69 l 69 69 l 69 139 l 0 139 l 0 417 l 69 417 l 69 486 l 139 486 l 139 556 l 417 556 l 417 486 l 486 486 l 486 417 l 556 417 l 556 139 l 486 139 m 278 764 l 417 764 l 417 694 l 347 694 l 347 625 l 208 625 l 208 694 l 278 694 l 278 764 z "},"ô":{"ha":625,"x_min":0,"x_max":556,"o":"m 347 69 l 347 139 l 417 139 l 417 417 l 347 417 l 347 486 l 208 486 l 208 417 l 139 417 l 139 139 l 208 139 l 208 69 l 347 69 m 486 139 l 486 69 l 417 69 l 417 0 l 139 0 l 139 69 l 69 69 l 69 139 l 0 139 l 0 417 l 69 417 l 69 486 l 139 486 l 139 556 l 417 556 l 417 486 l 486 486 l 486 417 l 556 417 l 556 139 l 486 139 m 139 694 l 208 694 l 208 764 l 347 764 l 347 694 l 417 694 l 417 625 l 139 625 l 139 694 z "},"õ":{"ha":625,"x_min":0,"x_max":556,"o":"m 347 69 l 347 139 l 417 139 l 417 417 l 347 417 l 347 486 l 208 486 l 208 417 l 139 417 l 139 139 l 208 139 l 208 69 l 347 69 m 486 139 l 486 69 l 417 69 l 417 0 l 139 0 l 139 69 l 69 69 l 69 139 l 0 139 l 0 417 l 69 417 l 69 486 l 139 486 l 139 556 l 417 556 l 417 486 l 486 486 l 486 417 l 556 417 l 556 139 l 486 139 m 139 694 l 139 764 l 486 764 l 486 694 l 417 694 l 417 625 l 69 625 l 69 694 l 139 694 z "},"ö":{"ha":625,"x_min":0,"x_max":556,"o":"m 347 69 l 347 139 l 417 139 l 417 417 l 347 417 l 347 486 l 208 486 l 208 417 l 139 417 l 139 139 l 208 139 l 208 69 l 347 69 m 486 139 l 486 69 l 417 69 l 417 0 l 139 0 l 139 69 l 69 69 l 69 139 l 0 139 l 0 417 l 69 417 l 69 486 l 139 486 l 139 556 l 417 556 l 417 486 l 486 486 l 486 417 l 556 417 l 556 139 l 486 139 m 69 625 l 69 694 l 486 694 l 486 625 l 69 625 z "},"÷":{"ha":625,"x_min":0,"x_max":556,"o":"m 347 69 l 208 69 l 208 208 l 347 208 l 347 69 m 0 278 l 0 347 l 556 347 l 556 278 l 0 278 m 347 417 l 208 417 l 208 556 l 347 556 l 347 417 z "},"ø":{"ha":625,"x_min":0,"x_max":556,"o":"m 347 69 l 347 139 l 417 139 l 417 347 l 347 347 l 347 208 l 278 208 l 278 139 l 208 139 l 208 69 l 347 69 m 0 0 l 0 69 l 69 69 l 69 139 l 0 139 l 0 417 l 69 417 l 69 486 l 139 486 l 139 556 l 556 556 l 556 486 l 486 486 l 486 417 l 556 417 l 556 139 l 486 139 l 486 69 l 417 69 l 417 0 l 0 0 m 208 208 l 208 347 l 278 347 l 278 417 l 347 417 l 347 486 l 208 486 l 208 417 l 139 417 l 139 208 l 208 208 z "},"ù":{"ha":694,"x_min":0,"x_max":625,"o":"m 347 69 l 347 139 l 417 139 l 417 486 l 347 486 l 347 556 l 556 556 l 556 69 l 625 69 l 625 0 l 208 0 l 208 69 l 139 69 l 139 139 l 69 139 l 69 486 l 0 486 l 0 556 l 208 556 l 208 139 l 278 139 l 278 69 l 347 69 m 139 694 l 139 764 l 278 764 l 278 694 l 347 694 l 347 625 l 208 625 l 208 694 l 139 694 z "},"ú":{"ha":694,"x_min":0,"x_max":625,"o":"m 347 69 l 347 139 l 417 139 l 417 486 l 347 486 l 347 556 l 556 556 l 556 69 l 625 69 l 625 0 l 208 0 l 208 69 l 139 69 l 139 139 l 69 139 l 69 486 l 0 486 l 0 556 l 208 556 l 208 139 l 278 139 l 278 69 l 347 69 m 278 764 l 417 764 l 417 694 l 347 694 l 347 625 l 208 625 l 208 694 l 278 694 l 278 764 z "},"û":{"ha":694,"x_min":0,"x_max":625,"o":"m 347 69 l 347 139 l 417 139 l 417 486 l 347 486 l 347 556 l 556 556 l 556 69 l 625 69 l 625 0 l 208 0 l 208 69 l 139 69 l 139 139 l 69 139 l 69 486 l 0 486 l 0 556 l 208 556 l 208 139 l 278 139 l 278 69 l 347 69 m 139 694 l 208 694 l 208 764 l 347 764 l 347 694 l 417 694 l 417 625 l 139 625 l 139 694 z "},"ü":{"ha":694,"x_min":0,"x_max":625,"o":"m 347 69 l 347 139 l 417 139 l 417 486 l 347 486 l 347 556 l 556 556 l 556 69 l 625 69 l 625 0 l 208 0 l 208 69 l 139 69 l 139 139 l 69 139 l 69 486 l 0 486 l 0 556 l 208 556 l 208 139 l 278 139 l 278 69 l 347 69 m 69 625 l 69 694 l 486 694 l 486 625 l 69 625 z "},"ý":{"ha":625,"x_min":0,"x_max":556,"o":"m 0 -278 l 0 -208 l 69 -208 l 69 -139 l 139 -139 l 139 0 l 208 0 l 208 139 l 139 139 l 139 347 l 69 347 l 69 486 l 0 486 l 0 556 l 556 556 l 556 486 l 486 486 l 486 347 l 417 347 l 417 139 l 347 139 l 347 0 l 278 0 l 278 -139 l 208 -139 l 208 -208 l 139 -208 l 139 -278 l 0 -278 m 208 347 l 347 347 l 347 486 l 208 486 l 208 347 m 278 764 l 417 764 l 417 694 l 347 694 l 347 625 l 208 625 l 208 694 l 278 694 l 278 764 z "},"þ":{"ha":694,"x_min":0,"x_max":625,"o":"m 0 -278 l 0 -208 l 69 -208 l 69 764 l 0 764 l 0 833 l 208 833 l 208 556 l 486 556 l 486 486 l 556 486 l 556 417 l 625 417 l 625 139 l 556 139 l 556 69 l 486 69 l 486 0 l 208 0 l 208 -208 l 278 -208 l 278 -278 l 0 -278 m 278 486 l 278 417 l 208 417 l 208 139 l 278 139 l 278 69 l 417 69 l 417 139 l 486 139 l 486 417 l 417 417 l 417 486 l 278 486 z "},"ÿ":{"ha":625,"x_min":0,"x_max":556,"o":"m 0 -278 l 0 -208 l 69 -208 l 69 -139 l 139 -139 l 139 0 l 208 0 l 208 139 l 139 139 l 139 347 l 69 347 l 69 486 l 0 486 l 0 556 l 556 556 l 556 486 l 486 486 l 486 347 l 417 347 l 417 139 l 347 139 l 347 0 l 278 0 l 278 -139 l 208 -139 l 208 -208 l 139 -208 l 139 -278 l 0 -278 m 69 625 l 69 694 l 486 694 l 486 625 l 69 625 m 208 347 l 347 347 l 347 486 l 208 486 l 208 347 z "},"Ā":{"ha":764,"x_min":0,"x_max":694,"o":"m 0 0 l 0 69 l 69 69 l 69 208 l 139 208 l 139 417 l 208 417 l 208 625 l 278 625 l 278 694 l 208 694 l 208 764 l 417 764 l 417 625 l 486 625 l 486 417 l 556 417 l 556 208 l 625 208 l 625 69 l 694 69 l 694 0 l 417 0 l 417 69 l 486 69 l 486 208 l 417 208 l 417 278 l 278 278 l 278 208 l 208 208 l 208 69 l 278 69 l 278 0 l 0 0 m 417 347 l 417 417 l 278 417 l 278 347 l 417 347 m 139 903 l 556 903 l 556 833 l 139 833 l 139 903 z "},"ā":{"ha":625,"x_min":0,"x_max":556,"o":"m 208 208 l 139 208 l 139 69 l 278 69 l 278 139 l 347 139 l 347 278 l 208 278 l 208 208 m 69 625 l 69 694 l 486 694 l 486 625 l 69 625 m 69 69 l 0 69 l 0 208 l 69 208 l 69 278 l 139 278 l 139 347 l 347 347 l 347 486 l 208 486 l 208 417 l 69 417 l 69 486 l 139 486 l 139 556 l 417 556 l 417 486 l 486 486 l 486 69 l 556 69 l 556 0 l 69 0 l 69 69 z "},"Ă":{"ha":764,"x_min":0,"x_max":694,"o":"m 0 0 l 0 69 l 69 69 l 69 208 l 139 208 l 139 417 l 208 417 l 208 625 l 278 625 l 278 694 l 208 694 l 208 764 l 417 764 l 417 625 l 486 625 l 486 417 l 556 417 l 556 208 l 625 208 l 625 69 l 694 69 l 694 0 l 417 0 l 417 69 l 486 69 l 486 208 l 417 208 l 417 278 l 278 278 l 278 208 l 208 208 l 208 69 l 278 69 l 278 0 l 0 0 m 417 417 l 278 417 l 278 347 l 417 347 l 417 417 m 278 903 l 417 903 l 417 972 l 556 972 l 556 903 l 486 903 l 486 833 l 208 833 l 208 903 l 139 903 l 139 972 l 278 972 l 278 903 z "},"ă":{"ha":625,"x_min":0,"x_max":556,"o":"m 139 694 l 69 694 l 69 764 l 208 764 l 208 694 l 347 694 l 347 764 l 486 764 l 486 694 l 417 694 l 417 625 l 139 625 l 139 694 m 208 208 l 139 208 l 139 69 l 278 69 l 278 139 l 347 139 l 347 278 l 208 278 l 208 208 m 69 69 l 0 69 l 0 208 l 69 208 l 69 278 l 139 278 l 139 347 l 347 347 l 347 486 l 208 486 l 208 417 l 69 417 l 69 486 l 139 486 l 139 556 l 417 556 l 417 486 l 486 486 l 486 69 l 556 69 l 556 0 l 69 0 l 69 69 z "},"Ą":{"ha":764,"x_min":0,"x_max":694,"o":"m 0 0 l 0 69 l 69 69 l 69 208 l 139 208 l 139 417 l 208 417 l 208 625 l 278 625 l 278 694 l 208 694 l 208 764 l 417 764 l 417 625 l 486 625 l 486 417 l 556 417 l 556 208 l 625 208 l 625 69 l 694 69 l 694 0 l 417 0 l 417 69 l 486 69 l 486 208 l 417 208 l 417 278 l 278 278 l 278 208 l 208 208 l 208 69 l 278 69 l 278 0 l 0 0 m 417 417 l 278 417 l 278 347 l 417 347 l 417 417 m 417 -208 l 417 -278 l 278 -278 l 278 -208 l 208 -208 l 208 -69 l 278 -69 l 278 0 l 417 0 l 417 -69 l 347 -69 l 347 -139 l 486 -139 l 486 -208 l 417 -208 z "},"ą":{"ha":625,"x_min":0,"x_max":556,"o":"m 69 -69 l 139 -69 l 139 0 l 69 0 l 69 69 l 0 69 l 0 208 l 69 208 l 69 278 l 139 278 l 139 347 l 347 347 l 347 486 l 208 486 l 208 417 l 69 417 l 69 486 l 139 486 l 139 556 l 417 556 l 417 486 l 486 486 l 486 69 l 556 69 l 556 0 l 278 0 l 278 -69 l 208 -69 l 208 -139 l 347 -139 l 347 -208 l 278 -208 l 278 -278 l 139 -278 l 139 -208 l 69 -208 l 69 -69 m 208 208 l 139 208 l 139 69 l 278 69 l 278 139 l 347 139 l 347 278 l 208 278 l 208 208 z "},"Ć":{"ha":694,"x_min":0,"x_max":625,"o":"m 486 139 l 486 208 l 625 208 l 625 69 l 486 69 l 486 0 l 208 0 l 208 69 l 69 69 l 69 208 l 0 208 l 0 556 l 69 556 l 69 694 l 208 694 l 208 764 l 625 764 l 625 556 l 486 556 l 486 625 l 417 625 l 417 694 l 278 694 l 278 625 l 208 625 l 208 556 l 139 556 l 139 208 l 208 208 l 208 139 l 278 139 l 278 69 l 417 69 l 417 139 l 486 139 m 278 903 l 347 903 l 347 972 l 486 972 l 486 903 l 417 903 l 417 833 l 278 833 l 278 903 z "},"ć":{"ha":625,"x_min":0,"x_max":556,"o":"m 347 69 l 347 139 l 417 139 l 417 208 l 556 208 l 556 139 l 486 139 l 486 69 l 417 69 l 417 0 l 139 0 l 139 69 l 69 69 l 69 139 l 0 139 l 0 417 l 69 417 l 69 486 l 139 486 l 139 556 l 556 556 l 556 347 l 417 347 l 417 417 l 347 417 l 347 486 l 208 486 l 208 417 l 139 417 l 139 139 l 208 139 l 208 69 l 347 69 m 278 764 l 417 764 l 417 694 l 347 694 l 347 625 l 208 625 l 208 694 l 278 694 l 278 764 z "},"Ĉ":{"ha":694,"x_min":0,"x_max":625,"o":"m 486 139 l 486 208 l 625 208 l 625 69 l 486 69 l 486 0 l 208 0 l 208 69 l 69 69 l 69 208 l 0 208 l 0 556 l 69 556 l 69 694 l 208 694 l 208 764 l 625 764 l 625 556 l 486 556 l 486 625 l 417 625 l 417 694 l 278 694 l 278 625 l 208 625 l 208 556 l 139 556 l 139 208 l 208 208 l 208 139 l 278 139 l 278 69 l 417 69 l 417 139 l 486 139 m 278 903 l 278 972 l 417 972 l 417 903 l 486 903 l 486 833 l 208 833 l 208 903 l 278 903 z "},"ĉ":{"ha":625,"x_min":0,"x_max":556,"o":"m 347 69 l 347 139 l 417 139 l 417 208 l 556 208 l 556 139 l 486 139 l 486 69 l 417 69 l 417 0 l 139 0 l 139 69 l 69 69 l 69 139 l 0 139 l 0 417 l 69 417 l 69 486 l 139 486 l 139 556 l 556 556 l 556 347 l 417 347 l 417 417 l 347 417 l 347 486 l 208 486 l 208 417 l 139 417 l 139 139 l 208 139 l 208 69 l 347 69 m 139 694 l 208 694 l 208 764 l 347 764 l 347 694 l 417 694 l 417 625 l 139 625 l 139 694 z "},"Ċ":{"ha":694,"x_min":0,"x_max":625,"o":"m 486 139 l 486 208 l 625 208 l 625 69 l 486 69 l 486 0 l 208 0 l 208 69 l 69 69 l 69 208 l 0 208 l 0 556 l 69 556 l 69 694 l 208 694 l 208 764 l 625 764 l 625 556 l 486 556 l 486 625 l 417 625 l 417 694 l 278 694 l 278 625 l 208 625 l 208 556 l 139 556 l 139 208 l 208 208 l 208 139 l 278 139 l 278 69 l 417 69 l 417 139 l 486 139 m 417 833 l 208 833 l 208 903 l 417 903 l 417 833 z "},"ċ":{"ha":625,"x_min":0,"x_max":556,"o":"m 347 69 l 347 139 l 417 139 l 417 208 l 556 208 l 556 139 l 486 139 l 486 69 l 417 69 l 417 0 l 139 0 l 139 69 l 69 69 l 69 139 l 0 139 l 0 417 l 69 417 l 69 486 l 139 486 l 139 556 l 556 556 l 556 347 l 417 347 l 417 417 l 347 417 l 347 486 l 208 486 l 208 417 l 139 417 l 139 139 l 208 139 l 208 69 l 347 69 m 139 694 l 347 694 l 347 625 l 139 625 l 139 694 z "},"Č":{"ha":694,"x_min":0,"x_max":625,"o":"m 486 139 l 486 208 l 625 208 l 625 69 l 486 69 l 486 0 l 208 0 l 208 69 l 69 69 l 69 208 l 0 208 l 0 556 l 69 556 l 69 694 l 208 694 l 208 764 l 625 764 l 625 556 l 486 556 l 486 625 l 417 625 l 417 694 l 278 694 l 278 625 l 208 625 l 208 556 l 139 556 l 139 208 l 208 208 l 208 139 l 278 139 l 278 69 l 417 69 l 417 139 l 486 139 m 278 903 l 208 903 l 208 972 l 486 972 l 486 903 l 417 903 l 417 833 l 278 833 l 278 903 z "},"č":{"ha":625,"x_min":0,"x_max":556,"o":"m 347 69 l 347 139 l 417 139 l 417 208 l 556 208 l 556 139 l 486 139 l 486 69 l 417 69 l 417 0 l 139 0 l 139 69 l 69 69 l 69 139 l 0 139 l 0 417 l 69 417 l 69 486 l 139 486 l 139 556 l 556 556 l 556 347 l 417 347 l 417 417 l 347 417 l 347 486 l 208 486 l 208 417 l 139 417 l 139 139 l 208 139 l 208 69 l 347 69 m 139 694 l 139 764 l 417 764 l 417 694 l 347 694 l 347 625 l 208 625 l 208 694 l 139 694 z "},"Ď":{"ha":694,"x_min":0,"x_max":625,"o":"m 0 0 l 0 69 l 69 69 l 69 694 l 0 694 l 0 764 l 417 764 l 417 694 l 556 694 l 556 556 l 625 556 l 625 208 l 556 208 l 556 69 l 417 69 l 417 0 l 0 0 m 347 69 l 347 139 l 417 139 l 417 208 l 486 208 l 486 556 l 417 556 l 417 625 l 347 625 l 347 694 l 208 694 l 208 69 l 347 69 m 139 903 l 139 972 l 417 972 l 417 903 l 347 903 l 347 833 l 208 833 l 208 903 l 139 903 z "},"ď":{"ha":694,"x_min":0,"x_max":764,"o":"m 347 69 l 347 139 l 417 139 l 417 417 l 347 417 l 347 486 l 208 486 l 208 417 l 139 417 l 139 139 l 208 139 l 208 69 l 347 69 m 556 556 l 556 69 l 625 69 l 625 0 l 139 0 l 139 69 l 69 69 l 69 139 l 0 139 l 0 417 l 69 417 l 69 486 l 139 486 l 139 556 l 417 556 l 417 764 l 347 764 l 347 833 l 764 833 l 764 625 l 694 625 l 694 556 l 556 556 m 556 694 l 556 625 l 625 625 l 625 694 l 556 694 z "},"Đ":{"ha":694,"x_min":0,"x_max":625,"o":"m 347 69 l 347 139 l 417 139 l 417 208 l 486 208 l 486 556 l 417 556 l 417 625 l 347 625 l 347 694 l 208 694 l 208 417 l 278 417 l 278 347 l 208 347 l 208 69 l 347 69 m 0 0 l 0 69 l 69 69 l 69 347 l 0 347 l 0 417 l 69 417 l 69 694 l 0 694 l 0 764 l 417 764 l 417 694 l 556 694 l 556 556 l 625 556 l 625 208 l 556 208 l 556 69 l 417 69 l 417 0 l 0 0 z "},"đ":{"ha":694,"x_min":0,"x_max":625,"o":"m 347 69 l 347 139 l 417 139 l 417 417 l 347 417 l 347 486 l 208 486 l 208 417 l 139 417 l 139 139 l 208 139 l 208 69 l 347 69 m 139 0 l 139 69 l 69 69 l 69 139 l 0 139 l 0 417 l 69 417 l 69 486 l 139 486 l 139 556 l 417 556 l 417 625 l 347 625 l 347 694 l 417 694 l 417 764 l 347 764 l 347 833 l 556 833 l 556 694 l 625 694 l 625 625 l 556 625 l 556 69 l 625 69 l 625 0 l 139 0 z "},"Ē":{"ha":694,"x_min":0,"x_max":625,"o":"m 0 0 l 0 69 l 69 69 l 69 694 l 0 694 l 0 764 l 625 764 l 625 625 l 486 625 l 486 694 l 208 694 l 208 417 l 347 417 l 347 486 l 486 486 l 486 278 l 347 278 l 347 347 l 208 347 l 208 69 l 486 69 l 486 139 l 625 139 l 625 0 l 0 0 m 139 903 l 486 903 l 486 833 l 139 833 l 139 903 z "},"ē":{"ha":625,"x_min":0,"x_max":556,"o":"m 347 69 l 347 139 l 486 139 l 486 69 l 417 69 l 417 0 l 139 0 l 139 69 l 69 69 l 69 139 l 0 139 l 0 417 l 69 417 l 69 486 l 139 486 l 139 556 l 417 556 l 417 486 l 486 486 l 486 417 l 556 417 l 556 278 l 139 278 l 139 139 l 208 139 l 208 69 l 347 69 m 417 347 l 417 417 l 347 417 l 347 486 l 208 486 l 208 417 l 139 417 l 139 347 l 417 347 m 69 625 l 69 694 l 486 694 l 486 625 l 69 625 z "},"Ĕ":{"ha":694,"x_min":0,"x_max":625,"o":"m 69 972 l 208 972 l 208 903 l 417 903 l 417 972 l 556 972 l 556 903 l 486 903 l 486 833 l 139 833 l 139 903 l 69 903 l 69 972 m 0 0 l 0 69 l 69 69 l 69 694 l 0 694 l 0 764 l 625 764 l 625 625 l 486 625 l 486 694 l 208 694 l 208 417 l 347 417 l 347 486 l 486 486 l 486 278 l 347 278 l 347 347 l 208 347 l 208 69 l 486 69 l 486 139 l 625 139 l 625 0 l 0 0 z "},"ĕ":{"ha":625,"x_min":0,"x_max":556,"o":"m 347 69 l 347 139 l 486 139 l 486 69 l 417 69 l 417 0 l 139 0 l 139 69 l 69 69 l 69 139 l 0 139 l 0 417 l 69 417 l 69 486 l 139 486 l 139 556 l 417 556 l 417 486 l 486 486 l 486 417 l 556 417 l 556 278 l 139 278 l 139 139 l 208 139 l 208 69 l 347 69 m 417 347 l 417 417 l 347 417 l 347 486 l 208 486 l 208 417 l 139 417 l 139 347 l 417 347 m 139 694 l 69 694 l 69 764 l 208 764 l 208 694 l 347 694 l 347 764 l 486 764 l 486 694 l 417 694 l 417 625 l 139 625 l 139 694 z "},"Ė":{"ha":694,"x_min":0,"x_max":625,"o":"m 0 0 l 0 69 l 69 69 l 69 694 l 0 694 l 0 764 l 625 764 l 625 625 l 486 625 l 486 694 l 208 694 l 208 417 l 347 417 l 347 486 l 486 486 l 486 278 l 347 278 l 347 347 l 208 347 l 208 69 l 486 69 l 486 139 l 625 139 l 625 0 l 0 0 m 417 833 l 208 833 l 208 903 l 417 903 l 417 833 z "},"ė":{"ha":625,"x_min":0,"x_max":556,"o":"m 347 69 l 347 139 l 486 139 l 486 69 l 417 69 l 417 0 l 139 0 l 139 69 l 69 69 l 69 139 l 0 139 l 0 417 l 69 417 l 69 486 l 139 486 l 139 556 l 417 556 l 417 486 l 486 486 l 486 417 l 556 417 l 556 278 l 139 278 l 139 139 l 208 139 l 208 69 l 347 69 m 417 347 l 417 417 l 347 417 l 347 486 l 208 486 l 208 417 l 139 417 l 139 347 l 417 347 m 139 694 l 347 694 l 347 625 l 139 625 l 139 694 z "},"Ę":{"ha":694,"x_min":0,"x_max":625,"o":"m 0 0 l 0 69 l 69 69 l 69 694 l 0 694 l 0 764 l 625 764 l 625 625 l 486 625 l 486 694 l 208 694 l 208 417 l 347 417 l 347 486 l 486 486 l 486 278 l 347 278 l 347 347 l 208 347 l 208 69 l 486 69 l 486 139 l 625 139 l 625 0 l 417 0 l 417 -69 l 347 -69 l 347 -139 l 486 -139 l 486 -208 l 417 -208 l 417 -278 l 278 -278 l 278 -208 l 208 -208 l 208 -69 l 278 -69 l 278 0 l 0 0 z "},"ę":{"ha":625,"x_min":0,"x_max":556,"o":"m 347 69 l 347 139 l 486 139 l 486 69 l 417 69 l 417 0 l 347 0 l 347 -69 l 278 -69 l 278 -139 l 417 -139 l 417 -208 l 347 -208 l 347 -278 l 208 -278 l 208 -208 l 139 -208 l 139 -69 l 208 -69 l 208 0 l 139 0 l 139 69 l 69 69 l 69 139 l 0 139 l 0 417 l 69 417 l 69 486 l 139 486 l 139 556 l 417 556 l 417 486 l 486 486 l 486 417 l 556 417 l 556 278 l 139 278 l 139 139 l 208 139 l 208 69 l 347 69 m 417 347 l 417 417 l 347 417 l 347 486 l 208 486 l 208 417 l 139 417 l 139 347 l 417 347 z "},"Ě":{"ha":694,"x_min":0,"x_max":625,"o":"m 0 0 l 0 69 l 69 69 l 69 694 l 0 694 l 0 764 l 625 764 l 625 625 l 486 625 l 486 694 l 208 694 l 208 417 l 347 417 l 347 486 l 486 486 l 486 278 l 347 278 l 347 347 l 208 347 l 208 69 l 486 69 l 486 139 l 625 139 l 625 0 l 0 0 m 139 903 l 139 972 l 278 972 l 278 903 l 347 903 l 347 972 l 486 972 l 486 903 l 417 903 l 417 833 l 208 833 l 208 903 l 139 903 z "},"ě":{"ha":625,"x_min":0,"x_max":556,"o":"m 347 69 l 347 139 l 486 139 l 486 69 l 417 69 l 417 0 l 139 0 l 139 69 l 69 69 l 69 139 l 0 139 l 0 417 l 69 417 l 69 486 l 139 486 l 139 556 l 417 556 l 417 486 l 486 486 l 486 417 l 556 417 l 556 278 l 139 278 l 139 139 l 208 139 l 208 69 l 347 69 m 417 347 l 417 417 l 347 417 l 347 486 l 208 486 l 208 417 l 139 417 l 139 347 l 417 347 m 139 694 l 139 764 l 417 764 l 417 694 l 347 694 l 347 625 l 208 625 l 208 694 l 139 694 z "},"Ĝ":{"ha":694,"x_min":0,"x_max":625,"o":"m 486 139 l 486 347 l 347 347 l 347 417 l 625 417 l 625 0 l 208 0 l 208 69 l 69 69 l 69 208 l 0 208 l 0 556 l 69 556 l 69 694 l 208 694 l 208 764 l 625 764 l 625 556 l 486 556 l 486 625 l 417 625 l 417 694 l 278 694 l 278 625 l 208 625 l 208 556 l 139 556 l 139 208 l 208 208 l 208 139 l 278 139 l 278 69 l 417 69 l 417 139 l 486 139 m 278 903 l 278 972 l 417 972 l 417 903 l 486 903 l 486 833 l 208 833 l 208 903 l 278 903 z "},"ĝ":{"ha":694,"x_min":0,"x_max":625,"o":"m 347 69 l 347 139 l 417 139 l 417 417 l 347 417 l 347 486 l 208 486 l 208 417 l 139 417 l 139 139 l 208 139 l 208 69 l 347 69 m 486 -139 l 486 -208 l 417 -208 l 417 -278 l 139 -278 l 139 -208 l 347 -208 l 347 -139 l 417 -139 l 417 0 l 139 0 l 139 69 l 69 69 l 69 139 l 0 139 l 0 417 l 69 417 l 69 486 l 139 486 l 139 556 l 625 556 l 625 486 l 556 486 l 556 -139 l 486 -139 m 139 694 l 208 694 l 208 764 l 347 764 l 347 694 l 417 694 l 417 625 l 139 625 l 139 694 z "},"Ğ":{"ha":694,"x_min":0,"x_max":625,"o":"m 486 139 l 486 347 l 347 347 l 347 417 l 625 417 l 625 0 l 208 0 l 208 69 l 69 69 l 69 208 l 0 208 l 0 556 l 69 556 l 69 694 l 208 694 l 208 764 l 625 764 l 625 556 l 486 556 l 486 625 l 417 625 l 417 694 l 278 694 l 278 625 l 208 625 l 208 556 l 139 556 l 139 208 l 208 208 l 208 139 l 278 139 l 278 69 l 417 69 l 417 139 l 486 139 m 139 903 l 139 972 l 278 972 l 278 903 l 417 903 l 417 972 l 556 972 l 556 903 l 486 903 l 486 833 l 208 833 l 208 903 l 139 903 z "},"ğ":{"ha":694,"x_min":0,"x_max":625,"o":"m 347 69 l 347 139 l 417 139 l 417 417 l 347 417 l 347 486 l 208 486 l 208 417 l 139 417 l 139 139 l 208 139 l 208 69 l 347 69 m 486 -139 l 486 -208 l 417 -208 l 417 -278 l 139 -278 l 139 -208 l 347 -208 l 347 -139 l 417 -139 l 417 0 l 139 0 l 139 69 l 69 69 l 69 139 l 0 139 l 0 417 l 69 417 l 69 486 l 139 486 l 139 556 l 625 556 l 625 486 l 556 486 l 556 -139 l 486 -139 m 139 694 l 69 694 l 69 764 l 208 764 l 208 694 l 347 694 l 347 764 l 486 764 l 486 694 l 417 694 l 417 625 l 139 625 l 139 694 z "},"Ġ":{"ha":694,"x_min":0,"x_max":625,"o":"m 486 139 l 486 347 l 347 347 l 347 417 l 625 417 l 625 0 l 208 0 l 208 69 l 69 69 l 69 208 l 0 208 l 0 556 l 69 556 l 69 694 l 208 694 l 208 764 l 625 764 l 625 556 l 486 556 l 486 625 l 417 625 l 417 694 l 278 694 l 278 625 l 208 625 l 208 556 l 139 556 l 139 208 l 208 208 l 208 139 l 278 139 l 278 69 l 417 69 l 417 139 l 486 139 m 417 833 l 208 833 l 208 903 l 417 903 l 417 833 z "},"ġ":{"ha":694,"x_min":0,"x_max":625,"o":"m 347 69 l 347 139 l 417 139 l 417 417 l 347 417 l 347 486 l 208 486 l 208 417 l 139 417 l 139 139 l 208 139 l 208 69 l 347 69 m 486 -139 l 486 -208 l 417 -208 l 417 -278 l 139 -278 l 139 -208 l 347 -208 l 347 -139 l 417 -139 l 417 0 l 139 0 l 139 69 l 69 69 l 69 139 l 0 139 l 0 417 l 69 417 l 69 486 l 139 486 l 139 556 l 625 556 l 625 486 l 556 486 l 556 -139 l 486 -139 m 139 694 l 347 694 l 347 625 l 139 625 l 139 694 z "},"Ģ":{"ha":694,"x_min":0,"x_max":625,"o":"m 486 139 l 486 347 l 347 347 l 347 417 l 625 417 l 625 0 l 208 0 l 208 69 l 69 69 l 69 208 l 0 208 l 0 556 l 69 556 l 69 694 l 208 694 l 208 764 l 625 764 l 625 556 l 486 556 l 486 625 l 417 625 l 417 694 l 278 694 l 278 625 l 208 625 l 208 556 l 139 556 l 139 208 l 208 208 l 208 139 l 278 139 l 278 69 l 417 69 l 417 139 l 486 139 m 417 -208 l 347 -208 l 347 -278 l 208 -278 l 208 -208 l 278 -208 l 278 -69 l 417 -69 l 417 -208 z "},"ģ":{"ha":694,"x_min":0,"x_max":625,"o":"m 347 69 l 347 139 l 417 139 l 417 417 l 347 417 l 347 486 l 208 486 l 208 417 l 139 417 l 139 139 l 208 139 l 208 69 l 347 69 m 486 -139 l 486 -208 l 417 -208 l 417 -278 l 139 -278 l 139 -208 l 347 -208 l 347 -139 l 417 -139 l 417 0 l 139 0 l 139 69 l 69 69 l 69 139 l 0 139 l 0 417 l 69 417 l 69 486 l 139 486 l 139 556 l 625 556 l 625 486 l 556 486 l 556 -139 l 486 -139 m 278 764 l 278 833 l 417 833 l 417 764 l 347 764 l 347 625 l 208 625 l 208 764 l 278 764 z "},"Ĥ":{"ha":764,"x_min":0,"x_max":694,"o":"m 0 0 l 0 69 l 69 69 l 69 694 l 0 694 l 0 764 l 278 764 l 278 694 l 208 694 l 208 417 l 486 417 l 486 694 l 417 694 l 417 764 l 694 764 l 694 694 l 625 694 l 625 69 l 694 69 l 694 0 l 417 0 l 417 69 l 486 69 l 486 347 l 208 347 l 208 69 l 278 69 l 278 0 l 0 0 m 278 903 l 208 903 l 208 972 l 486 972 l 486 903 l 417 903 l 417 833 l 278 833 l 278 903 z "},"ĥ":{"ha":694,"x_min":0,"x_max":625,"o":"m 347 69 l 417 69 l 417 417 l 347 417 l 347 486 l 278 486 l 278 417 l 208 417 l 208 69 l 278 69 l 278 0 l 0 0 l 0 69 l 69 69 l 69 764 l 0 764 l 0 833 l 208 833 l 208 556 l 417 556 l 417 486 l 486 486 l 486 417 l 556 417 l 556 69 l 625 69 l 625 0 l 347 0 l 347 69 m 139 903 l 139 972 l 417 972 l 417 903 l 347 903 l 347 833 l 208 833 l 208 903 l 139 903 z "},"Ħ":{"ha":764,"x_min":0,"x_max":694,"o":"m 0 0 l 0 69 l 69 69 l 69 556 l 0 556 l 0 625 l 69 625 l 69 694 l 0 694 l 0 764 l 278 764 l 278 694 l 208 694 l 208 625 l 486 625 l 486 694 l 417 694 l 417 764 l 694 764 l 694 694 l 625 694 l 625 625 l 694 625 l 694 556 l 625 556 l 625 69 l 694 69 l 694 0 l 417 0 l 417 69 l 486 69 l 486 347 l 208 347 l 208 69 l 278 69 l 278 0 l 0 0 m 486 556 l 208 556 l 208 417 l 486 417 l 486 556 z "},"ħ":{"ha":694,"x_min":0,"x_max":625,"o":"m 347 69 l 417 69 l 417 417 l 347 417 l 347 486 l 278 486 l 278 417 l 208 417 l 208 69 l 278 69 l 278 0 l 0 0 l 0 69 l 69 69 l 69 625 l 0 625 l 0 694 l 69 694 l 69 764 l 0 764 l 0 833 l 208 833 l 208 694 l 278 694 l 278 625 l 208 625 l 208 556 l 417 556 l 417 486 l 486 486 l 486 417 l 556 417 l 556 69 l 625 69 l 625 0 l 347 0 l 347 69 z "},"Ĩ":{"ha":347,"x_min":-69,"x_max":347,"o":"m 0 0 l 0 69 l 69 69 l 69 694 l 0 694 l 0 764 l 278 764 l 278 694 l 208 694 l 208 69 l 278 69 l 278 0 l 0 0 m 0 972 l 347 972 l 347 903 l 278 903 l 278 833 l -69 833 l -69 903 l 0 903 l 0 972 z "},"ĩ":{"ha":347,"x_min":-69,"x_max":347,"o":"m 0 0 l 0 69 l 69 69 l 69 486 l 0 486 l 0 556 l 208 556 l 208 69 l 278 69 l 278 0 l 0 0 m 0 764 l 0 833 l 347 833 l 347 764 l 278 764 l 278 694 l -69 694 l -69 764 l 0 764 z "},"Ī":{"ha":347,"x_min":-69,"x_max":347,"o":"m 0 0 l 0 69 l 69 69 l 69 694 l 0 694 l 0 764 l 278 764 l 278 694 l 208 694 l 208 69 l 278 69 l 278 0 l 0 0 m 347 833 l -69 833 l -69 903 l 347 903 l 347 833 z "},"ī":{"ha":347,"x_min":-69,"x_max":347,"o":"m 0 0 l 0 69 l 69 69 l 69 486 l 0 486 l 0 556 l 208 556 l 208 69 l 278 69 l 278 0 l 0 0 m 347 764 l 347 694 l -69 694 l -69 764 l 347 764 z "},"Ĭ":{"ha":347,"x_min":-69,"x_max":347,"o":"m 0 0 l 0 69 l 69 69 l 69 694 l 0 694 l 0 764 l 278 764 l 278 694 l 208 694 l 208 69 l 278 69 l 278 0 l 0 0 m 69 972 l 69 903 l 208 903 l 208 972 l 347 972 l 347 903 l 278 903 l 278 833 l 0 833 l 0 903 l -69 903 l -69 972 l 69 972 z "},"ĭ":{"ha":347,"x_min":-69,"x_max":347,"o":"m 69 833 l 69 764 l 208 764 l 208 833 l 347 833 l 347 764 l 278 764 l 278 694 l 0 694 l 0 764 l -69 764 l -69 833 l 69 833 m 0 0 l 0 69 l 69 69 l 69 486 l 0 486 l 0 556 l 208 556 l 208 69 l 278 69 l 278 0 l 0 0 z "},"Į":{"ha":347,"x_min":0,"x_max":278,"o":"m 0 0 l 0 69 l 69 69 l 69 694 l 0 694 l 0 764 l 278 764 l 278 694 l 208 694 l 208 69 l 278 69 l 278 0 l 208 0 l 208 -69 l 139 -69 l 139 -139 l 278 -139 l 278 -208 l 208 -208 l 208 -278 l 69 -278 l 69 -208 l 0 -208 l 0 -69 l 69 -69 l 69 0 l 0 0 z "},"į":{"ha":347,"x_min":0,"x_max":278,"o":"m 69 833 l 208 833 l 208 694 l 69 694 l 69 833 m 0 0 l 0 69 l 69 69 l 69 486 l 0 486 l 0 556 l 208 556 l 208 69 l 278 69 l 278 0 l 208 0 l 208 -69 l 139 -69 l 139 -139 l 278 -139 l 278 -208 l 208 -208 l 208 -278 l 69 -278 l 69 -208 l 0 -208 l 0 -69 l 69 -69 l 69 0 l 0 0 z "},"İ":{"ha":347,"x_min":0,"x_max":278,"o":"m 0 0 l 0 69 l 69 69 l 69 694 l 0 694 l 0 764 l 278 764 l 278 694 l 208 694 l 208 69 l 278 69 l 278 0 l 0 0 m 0 833 l 0 903 l 208 903 l 208 833 l 0 833 z "},"ı":{"ha":347,"x_min":0,"x_max":278,"o":"m 0 0 l 0 69 l 69 69 l 69 486 l 0 486 l 0 556 l 208 556 l 208 69 l 278 69 l 278 0 l 0 0 z "},"Ĳ":{"ha":764,"x_min":0,"x_max":694,"o":"m 0 0 l 0 69 l 69 69 l 69 694 l 0 694 l 0 764 l 278 764 l 278 694 l 208 694 l 208 69 l 417 69 l 417 139 l 486 139 l 486 694 l 417 694 l 417 764 l 694 764 l 694 694 l 625 694 l 625 139 l 556 139 l 556 69 l 486 69 l 486 0 l 0 0 z "},"ĳ":{"ha":556,"x_min":0,"x_max":486,"o":"m 69 833 l 208 833 l 208 694 l 69 694 l 69 833 m 0 0 l 0 69 l 69 69 l 69 486 l 0 486 l 0 556 l 208 556 l 208 69 l 278 69 l 278 0 l 0 0 m 486 -139 l 417 -139 l 417 -208 l 347 -208 l 347 -278 l 139 -278 l 139 -208 l 278 -208 l 278 -139 l 347 -139 l 347 486 l 278 486 l 278 556 l 486 556 l 486 -139 m 347 833 l 486 833 l 486 694 l 347 694 l 347 833 z "},"Ĵ":{"ha":694,"x_min":0,"x_max":625,"o":"m 347 69 l 347 0 l 139 0 l 139 69 l 0 69 l 0 208 l 139 208 l 139 139 l 208 139 l 208 69 l 278 69 l 278 139 l 347 139 l 347 208 l 417 208 l 417 694 l 347 694 l 347 764 l 625 764 l 625 694 l 556 694 l 556 208 l 486 208 l 486 69 l 347 69 m 347 833 l 347 903 l 417 903 l 417 972 l 556 972 l 556 903 l 625 903 l 625 833 l 347 833 z "},"ĵ":{"ha":278,"x_min":-139,"x_max":278,"o":"m 69 833 l 208 833 l 208 764 l 278 764 l 278 694 l 0 694 l 0 764 l 69 764 l 69 833 m 69 -278 l -139 -278 l -139 -208 l 0 -208 l 0 -139 l 69 -139 l 69 486 l 0 486 l 0 556 l 208 556 l 208 -139 l 139 -139 l 139 -208 l 69 -208 l 69 -278 z "},"Ķ":{"ha":694,"x_min":0,"x_max":625,"o":"m 0 0 l 0 69 l 69 69 l 69 694 l 0 694 l 0 764 l 278 764 l 278 694 l 208 694 l 208 486 l 278 486 l 278 556 l 347 556 l 347 625 l 417 625 l 417 694 l 347 694 l 347 764 l 625 764 l 625 694 l 556 694 l 556 625 l 486 625 l 486 556 l 417 556 l 417 486 l 347 486 l 347 417 l 417 417 l 417 347 l 486 347 l 486 208 l 556 208 l 556 69 l 625 69 l 625 0 l 347 0 l 347 69 l 417 69 l 417 208 l 347 208 l 347 347 l 208 347 l 208 69 l 278 69 l 278 0 l 0 0 m 278 -278 l 139 -278 l 139 -208 l 208 -208 l 208 -69 l 347 -69 l 347 -208 l 278 -208 l 278 -278 z "},"ķ":{"ha":694,"x_min":0,"x_max":625,"o":"m 347 69 l 417 69 l 417 139 l 347 139 l 347 208 l 208 208 l 208 69 l 278 69 l 278 0 l 0 0 l 0 69 l 69 69 l 69 764 l 0 764 l 0 833 l 208 833 l 208 347 l 278 347 l 278 417 l 347 417 l 347 486 l 278 486 l 278 556 l 556 556 l 556 486 l 486 486 l 486 417 l 417 417 l 417 347 l 347 347 l 347 278 l 417 278 l 417 208 l 486 208 l 486 139 l 556 139 l 556 69 l 625 69 l 625 0 l 347 0 l 347 69 m 139 -278 l 139 -208 l 208 -208 l 208 -69 l 347 -69 l 347 -208 l 278 -208 l 278 -278 l 139 -278 z "},"ĸ":{"ha":694,"x_min":0,"x_max":625,"o":"m 347 69 l 417 69 l 417 139 l 347 139 l 347 208 l 208 208 l 208 69 l 278 69 l 278 0 l 0 0 l 0 69 l 69 69 l 69 486 l 0 486 l 0 556 l 208 556 l 208 347 l 278 347 l 278 417 l 347 417 l 347 486 l 278 486 l 278 556 l 556 556 l 556 486 l 486 486 l 486 417 l 417 417 l 417 347 l 347 347 l 347 278 l 417 278 l 417 208 l 486 208 l 486 139 l 556 139 l 556 69 l 625 69 l 625 0 l 347 0 l 347 69 z "},"Ĺ":{"ha":694,"x_min":0,"x_max":625,"o":"m 0 0 l 0 69 l 69 69 l 69 694 l 0 694 l 0 764 l 278 764 l 278 694 l 208 694 l 208 69 l 486 69 l 486 139 l 625 139 l 625 0 l 0 0 m 69 833 l 69 903 l 139 903 l 139 972 l 278 972 l 278 903 l 208 903 l 208 833 l 69 833 z "},"ĺ":{"ha":347,"x_min":0,"x_max":278,"o":"m 0 0 l 0 69 l 69 69 l 69 764 l 0 764 l 0 833 l 208 833 l 208 69 l 278 69 l 278 0 l 0 0 m 69 972 l 139 972 l 139 1042 l 278 1042 l 278 972 l 208 972 l 208 903 l 69 903 l 69 972 z "},"Ļ":{"ha":694,"x_min":0,"x_max":625,"o":"m 0 0 l 0 69 l 69 69 l 69 694 l 0 694 l 0 764 l 278 764 l 278 694 l 208 694 l 208 69 l 486 69 l 486 139 l 625 139 l 625 0 l 0 0 m 139 -278 l 139 -208 l 208 -208 l 208 -69 l 347 -69 l 347 -208 l 278 -208 l 278 -278 l 139 -278 z "},"ļ":{"ha":347,"x_min":0,"x_max":278,"o":"m 0 -278 l 0 -208 l 69 -208 l 69 -69 l 208 -69 l 208 -208 l 139 -208 l 139 -278 l 0 -278 m 0 0 l 0 69 l 69 69 l 69 764 l 0 764 l 0 833 l 208 833 l 208 69 l 278 69 l 278 0 l 0 0 z "},"Ľ":{"ha":694,"x_min":0,"x_max":625,"o":"m 0 0 l 0 69 l 69 69 l 69 694 l 0 694 l 0 764 l 278 764 l 278 694 l 208 694 l 208 69 l 486 69 l 486 139 l 625 139 l 625 0 l 0 0 m 69 833 l 69 903 l 0 903 l 0 972 l 278 972 l 278 903 l 208 903 l 208 833 l 69 833 z "},"ľ":{"ha":347,"x_min":0,"x_max":417,"o":"m 0 0 l 0 69 l 69 69 l 69 764 l 0 764 l 0 833 l 417 833 l 417 625 l 347 625 l 347 556 l 208 556 l 208 69 l 278 69 l 278 0 l 0 0 m 278 694 l 208 694 l 208 625 l 278 625 l 278 694 z "},"Ŀ":{"ha":694,"x_min":0,"x_max":625,"o":"m 0 0 l 0 69 l 69 69 l 69 694 l 0 694 l 0 764 l 278 764 l 278 694 l 208 694 l 208 417 l 417 417 l 417 347 l 208 347 l 208 69 l 486 69 l 486 139 l 625 139 l 625 0 l 0 0 z "},"ŀ":{"ha":347,"x_min":0,"x_max":417,"o":"m 0 0 l 0 69 l 69 69 l 69 764 l 0 764 l 0 833 l 208 833 l 208 417 l 417 417 l 417 347 l 208 347 l 208 69 l 278 69 l 278 0 l 0 0 z "},"Ł":{"ha":694,"x_min":0,"x_max":625,"o":"m 0 0 l 0 69 l 69 69 l 69 347 l 0 347 l 0 417 l 69 417 l 69 694 l 0 694 l 0 764 l 278 764 l 278 694 l 208 694 l 208 486 l 278 486 l 278 417 l 208 417 l 208 69 l 486 69 l 486 139 l 625 139 l 625 0 l 0 0 z "},"ł":{"ha":347,"x_min":0,"x_max":278,"o":"m 0 0 l 0 69 l 69 69 l 69 347 l 0 347 l 0 417 l 69 417 l 69 764 l 0 764 l 0 833 l 208 833 l 208 486 l 278 486 l 278 417 l 208 417 l 208 69 l 278 69 l 278 0 l 0 0 z "},"Ń":{"ha":764,"x_min":0,"x_max":694,"o":"m 0 0 l 0 69 l 69 69 l 69 694 l 0 694 l 0 764 l 208 764 l 208 694 l 278 694 l 278 556 l 347 556 l 347 417 l 417 417 l 417 278 l 486 278 l 486 694 l 417 694 l 417 764 l 694 764 l 694 694 l 625 694 l 625 0 l 486 0 l 486 69 l 417 69 l 417 139 l 347 139 l 347 278 l 278 278 l 278 417 l 208 417 l 208 69 l 278 69 l 278 0 l 0 0 m 278 903 l 347 903 l 347 972 l 486 972 l 486 903 l 417 903 l 417 833 l 278 833 l 278 903 z "},"ń":{"ha":694,"x_min":0,"x_max":625,"o":"m 347 69 l 417 69 l 417 417 l 347 417 l 347 486 l 278 486 l 278 417 l 208 417 l 208 69 l 278 69 l 278 0 l 0 0 l 0 69 l 69 69 l 69 486 l 0 486 l 0 556 l 417 556 l 417 486 l 486 486 l 486 417 l 556 417 l 556 69 l 625 69 l 625 0 l 347 0 l 347 69 m 278 764 l 417 764 l 417 694 l 347 694 l 347 625 l 208 625 l 208 694 l 278 694 l 278 764 z "},"Ņ":{"ha":764,"x_min":0,"x_max":694,"o":"m 0 0 l 0 69 l 69 69 l 69 694 l 0 694 l 0 764 l 208 764 l 208 694 l 278 694 l 278 556 l 347 556 l 347 417 l 417 417 l 417 278 l 486 278 l 486 694 l 417 694 l 417 764 l 694 764 l 694 694 l 625 694 l 625 0 l 486 0 l 486 69 l 417 69 l 417 139 l 347 139 l 347 278 l 278 278 l 278 417 l 208 417 l 208 69 l 278 69 l 278 0 l 0 0 m 417 -208 l 347 -208 l 347 -278 l 208 -278 l 208 -208 l 278 -208 l 278 -69 l 417 -69 l 417 -208 z "},"ņ":{"ha":694,"x_min":0,"x_max":625,"o":"m 347 69 l 417 69 l 417 417 l 347 417 l 347 486 l 278 486 l 278 417 l 208 417 l 208 69 l 278 69 l 278 0 l 0 0 l 0 69 l 69 69 l 69 486 l 0 486 l 0 556 l 417 556 l 417 486 l 486 486 l 486 417 l 556 417 l 556 69 l 625 69 l 625 0 l 347 0 l 347 69 m 417 -208 l 347 -208 l 347 -278 l 208 -278 l 208 -208 l 278 -208 l 278 -69 l 417 -69 l 417 -208 z "},"Ň":{"ha":764,"x_min":0,"x_max":694,"o":"m 0 0 l 0 69 l 69 69 l 69 694 l 0 694 l 0 764 l 208 764 l 208 694 l 278 694 l 278 556 l 347 556 l 347 417 l 417 417 l 417 278 l 486 278 l 486 694 l 417 694 l 417 764 l 694 764 l 694 694 l 625 694 l 625 0 l 486 0 l 486 69 l 417 69 l 417 139 l 347 139 l 347 278 l 278 278 l 278 417 l 208 417 l 208 69 l 278 69 l 278 0 l 0 0 m 278 903 l 208 903 l 208 972 l 486 972 l 486 903 l 417 903 l 417 833 l 278 833 l 278 903 z "},"ň":{"ha":694,"x_min":0,"x_max":625,"o":"m 347 69 l 417 69 l 417 417 l 347 417 l 347 486 l 278 486 l 278 417 l 208 417 l 208 69 l 278 69 l 278 0 l 0 0 l 0 69 l 69 69 l 69 486 l 0 486 l 0 556 l 417 556 l 417 486 l 486 486 l 486 417 l 556 417 l 556 69 l 625 69 l 625 0 l 347 0 l 347 69 m 139 694 l 139 764 l 278 764 l 278 694 l 347 694 l 347 764 l 486 764 l 486 694 l 417 694 l 417 625 l 208 625 l 208 694 l 139 694 z "},"ŉ":{"ha":694,"x_min":-139,"x_max":625,"o":"m 347 69 l 417 69 l 417 417 l 347 417 l 347 486 l 278 486 l 278 417 l 208 417 l 208 69 l 278 69 l 278 0 l 0 0 l 0 69 l 69 69 l 69 486 l 0 486 l 0 556 l 417 556 l 417 486 l 486 486 l 486 417 l 556 417 l 556 69 l 625 69 l 625 0 l 347 0 l 347 69 m 0 694 l 0 625 l -139 625 l -139 694 l -69 694 l -69 764 l -139 764 l -139 903 l 69 903 l 69 694 l 0 694 z "},"Ŋ":{"ha":764,"x_min":0,"x_max":694,"o":"m 0 0 l 0 69 l 69 69 l 69 694 l 0 694 l 0 764 l 208 764 l 208 694 l 278 694 l 278 556 l 347 556 l 347 417 l 417 417 l 417 278 l 486 278 l 486 694 l 417 694 l 417 764 l 694 764 l 694 694 l 625 694 l 625 -139 l 556 -139 l 556 -208 l 486 -208 l 486 -278 l 208 -278 l 208 -208 l 417 -208 l 417 -139 l 486 -139 l 486 69 l 417 69 l 417 139 l 347 139 l 347 278 l 278 278 l 278 417 l 208 417 l 208 69 l 278 69 l 278 0 l 0 0 z "},"ŋ":{"ha":694,"x_min":0,"x_max":556,"o":"m 0 0 l 0 69 l 69 69 l 69 486 l 0 486 l 0 556 l 417 556 l 417 486 l 486 486 l 486 417 l 556 417 l 556 -139 l 486 -139 l 486 -208 l 417 -208 l 417 -278 l 139 -278 l 139 -208 l 347 -208 l 347 -139 l 417 -139 l 417 417 l 347 417 l 347 486 l 278 486 l 278 417 l 208 417 l 208 69 l 278 69 l 278 0 l 0 0 z "},"Ō":{"ha":764,"x_min":0,"x_max":694,"o":"m 556 556 l 486 556 l 486 625 l 417 625 l 417 694 l 278 694 l 278 625 l 208 625 l 208 556 l 139 556 l 139 208 l 208 208 l 208 139 l 278 139 l 278 69 l 417 69 l 417 139 l 486 139 l 486 208 l 556 208 l 556 556 m 625 208 l 625 69 l 486 69 l 486 0 l 208 0 l 208 69 l 69 69 l 69 208 l 0 208 l 0 556 l 69 556 l 69 694 l 208 694 l 208 764 l 486 764 l 486 694 l 625 694 l 625 556 l 694 556 l 694 208 l 625 208 m 139 903 l 556 903 l 556 833 l 139 833 l 139 903 z "},"ō":{"ha":625,"x_min":0,"x_max":556,"o":"m 347 69 l 347 139 l 417 139 l 417 417 l 347 417 l 347 486 l 208 486 l 208 417 l 139 417 l 139 139 l 208 139 l 208 69 l 347 69 m 486 139 l 486 69 l 417 69 l 417 0 l 139 0 l 139 69 l 69 69 l 69 139 l 0 139 l 0 417 l 69 417 l 69 486 l 139 486 l 139 556 l 417 556 l 417 486 l 486 486 l 486 417 l 556 417 l 556 139 l 486 139 m 69 625 l 69 694 l 486 694 l 486 625 l 69 625 z "},"Ŏ":{"ha":764,"x_min":0,"x_max":694,"o":"m 556 556 l 486 556 l 486 625 l 417 625 l 417 694 l 278 694 l 278 625 l 208 625 l 208 556 l 139 556 l 139 208 l 208 208 l 208 139 l 278 139 l 278 69 l 417 69 l 417 139 l 486 139 l 486 208 l 556 208 l 556 556 m 278 903 l 417 903 l 417 972 l 556 972 l 556 903 l 486 903 l 486 833 l 208 833 l 208 903 l 139 903 l 139 972 l 278 972 l 278 903 m 486 0 l 208 0 l 208 69 l 69 69 l 69 208 l 0 208 l 0 556 l 69 556 l 69 694 l 208 694 l 208 764 l 486 764 l 486 694 l 625 694 l 625 556 l 694 556 l 694 208 l 625 208 l 625 69 l 486 69 l 486 0 z "},"ŏ":{"ha":625,"x_min":0,"x_max":556,"o":"m 347 69 l 347 139 l 417 139 l 417 417 l 347 417 l 347 486 l 208 486 l 208 417 l 139 417 l 139 139 l 208 139 l 208 69 l 347 69 m 486 139 l 486 69 l 417 69 l 417 0 l 139 0 l 139 69 l 69 69 l 69 139 l 0 139 l 0 417 l 69 417 l 69 486 l 139 486 l 139 556 l 417 556 l 417 486 l 486 486 l 486 417 l 556 417 l 556 139 l 486 139 m 139 694 l 69 694 l 69 764 l 208 764 l 208 694 l 347 694 l 347 764 l 486 764 l 486 694 l 417 694 l 417 625 l 139 625 l 139 694 z "},"Ő":{"ha":764,"x_min":0,"x_max":694,"o":"m 556 556 l 486 556 l 486 625 l 417 625 l 417 694 l 278 694 l 278 625 l 208 625 l 208 556 l 139 556 l 139 208 l 208 208 l 208 139 l 278 139 l 278 69 l 417 69 l 417 139 l 486 139 l 486 208 l 556 208 l 556 556 m 625 208 l 625 69 l 486 69 l 486 0 l 208 0 l 208 69 l 69 69 l 69 208 l 0 208 l 0 556 l 69 556 l 69 694 l 208 694 l 208 764 l 486 764 l 486 694 l 625 694 l 625 556 l 694 556 l 694 208 l 625 208 m 278 903 l 278 972 l 556 972 l 556 903 l 486 903 l 486 833 l 208 833 l 208 903 l 278 903 z "},"ő":{"ha":625,"x_min":0,"x_max":556,"o":"m 347 69 l 347 139 l 417 139 l 417 417 l 347 417 l 347 486 l 208 486 l 208 417 l 139 417 l 139 139 l 208 139 l 208 69 l 347 69 m 486 139 l 486 69 l 417 69 l 417 0 l 139 0 l 139 69 l 69 69 l 69 139 l 0 139 l 0 417 l 69 417 l 69 486 l 139 486 l 139 556 l 417 556 l 417 486 l 486 486 l 486 417 l 556 417 l 556 139 l 486 139 m 139 694 l 208 694 l 208 764 l 486 764 l 486 694 l 417 694 l 417 625 l 139 625 l 139 694 z "},"Œ":{"ha":972,"x_min":0,"x_max":903,"o":"m 347 69 l 347 694 l 278 694 l 278 625 l 208 625 l 208 556 l 139 556 l 139 208 l 208 208 l 208 139 l 278 139 l 278 69 l 347 69 m 625 347 l 486 347 l 486 69 l 764 69 l 764 139 l 903 139 l 903 0 l 208 0 l 208 69 l 69 69 l 69 208 l 0 208 l 0 556 l 69 556 l 69 694 l 208 694 l 208 764 l 903 764 l 903 625 l 764 625 l 764 694 l 486 694 l 486 417 l 625 417 l 625 486 l 764 486 l 764 278 l 625 278 l 625 347 z "},"œ":{"ha":1042,"x_min":0,"x_max":972,"o":"m 556 556 l 833 556 l 833 486 l 903 486 l 903 417 l 972 417 l 972 278 l 556 278 l 556 139 l 625 139 l 625 69 l 764 69 l 764 139 l 903 139 l 903 69 l 833 69 l 833 0 l 556 0 l 556 69 l 417 69 l 417 0 l 139 0 l 139 69 l 69 69 l 69 139 l 0 139 l 0 417 l 69 417 l 69 486 l 139 486 l 139 556 l 417 556 l 417 486 l 556 486 l 556 556 m 833 417 l 764 417 l 764 486 l 625 486 l 625 417 l 556 417 l 556 347 l 833 347 l 833 417 m 417 417 l 347 417 l 347 486 l 208 486 l 208 417 l 139 417 l 139 139 l 208 139 l 208 69 l 347 69 l 347 139 l 417 139 l 417 417 z "},"Ŕ":{"ha":694,"x_min":0,"x_max":625,"o":"m 0 0 l 0 69 l 69 69 l 69 694 l 0 694 l 0 764 l 486 764 l 486 694 l 556 694 l 556 625 l 625 625 l 625 486 l 556 486 l 556 417 l 486 417 l 486 347 l 417 347 l 417 278 l 486 278 l 486 208 l 556 208 l 556 69 l 625 69 l 625 0 l 486 0 l 486 69 l 417 69 l 417 208 l 347 208 l 347 278 l 278 278 l 278 347 l 208 347 l 208 69 l 278 69 l 278 0 l 0 0 m 417 417 l 417 486 l 486 486 l 486 625 l 417 625 l 417 694 l 208 694 l 208 417 l 417 417 m 278 903 l 278 972 l 417 972 l 417 903 l 347 903 l 347 833 l 208 833 l 208 903 l 278 903 z "},"ŕ":{"ha":625,"x_min":0,"x_max":556,"o":"m 0 0 l 0 69 l 69 69 l 69 486 l 0 486 l 0 556 l 486 556 l 486 486 l 556 486 l 556 417 l 417 417 l 417 486 l 278 486 l 278 417 l 208 417 l 208 69 l 278 69 l 278 0 l 0 0 m 278 764 l 417 764 l 417 694 l 347 694 l 347 625 l 208 625 l 208 694 l 278 694 l 278 764 z "},"Ŗ":{"ha":694,"x_min":0,"x_max":625,"o":"m 0 0 l 0 69 l 69 69 l 69 694 l 0 694 l 0 764 l 486 764 l 486 694 l 556 694 l 556 625 l 625 625 l 625 486 l 556 486 l 556 417 l 486 417 l 486 347 l 417 347 l 417 278 l 486 278 l 486 208 l 556 208 l 556 69 l 625 69 l 625 0 l 486 0 l 486 69 l 417 69 l 417 208 l 347 208 l 347 278 l 278 278 l 278 347 l 208 347 l 208 69 l 278 69 l 278 0 l 0 0 m 417 417 l 417 486 l 486 486 l 486 625 l 417 625 l 417 694 l 208 694 l 208 417 l 417 417 m 417 -208 l 347 -208 l 347 -278 l 208 -278 l 208 -208 l 278 -208 l 278 -69 l 417 -69 l 417 -208 z "},"ŗ":{"ha":625,"x_min":0,"x_max":556,"o":"m 0 0 l 0 69 l 69 69 l 69 486 l 0 486 l 0 556 l 486 556 l 486 486 l 556 486 l 556 417 l 417 417 l 417 486 l 278 486 l 278 417 l 208 417 l 208 69 l 278 69 l 278 0 l 0 0 m 139 -278 l 139 -208 l 208 -208 l 208 -69 l 347 -69 l 347 -208 l 278 -208 l 278 -278 l 139 -278 z "},"Ř":{"ha":694,"x_min":0,"x_max":625,"o":"m 0 0 l 0 69 l 69 69 l 69 694 l 0 694 l 0 764 l 486 764 l 486 694 l 556 694 l 556 625 l 625 625 l 625 486 l 556 486 l 556 417 l 486 417 l 486 347 l 417 347 l 417 278 l 486 278 l 486 208 l 556 208 l 556 69 l 625 69 l 625 0 l 486 0 l 486 69 l 417 69 l 417 208 l 347 208 l 347 278 l 278 278 l 278 347 l 208 347 l 208 69 l 278 69 l 278 0 l 0 0 m 417 417 l 417 486 l 486 486 l 486 625 l 417 625 l 417 694 l 208 694 l 208 417 l 417 417 m 347 833 l 208 833 l 208 903 l 139 903 l 139 972 l 417 972 l 417 903 l 347 903 l 347 833 z "},"ř":{"ha":625,"x_min":0,"x_max":556,"o":"m 0 0 l 0 69 l 69 69 l 69 486 l 0 486 l 0 556 l 486 556 l 486 486 l 556 486 l 556 417 l 417 417 l 417 486 l 278 486 l 278 417 l 208 417 l 208 69 l 278 69 l 278 0 l 0 0 m 139 694 l 139 764 l 417 764 l 417 694 l 347 694 l 347 625 l 208 625 l 208 694 l 139 694 z "},"Ś":{"ha":625,"x_min":0,"x_max":556,"o":"m 0 0 l 0 208 l 139 208 l 139 139 l 208 139 l 208 69 l 347 69 l 347 139 l 417 139 l 417 278 l 347 278 l 347 347 l 139 347 l 139 417 l 69 417 l 69 486 l 0 486 l 0 625 l 69 625 l 69 694 l 139 694 l 139 764 l 556 764 l 556 556 l 417 556 l 417 625 l 347 625 l 347 694 l 208 694 l 208 625 l 139 625 l 139 486 l 208 486 l 208 417 l 417 417 l 417 347 l 486 347 l 486 278 l 556 278 l 556 139 l 486 139 l 486 69 l 417 69 l 417 0 l 0 0 m 278 903 l 278 972 l 417 972 l 417 903 l 347 903 l 347 833 l 208 833 l 208 903 l 278 903 z "},"ś":{"ha":556,"x_min":0,"x_max":486,"o":"m 347 69 l 347 208 l 208 208 l 208 278 l 69 278 l 69 347 l 0 347 l 0 486 l 69 486 l 69 556 l 486 556 l 486 347 l 347 347 l 347 417 l 278 417 l 278 486 l 139 486 l 139 347 l 278 347 l 278 278 l 417 278 l 417 208 l 486 208 l 486 69 l 417 69 l 417 0 l 0 0 l 0 208 l 139 208 l 139 139 l 208 139 l 208 69 l 347 69 m 139 694 l 208 694 l 208 764 l 347 764 l 347 694 l 278 694 l 278 625 l 139 625 l 139 694 z "},"Ŝ":{"ha":625,"x_min":0,"x_max":556,"o":"m 0 0 l 0 208 l 139 208 l 139 139 l 208 139 l 208 69 l 347 69 l 347 139 l 417 139 l 417 278 l 347 278 l 347 347 l 139 347 l 139 417 l 69 417 l 69 486 l 0 486 l 0 625 l 69 625 l 69 694 l 139 694 l 139 764 l 556 764 l 556 556 l 417 556 l 417 625 l 347 625 l 347 694 l 208 694 l 208 625 l 139 625 l 139 486 l 208 486 l 208 417 l 417 417 l 417 347 l 486 347 l 486 278 l 556 278 l 556 139 l 486 139 l 486 69 l 417 69 l 417 0 l 0 0 m 417 833 l 139 833 l 139 903 l 208 903 l 208 972 l 347 972 l 347 903 l 417 903 l 417 833 z "},"ŝ":{"ha":556,"x_min":0,"x_max":486,"o":"m 347 69 l 347 208 l 208 208 l 208 278 l 69 278 l 69 347 l 0 347 l 0 486 l 69 486 l 69 556 l 486 556 l 486 347 l 347 347 l 347 417 l 278 417 l 278 486 l 139 486 l 139 347 l 278 347 l 278 278 l 417 278 l 417 208 l 486 208 l 486 69 l 417 69 l 417 0 l 0 0 l 0 208 l 139 208 l 139 139 l 208 139 l 208 69 l 347 69 m 139 694 l 139 764 l 347 764 l 347 694 l 417 694 l 417 625 l 278 625 l 278 694 l 208 694 l 208 625 l 69 625 l 69 694 l 139 694 z "},"Ş":{"ha":625,"x_min":0,"x_max":556,"o":"m 0 0 l 0 208 l 139 208 l 139 139 l 208 139 l 208 69 l 347 69 l 347 139 l 417 139 l 417 278 l 347 278 l 347 347 l 139 347 l 139 417 l 69 417 l 69 486 l 0 486 l 0 625 l 69 625 l 69 694 l 139 694 l 139 764 l 556 764 l 556 556 l 417 556 l 417 625 l 347 625 l 347 694 l 208 694 l 208 625 l 139 625 l 139 486 l 208 486 l 208 417 l 417 417 l 417 347 l 486 347 l 486 278 l 556 278 l 556 139 l 486 139 l 486 69 l 417 69 l 417 0 l 347 0 l 347 -69 l 417 -69 l 417 -208 l 347 -208 l 347 -278 l 208 -278 l 208 -208 l 139 -208 l 139 -139 l 278 -139 l 278 -69 l 208 -69 l 208 0 l 0 0 z "},"ş":{"ha":556,"x_min":0,"x_max":486,"o":"m 347 69 l 347 208 l 208 208 l 208 278 l 69 278 l 69 347 l 0 347 l 0 486 l 69 486 l 69 556 l 486 556 l 486 347 l 347 347 l 347 417 l 278 417 l 278 486 l 139 486 l 139 347 l 278 347 l 278 278 l 417 278 l 417 208 l 486 208 l 486 69 l 417 69 l 417 0 l 347 0 l 347 -69 l 417 -69 l 417 -208 l 347 -208 l 347 -278 l 208 -278 l 208 -208 l 139 -208 l 139 -139 l 278 -139 l 278 -69 l 208 -69 l 208 0 l 0 0 l 0 208 l 139 208 l 139 139 l 208 139 l 208 69 l 347 69 z "},"Š":{"ha":625,"x_min":0,"x_max":556,"o":"m 0 0 l 0 208 l 139 208 l 139 139 l 208 139 l 208 69 l 347 69 l 347 139 l 417 139 l 417 278 l 347 278 l 347 347 l 139 347 l 139 417 l 69 417 l 69 486 l 0 486 l 0 625 l 69 625 l 69 694 l 139 694 l 139 764 l 556 764 l 556 556 l 417 556 l 417 625 l 347 625 l 347 694 l 208 694 l 208 625 l 139 625 l 139 486 l 208 486 l 208 417 l 417 417 l 417 347 l 486 347 l 486 278 l 556 278 l 556 139 l 486 139 l 486 69 l 417 69 l 417 0 l 0 0 m 347 833 l 208 833 l 208 903 l 139 903 l 139 972 l 417 972 l 417 903 l 347 903 l 347 833 z "},"š":{"ha":556,"x_min":0,"x_max":486,"o":"m 347 69 l 347 208 l 208 208 l 208 278 l 69 278 l 69 347 l 0 347 l 0 486 l 69 486 l 69 556 l 486 556 l 486 347 l 347 347 l 347 417 l 278 417 l 278 486 l 139 486 l 139 347 l 278 347 l 278 278 l 417 278 l 417 208 l 486 208 l 486 69 l 417 69 l 417 0 l 0 0 l 0 208 l 139 208 l 139 139 l 208 139 l 208 69 l 347 69 m 139 694 l 69 694 l 69 764 l 208 764 l 208 694 l 278 694 l 278 764 l 417 764 l 417 694 l 347 694 l 347 625 l 139 625 l 139 694 z "},"Ţ":{"ha":625,"x_min":0,"x_max":556,"o":"m 347 69 l 417 69 l 417 0 l 347 0 l 347 -69 l 417 -69 l 417 -208 l 347 -208 l 347 -278 l 208 -278 l 208 -208 l 139 -208 l 139 -139 l 278 -139 l 278 -69 l 208 -69 l 208 0 l 139 0 l 139 69 l 208 69 l 208 694 l 139 694 l 139 625 l 0 625 l 0 764 l 556 764 l 556 625 l 417 625 l 417 694 l 347 694 l 347 69 z "},"ţ":{"ha":347,"x_min":0,"x_max":347,"o":"m 347 69 l 347 0 l 278 0 l 278 -69 l 347 -69 l 347 -208 l 278 -208 l 278 -278 l 139 -278 l 139 -208 l 69 -208 l 69 -139 l 208 -139 l 208 -69 l 139 -69 l 139 69 l 69 69 l 69 486 l 0 486 l 0 556 l 69 556 l 69 833 l 208 833 l 208 556 l 278 556 l 278 486 l 208 486 l 208 69 l 347 69 z "},"Ť":{"ha":625,"x_min":0,"x_max":556,"o":"m 347 69 l 417 69 l 417 0 l 139 0 l 139 69 l 208 69 l 208 694 l 139 694 l 139 625 l 0 625 l 0 764 l 556 764 l 556 625 l 417 625 l 417 694 l 347 694 l 347 69 m 139 903 l 139 972 l 417 972 l 417 903 l 347 903 l 347 833 l 208 833 l 208 903 l 139 903 z "},"ť":{"ha":347,"x_min":0,"x_max":417,"o":"m 69 833 l 417 833 l 417 625 l 347 625 l 347 556 l 278 556 l 278 486 l 208 486 l 208 69 l 347 69 l 347 0 l 139 0 l 139 69 l 69 69 l 69 486 l 0 486 l 0 556 l 69 556 l 69 833 m 278 694 l 208 694 l 208 625 l 278 625 l 278 694 z "},"Ŧ":{"ha":625,"x_min":0,"x_max":556,"o":"m 347 69 l 417 69 l 417 0 l 139 0 l 139 69 l 208 69 l 208 347 l 69 347 l 69 417 l 208 417 l 208 694 l 139 694 l 139 625 l 0 625 l 0 764 l 556 764 l 556 625 l 417 625 l 417 694 l 347 694 l 347 417 l 486 417 l 486 347 l 347 347 l 347 69 z "},"ŧ":{"ha":347,"x_min":0,"x_max":347,"o":"m 69 833 l 208 833 l 208 556 l 278 556 l 278 486 l 208 486 l 208 347 l 278 347 l 278 278 l 208 278 l 208 69 l 347 69 l 347 0 l 139 0 l 139 69 l 69 69 l 69 278 l 0 278 l 0 347 l 69 347 l 69 486 l 0 486 l 0 556 l 69 556 l 69 833 z "},"Ũ":{"ha":833,"x_min":0,"x_max":764,"o":"m 347 69 l 417 69 l 417 139 l 486 139 l 486 208 l 556 208 l 556 694 l 486 694 l 486 764 l 764 764 l 764 694 l 694 694 l 694 208 l 625 208 l 625 69 l 486 69 l 486 0 l 278 0 l 278 69 l 139 69 l 139 208 l 69 208 l 69 694 l 0 694 l 0 764 l 278 764 l 278 694 l 208 694 l 208 208 l 278 208 l 278 139 l 347 139 l 347 69 m 139 903 l 208 903 l 208 972 l 417 972 l 417 903 l 486 903 l 486 972 l 625 972 l 625 903 l 556 903 l 556 833 l 347 833 l 347 903 l 278 903 l 278 833 l 139 833 l 139 903 z "},"ũ":{"ha":694,"x_min":0,"x_max":625,"o":"m 347 69 l 347 139 l 417 139 l 417 486 l 347 486 l 347 556 l 556 556 l 556 69 l 625 69 l 625 0 l 208 0 l 208 69 l 139 69 l 139 139 l 69 139 l 69 486 l 0 486 l 0 556 l 208 556 l 208 139 l 278 139 l 278 69 l 347 69 m 139 694 l 139 764 l 347 764 l 347 694 l 417 694 l 417 764 l 556 764 l 556 694 l 486 694 l 486 625 l 278 625 l 278 694 l 208 694 l 208 625 l 69 625 l 69 694 l 139 694 z "},"Ū":{"ha":833,"x_min":0,"x_max":764,"o":"m 347 69 l 417 69 l 417 139 l 486 139 l 486 208 l 556 208 l 556 694 l 486 694 l 486 764 l 764 764 l 764 694 l 694 694 l 694 208 l 625 208 l 625 69 l 486 69 l 486 0 l 278 0 l 278 69 l 139 69 l 139 208 l 69 208 l 69 694 l 0 694 l 0 764 l 278 764 l 278 694 l 208 694 l 208 208 l 278 208 l 278 139 l 347 139 l 347 69 m 139 903 l 625 903 l 625 833 l 139 833 l 139 903 z "},"ū":{"ha":694,"x_min":0,"x_max":625,"o":"m 347 69 l 347 139 l 417 139 l 417 486 l 347 486 l 347 556 l 556 556 l 556 69 l 625 69 l 625 0 l 208 0 l 208 69 l 139 69 l 139 139 l 69 139 l 69 486 l 0 486 l 0 556 l 208 556 l 208 139 l 278 139 l 278 69 l 347 69 m 69 625 l 69 694 l 486 694 l 486 625 l 69 625 z "},"Ŭ":{"ha":833,"x_min":0,"x_max":764,"o":"m 347 69 l 417 69 l 417 139 l 486 139 l 486 208 l 556 208 l 556 694 l 486 694 l 486 764 l 764 764 l 764 694 l 694 694 l 694 208 l 625 208 l 625 69 l 486 69 l 486 0 l 278 0 l 278 69 l 139 69 l 139 208 l 69 208 l 69 694 l 0 694 l 0 764 l 278 764 l 278 694 l 208 694 l 208 208 l 278 208 l 278 139 l 347 139 l 347 69 m 139 903 l 139 972 l 278 972 l 278 903 l 486 903 l 486 972 l 625 972 l 625 903 l 556 903 l 556 833 l 208 833 l 208 903 l 139 903 z "},"ŭ":{"ha":694,"x_min":0,"x_max":625,"o":"m 347 69 l 347 139 l 417 139 l 417 486 l 347 486 l 347 556 l 556 556 l 556 69 l 625 69 l 625 0 l 208 0 l 208 69 l 139 69 l 139 139 l 69 139 l 69 486 l 0 486 l 0 556 l 208 556 l 208 139 l 278 139 l 278 69 l 347 69 m 139 694 l 69 694 l 69 764 l 208 764 l 208 694 l 347 694 l 347 764 l 486 764 l 486 694 l 417 694 l 417 625 l 139 625 l 139 694 z "},"Ů":{"ha":833,"x_min":0,"x_max":764,"o":"m 347 69 l 417 69 l 417 139 l 486 139 l 486 208 l 556 208 l 556 694 l 486 694 l 486 764 l 764 764 l 764 694 l 694 694 l 694 208 l 625 208 l 625 69 l 486 69 l 486 0 l 278 0 l 278 69 l 139 69 l 139 208 l 69 208 l 69 694 l 0 694 l 0 764 l 278 764 l 278 694 l 208 694 l 208 208 l 278 208 l 278 139 l 347 139 l 347 69 m 278 903 l 278 972 l 486 972 l 486 903 l 556 903 l 556 833 l 486 833 l 486 764 l 278 764 l 278 833 l 208 833 l 208 903 l 278 903 m 347 833 l 417 833 l 417 903 l 347 903 l 347 833 z "},"ů":{"ha":694,"x_min":0,"x_max":625,"o":"m 347 69 l 347 139 l 417 139 l 417 486 l 347 486 l 347 556 l 556 556 l 556 69 l 625 69 l 625 0 l 208 0 l 208 69 l 139 69 l 139 139 l 69 139 l 69 486 l 0 486 l 0 556 l 208 556 l 208 139 l 278 139 l 278 69 l 347 69 m 139 694 l 69 694 l 69 764 l 139 764 l 139 833 l 417 833 l 417 764 l 486 764 l 486 694 l 417 694 l 417 625 l 139 625 l 139 694 m 347 764 l 208 764 l 208 694 l 347 694 l 347 764 z "},"Ű":{"ha":833,"x_min":0,"x_max":764,"o":"m 347 69 l 417 69 l 417 139 l 486 139 l 486 208 l 556 208 l 556 694 l 486 694 l 486 764 l 764 764 l 764 694 l 694 694 l 694 208 l 625 208 l 625 69 l 486 69 l 486 0 l 278 0 l 278 69 l 139 69 l 139 208 l 69 208 l 69 694 l 0 694 l 0 764 l 278 764 l 278 694 l 208 694 l 208 208 l 278 208 l 278 139 l 347 139 l 347 69 m 278 903 l 278 972 l 556 972 l 556 903 l 486 903 l 486 833 l 208 833 l 208 903 l 278 903 z "},"ű":{"ha":694,"x_min":0,"x_max":625,"o":"m 347 69 l 347 139 l 417 139 l 417 486 l 347 486 l 347 556 l 556 556 l 556 69 l 625 69 l 625 0 l 208 0 l 208 69 l 139 69 l 139 139 l 69 139 l 69 486 l 0 486 l 0 556 l 208 556 l 208 139 l 278 139 l 278 69 l 347 69 m 139 694 l 208 694 l 208 764 l 486 764 l 486 694 l 417 694 l 417 625 l 139 625 l 139 694 z "},"Ų":{"ha":833,"x_min":0,"x_max":764,"o":"m 347 69 l 417 69 l 417 139 l 486 139 l 486 208 l 556 208 l 556 694 l 486 694 l 486 764 l 764 764 l 764 694 l 694 694 l 694 208 l 625 208 l 625 69 l 486 69 l 486 -69 l 417 -69 l 417 -139 l 556 -139 l 556 -208 l 486 -208 l 486 -278 l 347 -278 l 347 -208 l 278 -208 l 278 -69 l 347 -69 l 347 0 l 278 0 l 278 69 l 139 69 l 139 208 l 69 208 l 69 694 l 0 694 l 0 764 l 278 764 l 278 694 l 208 694 l 208 208 l 278 208 l 278 139 l 347 139 l 347 69 z "},"ų":{"ha":694,"x_min":0,"x_max":625,"o":"m 347 69 l 347 139 l 417 139 l 417 486 l 347 486 l 347 556 l 556 556 l 556 69 l 625 69 l 625 0 l 417 0 l 417 -69 l 347 -69 l 347 -139 l 486 -139 l 486 -208 l 417 -208 l 417 -278 l 278 -278 l 278 -208 l 208 -208 l 208 -69 l 278 -69 l 278 0 l 208 0 l 208 69 l 139 69 l 139 139 l 69 139 l 69 486 l 0 486 l 0 556 l 208 556 l 208 139 l 278 139 l 278 69 l 347 69 z "},"Ŵ":{"ha":1042,"x_min":0,"x_max":972,"o":"m 694 139 l 694 0 l 556 0 l 556 139 l 417 139 l 417 0 l 278 0 l 278 139 l 208 139 l 208 347 l 139 347 l 139 556 l 69 556 l 69 694 l 0 694 l 0 764 l 278 764 l 278 694 l 208 694 l 208 556 l 278 556 l 278 347 l 417 347 l 417 556 l 556 556 l 556 347 l 694 347 l 694 556 l 764 556 l 764 694 l 694 694 l 694 764 l 972 764 l 972 694 l 903 694 l 903 556 l 833 556 l 833 347 l 764 347 l 764 139 l 694 139 m 347 833 l 347 903 l 417 903 l 417 972 l 556 972 l 556 903 l 625 903 l 625 833 l 347 833 z "},"ŵ":{"ha":764,"x_min":0,"x_max":694,"o":"m 625 347 l 556 347 l 556 139 l 486 139 l 486 0 l 208 0 l 208 139 l 139 139 l 139 347 l 69 347 l 69 486 l 0 486 l 0 556 l 278 556 l 278 486 l 208 486 l 208 347 l 486 347 l 486 486 l 417 486 l 417 556 l 694 556 l 694 486 l 625 486 l 625 347 m 278 764 l 417 764 l 417 694 l 486 694 l 486 625 l 208 625 l 208 694 l 278 694 l 278 764 z "},"Ŷ":{"ha":764,"x_min":0,"x_max":694,"o":"m 0 764 l 278 764 l 278 694 l 208 694 l 208 625 l 278 625 l 278 486 l 417 486 l 417 625 l 486 625 l 486 694 l 417 694 l 417 764 l 694 764 l 694 694 l 625 694 l 625 625 l 556 625 l 556 486 l 486 486 l 486 417 l 417 417 l 417 69 l 486 69 l 486 0 l 208 0 l 208 69 l 278 69 l 278 417 l 208 417 l 208 486 l 139 486 l 139 625 l 69 625 l 69 694 l 0 694 l 0 764 m 278 903 l 278 972 l 417 972 l 417 903 l 486 903 l 486 833 l 208 833 l 208 903 l 278 903 z "},"ŷ":{"ha":625,"x_min":0,"x_max":556,"o":"m 0 -278 l 0 -208 l 69 -208 l 69 -139 l 139 -139 l 139 0 l 208 0 l 208 139 l 139 139 l 139 347 l 69 347 l 69 486 l 0 486 l 0 556 l 556 556 l 556 486 l 486 486 l 486 347 l 417 347 l 417 139 l 347 139 l 347 0 l 278 0 l 278 -139 l 208 -139 l 208 -208 l 139 -208 l 139 -278 l 0 -278 m 139 694 l 208 694 l 208 764 l 347 764 l 347 694 l 417 694 l 417 625 l 139 625 l 139 694 m 208 347 l 347 347 l 347 486 l 208 486 l 208 347 z "},"Ÿ":{"ha":764,"x_min":0,"x_max":694,"o":"m 0 764 l 278 764 l 278 694 l 208 694 l 208 625 l 278 625 l 278 486 l 417 486 l 417 625 l 486 625 l 486 694 l 417 694 l 417 764 l 694 764 l 694 694 l 625 694 l 625 625 l 556 625 l 556 486 l 486 486 l 486 417 l 417 417 l 417 69 l 486 69 l 486 0 l 208 0 l 208 69 l 278 69 l 278 417 l 208 417 l 208 486 l 139 486 l 139 625 l 69 625 l 69 694 l 0 694 l 0 764 m 139 903 l 556 903 l 556 833 l 139 833 l 139 903 z "},"Ź":{"ha":625,"x_min":0,"x_max":556,"o":"m 0 0 l 0 139 l 69 139 l 69 208 l 139 208 l 139 347 l 208 347 l 208 417 l 278 417 l 278 556 l 347 556 l 347 625 l 417 625 l 417 694 l 139 694 l 139 625 l 0 625 l 0 764 l 556 764 l 556 625 l 486 625 l 486 556 l 417 556 l 417 417 l 347 417 l 347 347 l 278 347 l 278 208 l 208 208 l 208 139 l 139 139 l 139 69 l 417 69 l 417 139 l 556 139 l 556 0 l 0 0 m 278 903 l 278 972 l 417 972 l 417 903 l 347 903 l 347 833 l 208 833 l 208 903 l 278 903 z "},"ź":{"ha":556,"x_min":0,"x_max":486,"o":"m 347 69 l 347 139 l 486 139 l 486 0 l 0 0 l 0 139 l 69 139 l 69 208 l 139 208 l 139 278 l 208 278 l 208 347 l 278 347 l 278 417 l 347 417 l 347 486 l 139 486 l 139 417 l 0 417 l 0 556 l 486 556 l 486 417 l 417 417 l 417 347 l 347 347 l 347 278 l 278 278 l 278 208 l 208 208 l 208 139 l 139 139 l 139 69 l 347 69 m 139 694 l 208 694 l 208 764 l 347 764 l 347 694 l 278 694 l 278 625 l 139 625 l 139 694 z "},"Ż":{"ha":625,"x_min":0,"x_max":556,"o":"m 0 0 l 0 139 l 69 139 l 69 208 l 139 208 l 139 347 l 208 347 l 208 417 l 278 417 l 278 556 l 347 556 l 347 625 l 417 625 l 417 694 l 139 694 l 139 625 l 0 625 l 0 764 l 556 764 l 556 625 l 486 625 l 486 556 l 417 556 l 417 417 l 347 417 l 347 347 l 278 347 l 278 208 l 208 208 l 208 139 l 139 139 l 139 69 l 417 69 l 417 139 l 556 139 l 556 0 l 0 0 m 417 833 l 208 833 l 208 903 l 417 903 l 417 833 z "},"ż":{"ha":556,"x_min":0,"x_max":486,"o":"m 347 69 l 347 139 l 486 139 l 486 0 l 0 0 l 0 139 l 69 139 l 69 208 l 139 208 l 139 278 l 208 278 l 208 347 l 278 347 l 278 417 l 347 417 l 347 486 l 139 486 l 139 417 l 0 417 l 0 556 l 486 556 l 486 417 l 417 417 l 417 347 l 347 347 l 347 278 l 278 278 l 278 208 l 208 208 l 208 139 l 139 139 l 139 69 l 347 69 m 139 694 l 347 694 l 347 625 l 139 625 l 139 694 z "},"Ž":{"ha":625,"x_min":0,"x_max":556,"o":"m 0 0 l 0 139 l 69 139 l 69 208 l 139 208 l 139 347 l 208 347 l 208 417 l 278 417 l 278 556 l 347 556 l 347 625 l 417 625 l 417 694 l 139 694 l 139 625 l 0 625 l 0 764 l 556 764 l 556 625 l 486 625 l 486 556 l 417 556 l 417 417 l 347 417 l 347 347 l 278 347 l 278 208 l 208 208 l 208 139 l 139 139 l 139 69 l 417 69 l 417 139 l 556 139 l 556 0 l 0 0 m 139 903 l 139 972 l 417 972 l 417 903 l 347 903 l 347 833 l 208 833 l 208 903 l 139 903 z "},"ž":{"ha":556,"x_min":0,"x_max":486,"o":"m 0 0 l 0 139 l 69 139 l 69 208 l 139 208 l 139 278 l 208 278 l 208 347 l 278 347 l 278 417 l 347 417 l 347 486 l 139 486 l 139 417 l 0 417 l 0 556 l 486 556 l 486 417 l 417 417 l 417 347 l 347 347 l 347 278 l 278 278 l 278 208 l 208 208 l 208 139 l 139 139 l 139 69 l 347 69 l 347 139 l 486 139 l 486 0 l 0 0 m 139 694 l 69 694 l 69 764 l 208 764 l 208 694 l 278 694 l 278 764 l 417 764 l 417 694 l 347 694 l 347 625 l 139 625 l 139 694 z "},"ſ":{"ha":347,"x_min":0,"x_max":417,"o":"m 0 0 l 0 69 l 69 69 l 69 486 l 0 486 l 0 556 l 69 556 l 69 694 l 139 694 l 139 764 l 208 764 l 208 833 l 417 833 l 417 764 l 278 764 l 278 694 l 208 694 l 208 69 l 278 69 l 278 0 l 0 0 z "},"ƒ":{"ha":347,"x_min":-208,"x_max":417,"o":"m 0 -278 l -208 -278 l -208 -208 l -69 -208 l -69 -139 l 0 -139 l 0 0 l 69 0 l 69 486 l 0 486 l 0 556 l 69 556 l 69 694 l 139 694 l 139 764 l 208 764 l 208 833 l 417 833 l 417 764 l 278 764 l 278 694 l 208 694 l 208 556 l 278 556 l 278 486 l 208 486 l 208 0 l 139 0 l 139 -139 l 69 -139 l 69 -208 l 0 -208 l 0 -278 z "},"ȷ":{"ha":278,"x_min":-139,"x_max":208,"o":"m 69 -278 l -139 -278 l -139 -208 l 0 -208 l 0 -139 l 69 -139 l 69 486 l 0 486 l 0 556 l 208 556 l 208 -139 l 139 -139 l 139 -208 l 69 -208 l 69 -278 z "},"ɐ":{"ha":625,"x_min":0,"x_max":556,"o":"m 347 69 l 347 139 l 486 139 l 486 69 l 417 69 l 417 0 l 139 0 l 139 69 l 69 69 l 69 486 l 0 486 l 0 556 l 486 556 l 486 486 l 556 486 l 556 347 l 486 347 l 486 278 l 417 278 l 417 208 l 208 208 l 208 69 l 347 69 m 417 347 l 417 486 l 278 486 l 278 417 l 208 417 l 208 278 l 347 278 l 347 347 l 417 347 z "},"ɑ":{"ha":625,"x_min":0,"x_max":556,"o":"m 347 486 l 208 486 l 208 417 l 139 417 l 139 69 l 278 69 l 278 139 l 347 139 l 347 486 m 69 0 l 69 69 l 0 69 l 0 417 l 69 417 l 69 486 l 139 486 l 139 556 l 486 556 l 486 69 l 556 69 l 556 0 l 69 0 z "},"ɒ":{"ha":625,"x_min":0,"x_max":556,"o":"m 347 69 l 347 139 l 417 139 l 417 486 l 278 486 l 278 417 l 208 417 l 208 69 l 347 69 m 69 0 l 69 486 l 0 486 l 0 556 l 486 556 l 486 486 l 556 486 l 556 139 l 486 139 l 486 69 l 417 69 l 417 0 l 69 0 z "},"ɓ":{"ha":694,"x_min":0,"x_max":625,"o":"m 0 0 l 0 69 l 69 69 l 69 694 l 139 694 l 139 764 l 208 764 l 208 833 l 486 833 l 486 764 l 278 764 l 278 694 l 208 694 l 208 556 l 486 556 l 486 486 l 556 486 l 556 417 l 625 417 l 625 139 l 556 139 l 556 69 l 486 69 l 486 0 l 0 0 m 278 486 l 278 417 l 208 417 l 208 139 l 278 139 l 278 69 l 417 69 l 417 139 l 486 139 l 486 417 l 417 417 l 417 486 l 278 486 z "},"ɔ":{"ha":625,"x_min":0,"x_max":556,"o":"m 347 69 l 347 139 l 417 139 l 417 417 l 347 417 l 347 486 l 208 486 l 208 417 l 139 417 l 139 347 l 0 347 l 0 556 l 417 556 l 417 486 l 486 486 l 486 417 l 556 417 l 556 139 l 486 139 l 486 69 l 417 69 l 417 0 l 139 0 l 139 69 l 69 69 l 69 139 l 0 139 l 0 208 l 139 208 l 139 139 l 208 139 l 208 69 l 347 69 z "},"ɕ":{"ha":625,"x_min":0,"x_max":556,"o":"m 417 347 l 417 417 l 347 417 l 347 486 l 208 486 l 208 417 l 139 417 l 139 139 l 208 139 l 208 69 l 278 69 l 278 139 l 347 139 l 347 208 l 486 208 l 486 139 l 556 139 l 556 69 l 486 69 l 486 0 l 347 0 l 347 -69 l 278 -69 l 278 -139 l 139 -139 l 139 -69 l 208 -69 l 208 0 l 139 0 l 139 69 l 69 69 l 69 139 l 0 139 l 0 417 l 69 417 l 69 486 l 139 486 l 139 556 l 556 556 l 556 347 l 417 347 z "},"ɖ":{"ha":694,"x_min":0,"x_max":764,"o":"m 347 69 l 347 139 l 417 139 l 417 417 l 347 417 l 347 486 l 208 486 l 208 417 l 139 417 l 139 139 l 208 139 l 208 69 l 347 69 m 764 -278 l 556 -278 l 556 -208 l 486 -208 l 486 -139 l 417 -139 l 417 0 l 139 0 l 139 69 l 69 69 l 69 139 l 0 139 l 0 417 l 69 417 l 69 486 l 139 486 l 139 556 l 417 556 l 417 764 l 347 764 l 347 833 l 556 833 l 556 -139 l 625 -139 l 625 -208 l 764 -208 l 764 -278 z "},"ɗ":{"ha":694,"x_min":0,"x_max":764,"o":"m 347 69 l 347 139 l 417 139 l 417 417 l 347 417 l 347 486 l 208 486 l 208 417 l 139 417 l 139 139 l 208 139 l 208 69 l 347 69 m 764 764 l 625 764 l 625 694 l 556 694 l 556 69 l 625 69 l 625 0 l 139 0 l 139 69 l 69 69 l 69 139 l 0 139 l 0 417 l 69 417 l 69 486 l 139 486 l 139 556 l 417 556 l 417 694 l 486 694 l 486 764 l 556 764 l 556 833 l 764 833 l 764 764 z "},"ɘ":{"ha":625,"x_min":0,"x_max":556,"o":"m 347 69 l 347 139 l 417 139 l 417 278 l 0 278 l 0 417 l 69 417 l 69 486 l 139 486 l 139 556 l 417 556 l 417 486 l 486 486 l 486 417 l 556 417 l 556 139 l 486 139 l 486 69 l 417 69 l 417 0 l 139 0 l 139 69 l 69 69 l 69 139 l 208 139 l 208 69 l 347 69 m 417 347 l 417 417 l 347 417 l 347 486 l 208 486 l 208 417 l 139 417 l 139 347 l 417 347 z "},"ə":{"ha":625,"x_min":0,"x_max":556,"o":"m 347 69 l 347 139 l 417 139 l 417 208 l 139 208 l 139 139 l 208 139 l 208 69 l 347 69 m 486 139 l 486 69 l 417 69 l 417 0 l 139 0 l 139 69 l 69 69 l 69 139 l 0 139 l 0 278 l 417 278 l 417 417 l 347 417 l 347 486 l 208 486 l 208 417 l 69 417 l 69 486 l 139 486 l 139 556 l 417 556 l 417 486 l 486 486 l 486 417 l 556 417 l 556 139 l 486 139 z "},"ɚ":{"ha":833,"x_min":0,"x_max":764,"o":"m 347 69 l 347 139 l 417 139 l 417 208 l 139 208 l 139 139 l 208 139 l 208 69 l 347 69 m 694 139 l 764 139 l 764 69 l 625 69 l 625 139 l 486 139 l 486 69 l 417 69 l 417 0 l 139 0 l 139 69 l 69 69 l 69 139 l 0 139 l 0 278 l 417 278 l 417 417 l 347 417 l 347 486 l 208 486 l 208 417 l 69 417 l 69 486 l 139 486 l 139 556 l 417 556 l 417 486 l 486 486 l 486 417 l 556 417 l 556 347 l 694 347 l 694 139 z "},"ɛ":{"ha":556,"x_min":0,"x_max":486,"o":"m 347 69 l 347 139 l 486 139 l 486 69 l 417 69 l 417 0 l 69 0 l 69 69 l 0 69 l 0 278 l 69 278 l 69 347 l 0 347 l 0 486 l 69 486 l 69 556 l 417 556 l 417 486 l 486 486 l 486 417 l 347 417 l 347 486 l 139 486 l 139 347 l 417 347 l 417 278 l 139 278 l 139 69 l 347 69 z "},"ɜ":{"ha":556,"x_min":0,"x_max":486,"o":"m 347 69 l 347 278 l 69 278 l 69 347 l 347 347 l 347 486 l 139 486 l 139 417 l 0 417 l 0 486 l 69 486 l 69 556 l 417 556 l 417 486 l 486 486 l 486 347 l 417 347 l 417 278 l 486 278 l 486 69 l 417 69 l 417 0 l 69 0 l 69 69 l 0 69 l 0 139 l 139 139 l 139 69 l 347 69 z "},"ɝ":{"ha":764,"x_min":0,"x_max":694,"o":"m 347 69 l 347 278 l 69 278 l 69 347 l 347 347 l 347 486 l 139 486 l 139 417 l 0 417 l 0 486 l 69 486 l 69 556 l 417 556 l 417 486 l 625 486 l 625 278 l 694 278 l 694 208 l 556 208 l 556 278 l 486 278 l 486 347 l 417 347 l 417 278 l 486 278 l 486 69 l 417 69 l 417 0 l 69 0 l 69 69 l 0 69 l 0 139 l 139 139 l 139 69 l 347 69 z "},"ɞ":{"ha":694,"x_min":0,"x_max":625,"o":"m 625 347 l 556 347 l 556 278 l 625 278 l 625 69 l 556 69 l 556 0 l 208 0 l 208 69 l 139 69 l 139 139 l 69 139 l 69 208 l 0 208 l 0 347 l 69 347 l 69 417 l 139 417 l 139 486 l 208 486 l 208 556 l 556 556 l 556 486 l 625 486 l 625 347 m 486 278 l 208 278 l 208 347 l 486 347 l 486 486 l 278 486 l 278 417 l 208 417 l 208 347 l 139 347 l 139 208 l 208 208 l 208 139 l 278 139 l 278 69 l 486 69 l 486 278 z "},"ɟ":{"ha":347,"x_min":-139,"x_max":278,"o":"m 0 0 l 0 69 l 69 69 l 69 486 l 0 486 l 0 556 l 278 556 l 278 486 l 208 486 l 208 69 l 278 69 l 278 0 l 208 0 l 208 -139 l 139 -139 l 139 -208 l 69 -208 l 69 -278 l -139 -278 l -139 -208 l 0 -208 l 0 -139 l 69 -139 l 69 0 l 0 0 z "},"ɠ":{"ha":694,"x_min":0,"x_max":764,"o":"m 347 69 l 347 139 l 417 139 l 417 417 l 347 417 l 347 486 l 208 486 l 208 417 l 139 417 l 139 139 l 208 139 l 208 69 l 347 69 m 764 764 l 625 764 l 625 694 l 556 694 l 556 -139 l 486 -139 l 486 -208 l 417 -208 l 417 -278 l 139 -278 l 139 -208 l 347 -208 l 347 -139 l 417 -139 l 417 0 l 139 0 l 139 69 l 69 69 l 69 139 l 0 139 l 0 417 l 69 417 l 69 486 l 139 486 l 139 556 l 417 556 l 417 694 l 486 694 l 486 764 l 556 764 l 556 833 l 764 833 l 764 764 z "},"ɡ":{"ha":694,"x_min":0,"x_max":625,"o":"m 625 347 l 625 278 l 556 278 l 556 -139 l 486 -139 l 486 -208 l 417 -208 l 417 -278 l 139 -278 l 139 -208 l 69 -208 l 69 -69 l 139 -69 l 139 69 l 69 69 l 69 139 l 0 139 l 0 347 l 69 347 l 69 417 l 139 417 l 139 486 l 208 486 l 208 556 l 625 556 l 625 486 l 556 486 l 556 347 l 625 347 m 417 208 l 417 417 l 347 417 l 347 486 l 278 486 l 278 417 l 208 417 l 208 347 l 139 347 l 139 139 l 208 139 l 208 69 l 278 69 l 278 139 l 347 139 l 347 208 l 417 208 m 278 0 l 278 -69 l 208 -69 l 208 -208 l 347 -208 l 347 -139 l 417 -139 l 417 69 l 347 69 l 347 0 l 278 0 z "},"ɢ":{"ha":625,"x_min":0,"x_max":556,"o":"m 347 69 l 347 139 l 417 139 l 417 278 l 278 278 l 278 347 l 556 347 l 556 0 l 139 0 l 139 69 l 69 69 l 69 139 l 0 139 l 0 417 l 69 417 l 69 486 l 139 486 l 139 556 l 556 556 l 556 417 l 347 417 l 347 486 l 208 486 l 208 417 l 139 417 l 139 139 l 208 139 l 208 69 l 347 69 z "},"ɣ":{"ha":625,"x_min":0,"x_max":556,"o":"m 417 347 l 417 139 l 347 139 l 347 0 l 417 0 l 417 -69 l 347 -69 l 347 -139 l 208 -139 l 208 -69 l 139 -69 l 139 0 l 208 0 l 208 139 l 139 139 l 139 347 l 69 347 l 69 486 l 0 486 l 0 556 l 556 556 l 556 486 l 486 486 l 486 347 l 417 347 m 208 347 l 347 347 l 347 486 l 208 486 l 208 347 z "},"ɤ":{"ha":625,"x_min":0,"x_max":556,"o":"m 347 69 l 347 0 l 208 0 l 208 69 l 139 69 l 139 417 l 208 417 l 208 486 l 139 486 l 139 417 l 0 417 l 0 486 l 69 486 l 69 556 l 486 556 l 486 486 l 556 486 l 556 417 l 417 417 l 417 486 l 347 486 l 347 417 l 417 417 l 417 69 l 347 69 z "},"ɥ":{"ha":694,"x_min":0,"x_max":625,"o":"m 347 69 l 347 139 l 417 139 l 417 486 l 347 486 l 347 556 l 625 556 l 625 486 l 556 486 l 556 -208 l 625 -208 l 625 -278 l 417 -278 l 417 0 l 208 0 l 208 69 l 139 69 l 139 139 l 69 139 l 69 486 l 0 486 l 0 556 l 278 556 l 278 486 l 208 486 l 208 139 l 278 139 l 278 69 l 347 69 z "},"ɦ":{"ha":694,"x_min":0,"x_max":625,"o":"m 347 69 l 417 69 l 417 417 l 347 417 l 347 486 l 278 486 l 278 417 l 208 417 l 208 69 l 278 69 l 278 0 l 0 0 l 0 69 l 69 69 l 69 694 l 139 694 l 139 764 l 208 764 l 208 833 l 486 833 l 486 764 l 278 764 l 278 694 l 208 694 l 208 556 l 417 556 l 417 486 l 486 486 l 486 417 l 556 417 l 556 69 l 625 69 l 625 0 l 347 0 l 347 69 z "},"ɧ":{"ha":694,"x_min":0,"x_max":556,"o":"m 0 0 l 0 69 l 69 69 l 69 694 l 139 694 l 139 764 l 208 764 l 208 833 l 486 833 l 486 764 l 278 764 l 278 694 l 208 694 l 208 556 l 417 556 l 417 486 l 486 486 l 486 417 l 556 417 l 556 -139 l 486 -139 l 486 -208 l 417 -208 l 417 -278 l 139 -278 l 139 -208 l 347 -208 l 347 -139 l 417 -139 l 417 417 l 347 417 l 347 486 l 278 486 l 278 417 l 208 417 l 208 69 l 278 69 l 278 0 l 0 0 z "},"ɨ":{"ha":347,"x_min":0,"x_max":278,"o":"m 69 833 l 208 833 l 208 694 l 69 694 l 69 833 m 0 0 l 0 69 l 69 69 l 69 278 l 0 278 l 0 347 l 69 347 l 69 486 l 0 486 l 0 556 l 208 556 l 208 347 l 278 347 l 278 278 l 208 278 l 208 69 l 278 69 l 278 0 l 0 0 z "},"ɩ":{"ha":347,"x_min":0,"x_max":278,"o":"m 69 0 l 69 486 l 0 486 l 0 556 l 208 556 l 208 69 l 278 69 l 278 0 l 69 0 z "},"ɪ":{"ha":347,"x_min":0,"x_max":278,"o":"m 0 0 l 0 69 l 69 69 l 69 486 l 0 486 l 0 556 l 278 556 l 278 486 l 208 486 l 208 69 l 278 69 l 278 0 l 0 0 z "},"ɫ":{"ha":347,"x_min":-69,"x_max":347,"o":"m 0 0 l 0 69 l 69 69 l 69 347 l -69 347 l -69 417 l 0 417 l 0 486 l 69 486 l 69 764 l 0 764 l 0 833 l 208 833 l 208 486 l 347 486 l 347 417 l 278 417 l 278 347 l 208 347 l 208 69 l 278 69 l 278 0 l 0 0 z "},"ɬ":{"ha":347,"x_min":-69,"x_max":278,"o":"m 0 0 l 0 69 l 69 69 l 69 278 l 0 278 l 0 347 l -69 347 l -69 417 l 0 417 l 0 486 l 69 486 l 69 764 l 0 764 l 0 833 l 208 833 l 208 347 l 278 347 l 278 278 l 208 278 l 208 69 l 278 69 l 278 0 l 0 0 z "},"ɭ":{"ha":347,"x_min":0,"x_max":417,"o":"m 0 764 l 0 833 l 208 833 l 208 -139 l 278 -139 l 278 -208 l 417 -208 l 417 -278 l 208 -278 l 208 -208 l 139 -208 l 139 -139 l 69 -139 l 69 764 l 0 764 z "},"ɮ":{"ha":694,"x_min":0,"x_max":625,"o":"m 0 0 l 0 69 l 69 69 l 69 764 l 0 764 l 0 833 l 208 833 l 208 556 l 625 556 l 625 486 l 556 486 l 556 417 l 486 417 l 486 347 l 417 347 l 417 278 l 486 278 l 486 208 l 556 208 l 556 139 l 625 139 l 625 -139 l 556 -139 l 556 -208 l 486 -208 l 486 -278 l 208 -278 l 208 -208 l 417 -208 l 417 -139 l 486 -139 l 486 139 l 417 139 l 417 208 l 208 208 l 208 69 l 278 69 l 278 0 l 0 0 m 417 417 l 417 486 l 208 486 l 208 278 l 278 278 l 278 347 l 347 347 l 347 417 l 417 417 z "},"ɯ":{"ha":1042,"x_min":0,"x_max":972,"o":"m 694 139 l 764 139 l 764 486 l 694 486 l 694 556 l 903 556 l 903 69 l 972 69 l 972 0 l 556 0 l 556 69 l 417 69 l 417 0 l 208 0 l 208 69 l 139 69 l 139 139 l 69 139 l 69 486 l 0 486 l 0 556 l 208 556 l 208 139 l 278 139 l 278 69 l 347 69 l 347 139 l 417 139 l 417 486 l 347 486 l 347 556 l 556 556 l 556 139 l 625 139 l 625 69 l 694 69 l 694 139 z "},"ɰ":{"ha":1042,"x_min":0,"x_max":972,"o":"m 694 139 l 764 139 l 764 486 l 694 486 l 694 556 l 903 556 l 903 -208 l 972 -208 l 972 -278 l 764 -278 l 764 0 l 556 0 l 556 69 l 417 69 l 417 0 l 208 0 l 208 69 l 139 69 l 139 139 l 69 139 l 69 486 l 0 486 l 0 556 l 208 556 l 208 139 l 278 139 l 278 69 l 347 69 l 347 139 l 417 139 l 417 486 l 347 486 l 347 556 l 556 556 l 556 139 l 625 139 l 625 69 l 694 69 l 694 139 z "},"ɱ":{"ha":972,"x_min":0,"x_max":903,"o":"m 764 -278 l 486 -278 l 486 -208 l 694 -208 l 694 -139 l 764 -139 l 764 417 l 694 417 l 694 486 l 625 486 l 625 417 l 556 417 l 556 69 l 625 69 l 625 0 l 347 0 l 347 69 l 417 69 l 417 417 l 347 417 l 347 486 l 278 486 l 278 417 l 208 417 l 208 69 l 278 69 l 278 0 l 0 0 l 0 69 l 69 69 l 69 486 l 0 486 l 0 556 l 417 556 l 417 486 l 556 486 l 556 556 l 764 556 l 764 486 l 833 486 l 833 417 l 903 417 l 903 -139 l 833 -139 l 833 -208 l 764 -208 l 764 -278 z "},"ɲ":{"ha":694,"x_min":-139,"x_max":625,"o":"m 347 69 l 417 69 l 417 417 l 347 417 l 347 486 l 278 486 l 278 417 l 208 417 l 208 -139 l 139 -139 l 139 -208 l 69 -208 l 69 -278 l -139 -278 l -139 -208 l 0 -208 l 0 -139 l 69 -139 l 69 486 l 0 486 l 0 556 l 417 556 l 417 486 l 486 486 l 486 417 l 556 417 l 556 69 l 625 69 l 625 0 l 347 0 l 347 69 z "},"ɳ":{"ha":625,"x_min":0,"x_max":764,"o":"m 764 -278 l 556 -278 l 556 -208 l 486 -208 l 486 -139 l 417 -139 l 417 417 l 347 417 l 347 486 l 278 486 l 278 417 l 208 417 l 208 69 l 278 69 l 278 0 l 0 0 l 0 69 l 69 69 l 69 486 l 0 486 l 0 556 l 417 556 l 417 486 l 486 486 l 486 417 l 556 417 l 556 -139 l 625 -139 l 625 -208 l 764 -208 l 764 -278 z "},"ɴ":{"ha":694,"x_min":0,"x_max":625,"o":"m 347 69 l 347 139 l 278 139 l 278 278 l 208 278 l 208 69 l 278 69 l 278 0 l 0 0 l 0 69 l 69 69 l 69 486 l 0 486 l 0 556 l 208 556 l 208 486 l 278 486 l 278 417 l 347 417 l 347 278 l 417 278 l 417 486 l 347 486 l 347 556 l 625 556 l 625 486 l 556 486 l 556 0 l 417 0 l 417 69 l 347 69 z "},"ɵ":{"ha":625,"x_min":0,"x_max":556,"o":"m 347 69 l 347 139 l 417 139 l 417 278 l 139 278 l 139 139 l 208 139 l 208 69 l 347 69 m 417 347 l 417 417 l 347 417 l 347 486 l 208 486 l 208 417 l 139 417 l 139 347 l 417 347 m 486 139 l 486 69 l 417 69 l 417 0 l 139 0 l 139 69 l 69 69 l 69 139 l 0 139 l 0 417 l 69 417 l 69 486 l 139 486 l 139 556 l 417 556 l 417 486 l 486 486 l 486 417 l 556 417 l 556 139 l 486 139 z "},"ɶ":{"ha":833,"x_min":0,"x_max":764,"o":"m 764 0 l 139 0 l 139 69 l 69 69 l 69 139 l 0 139 l 0 417 l 69 417 l 69 486 l 139 486 l 139 556 l 764 556 l 764 417 l 625 417 l 625 486 l 417 486 l 417 347 l 486 347 l 486 417 l 625 417 l 625 208 l 486 208 l 486 278 l 417 278 l 417 69 l 625 69 l 625 139 l 764 139 l 764 0 m 278 486 l 208 486 l 208 417 l 139 417 l 139 139 l 208 139 l 208 69 l 278 69 l 278 486 z "},"ɷ":{"ha":764,"x_min":0,"x_max":694,"o":"m 625 347 l 694 347 l 694 69 l 625 69 l 625 0 l 69 0 l 69 69 l 0 69 l 0 347 l 69 347 l 69 417 l 139 417 l 139 486 l 208 486 l 208 556 l 486 556 l 486 486 l 556 486 l 556 417 l 625 417 l 625 347 m 417 347 l 417 69 l 556 69 l 556 347 l 486 347 l 486 417 l 417 417 l 417 486 l 278 486 l 278 417 l 208 417 l 208 347 l 139 347 l 139 69 l 278 69 l 278 347 l 417 347 z "},"ɸ":{"ha":625,"x_min":0,"x_max":556,"o":"m 486 139 l 486 69 l 417 69 l 417 0 l 347 0 l 347 -69 l 417 -69 l 417 -139 l 139 -139 l 139 -69 l 208 -69 l 208 0 l 139 0 l 139 69 l 69 69 l 69 139 l 0 139 l 0 417 l 69 417 l 69 486 l 139 486 l 139 556 l 208 556 l 208 625 l 139 625 l 139 694 l 417 694 l 417 625 l 347 625 l 347 556 l 417 556 l 417 486 l 486 486 l 486 417 l 556 417 l 556 139 l 486 139 m 417 417 l 347 417 l 347 139 l 417 139 l 417 417 m 208 417 l 139 417 l 139 139 l 208 139 l 208 417 z "},"ɹ":{"ha":625,"x_min":0,"x_max":556,"o":"m 347 486 l 278 486 l 278 556 l 556 556 l 556 486 l 486 486 l 486 69 l 556 69 l 556 0 l 69 0 l 69 69 l 0 69 l 0 139 l 139 139 l 139 69 l 278 69 l 278 139 l 347 139 l 347 486 z "},"ɺ":{"ha":625,"x_min":0,"x_max":556,"o":"m 69 0 l 69 69 l 0 69 l 0 139 l 139 139 l 139 69 l 278 69 l 278 139 l 347 139 l 347 764 l 278 764 l 278 833 l 556 833 l 556 764 l 486 764 l 486 69 l 556 69 l 556 0 l 69 0 z "},"ɻ":{"ha":625,"x_min":0,"x_max":694,"o":"m 486 -139 l 556 -139 l 556 -208 l 694 -208 l 694 -278 l 486 -278 l 486 -208 l 417 -208 l 417 -139 l 347 -139 l 347 0 l 69 0 l 69 69 l 0 69 l 0 139 l 139 139 l 139 69 l 278 69 l 278 139 l 347 139 l 347 486 l 278 486 l 278 556 l 556 556 l 556 486 l 486 486 l 486 -139 z "},"ɼ":{"ha":625,"x_min":0,"x_max":556,"o":"m 0 -278 l 0 -208 l 69 -208 l 69 486 l 0 486 l 0 556 l 486 556 l 486 486 l 556 486 l 556 417 l 417 417 l 417 486 l 278 486 l 278 417 l 208 417 l 208 -208 l 278 -208 l 278 -278 l 0 -278 z "},"ɽ":{"ha":625,"x_min":0,"x_max":556,"o":"m 278 486 l 278 417 l 208 417 l 208 -139 l 278 -139 l 278 -208 l 417 -208 l 417 -278 l 208 -278 l 208 -208 l 139 -208 l 139 -139 l 69 -139 l 69 486 l 0 486 l 0 556 l 486 556 l 486 486 l 556 486 l 556 417 l 417 417 l 417 486 l 278 486 z "},"ɾ":{"ha":625,"x_min":0,"x_max":556,"o":"m 0 0 l 0 69 l 69 69 l 69 417 l 139 417 l 139 486 l 208 486 l 208 556 l 486 556 l 486 486 l 556 486 l 556 417 l 417 417 l 417 486 l 278 486 l 278 417 l 208 417 l 208 69 l 278 69 l 278 0 l 0 0 z "},"ɿ":{"ha":625,"x_min":0,"x_max":556,"o":"m 347 69 l 347 417 l 278 417 l 278 486 l 139 486 l 139 417 l 0 417 l 0 486 l 69 486 l 69 556 l 347 556 l 347 486 l 417 486 l 417 417 l 486 417 l 486 69 l 556 69 l 556 0 l 278 0 l 278 69 l 347 69 z "},"ʀ":{"ha":625,"x_min":0,"x_max":556,"o":"m 347 69 l 278 69 l 278 139 l 208 139 l 208 69 l 278 69 l 278 0 l 0 0 l 0 69 l 69 69 l 69 486 l 0 486 l 0 556 l 486 556 l 486 486 l 556 486 l 556 278 l 486 278 l 486 208 l 347 208 l 347 139 l 417 139 l 417 69 l 556 69 l 556 0 l 347 0 l 347 69 m 417 278 l 417 486 l 208 486 l 208 278 l 417 278 z "},"ʁ":{"ha":625,"x_min":0,"x_max":556,"o":"m 0 0 l 0 69 l 69 69 l 69 486 l 0 486 l 0 556 l 278 556 l 278 486 l 208 486 l 208 417 l 278 417 l 278 486 l 347 486 l 347 556 l 556 556 l 556 486 l 417 486 l 417 417 l 347 417 l 347 347 l 486 347 l 486 278 l 556 278 l 556 69 l 486 69 l 486 0 l 0 0 m 417 69 l 417 278 l 208 278 l 208 69 l 417 69 z "},"ʂ":{"ha":556,"x_min":0,"x_max":486,"o":"m 347 69 l 347 208 l 208 208 l 208 278 l 69 278 l 69 347 l 0 347 l 0 486 l 69 486 l 69 556 l 486 556 l 486 347 l 347 347 l 347 417 l 278 417 l 278 486 l 139 486 l 139 347 l 278 347 l 278 278 l 417 278 l 417 208 l 486 208 l 486 69 l 417 69 l 417 0 l 139 0 l 139 -139 l 208 -139 l 208 -208 l 417 -208 l 417 -278 l 139 -278 l 139 -208 l 69 -208 l 69 -139 l 0 -139 l 0 208 l 139 208 l 139 139 l 208 139 l 208 69 l 347 69 z "},"ʃ":{"ha":347,"x_min":-139,"x_max":417,"o":"m 69 -278 l -139 -278 l -139 -208 l 0 -208 l 0 -139 l 69 -139 l 69 694 l 139 694 l 139 764 l 208 764 l 208 833 l 417 833 l 417 764 l 278 764 l 278 694 l 208 694 l 208 -139 l 139 -139 l 139 -208 l 69 -208 l 69 -278 z "},"ʄ":{"ha":347,"x_min":-139,"x_max":417,"o":"m 0 0 l 0 69 l 69 69 l 69 694 l 139 694 l 139 764 l 208 764 l 208 833 l 417 833 l 417 764 l 278 764 l 278 694 l 208 694 l 208 69 l 278 69 l 278 0 l 208 0 l 208 -139 l 139 -139 l 139 -208 l 69 -208 l 69 -278 l -139 -278 l -139 -208 l 0 -208 l 0 -139 l 69 -139 l 69 0 l 0 0 z "},"ʅ":{"ha":486,"x_min":-139,"x_max":417,"o":"m 69 833 l 69 764 l 139 764 l 139 694 l 208 694 l 208 139 l 278 139 l 278 69 l 417 69 l 417 0 l 208 0 l 208 69 l 139 69 l 139 139 l 69 139 l 69 694 l 0 694 l 0 764 l -139 764 l -139 833 l 69 833 z "},"ʆ":{"ha":347,"x_min":-208,"x_max":417,"o":"m 69 -69 l 69 694 l 139 694 l 139 764 l 208 764 l 208 833 l 417 833 l 417 764 l 278 764 l 278 694 l 208 694 l 208 -139 l 139 -139 l 139 -208 l 208 -208 l 208 -278 l 278 -278 l 278 -347 l 139 -347 l 139 -278 l -139 -278 l -139 -208 l -208 -208 l -208 -139 l -139 -139 l -139 -69 l 69 -69 m -69 -208 l 0 -208 l 0 -139 l -69 -139 l -69 -208 z "},"ʇ":{"ha":347,"x_min":-69,"x_max":278,"o":"m 0 0 l 0 69 l 69 69 l 69 486 l -69 486 l -69 556 l 139 556 l 139 486 l 208 486 l 208 69 l 278 69 l 278 0 l 208 0 l 208 -278 l 69 -278 l 69 0 l 0 0 z "},"ʈ":{"ha":347,"x_min":0,"x_max":417,"o":"m 69 833 l 208 833 l 208 556 l 278 556 l 278 486 l 208 486 l 208 -139 l 278 -139 l 278 -208 l 417 -208 l 417 -278 l 208 -278 l 208 -208 l 139 -208 l 139 -139 l 69 -139 l 69 486 l 0 486 l 0 556 l 69 556 l 69 833 z "},"ʉ":{"ha":694,"x_min":0,"x_max":625,"o":"m 347 69 l 347 139 l 417 139 l 417 278 l 208 278 l 208 139 l 278 139 l 278 69 l 347 69 m 625 347 l 625 278 l 556 278 l 556 69 l 625 69 l 625 0 l 208 0 l 208 69 l 139 69 l 139 139 l 69 139 l 69 278 l 0 278 l 0 347 l 69 347 l 69 486 l 0 486 l 0 556 l 208 556 l 208 347 l 417 347 l 417 486 l 347 486 l 347 556 l 556 556 l 556 347 l 625 347 z "},"ʊ":{"ha":694,"x_min":0,"x_max":625,"o":"m 347 69 l 347 139 l 417 139 l 417 347 l 347 347 l 347 556 l 625 556 l 625 486 l 486 486 l 486 347 l 556 347 l 556 139 l 486 139 l 486 69 l 417 69 l 417 0 l 208 0 l 208 69 l 139 69 l 139 139 l 69 139 l 69 347 l 139 347 l 139 486 l 0 486 l 0 556 l 278 556 l 278 347 l 208 347 l 208 139 l 278 139 l 278 69 l 347 69 z "},"ʋ":{"ha":625,"x_min":0,"x_max":556,"o":"m 347 69 l 347 139 l 417 139 l 417 417 l 347 417 l 347 486 l 278 486 l 278 556 l 417 556 l 417 486 l 486 486 l 486 417 l 556 417 l 556 139 l 486 139 l 486 69 l 417 69 l 417 0 l 208 0 l 208 69 l 139 69 l 139 139 l 69 139 l 69 486 l 0 486 l 0 556 l 208 556 l 208 139 l 278 139 l 278 69 l 347 69 z "},"ʌ":{"ha":625,"x_min":0,"x_max":556,"o":"m 347 69 l 347 208 l 208 208 l 208 69 l 347 69 m 0 0 l 0 69 l 69 69 l 69 208 l 139 208 l 139 417 l 208 417 l 208 556 l 347 556 l 347 417 l 417 417 l 417 208 l 486 208 l 486 69 l 556 69 l 556 0 l 0 0 z "},"ʍ":{"ha":764,"x_min":0,"x_max":694,"o":"m 0 0 l 0 69 l 69 69 l 69 208 l 139 208 l 139 417 l 208 417 l 208 556 l 486 556 l 486 417 l 556 417 l 556 208 l 625 208 l 625 69 l 694 69 l 694 0 l 417 0 l 417 69 l 486 69 l 486 208 l 208 208 l 208 69 l 278 69 l 278 0 l 0 0 z "},"ʎ":{"ha":625,"x_min":0,"x_max":556,"o":"m 347 69 l 347 208 l 208 208 l 208 69 l 347 69 m 0 0 l 0 69 l 69 69 l 69 208 l 139 208 l 139 417 l 208 417 l 208 556 l 278 556 l 278 694 l 347 694 l 347 764 l 417 764 l 417 833 l 556 833 l 556 764 l 486 764 l 486 694 l 417 694 l 417 556 l 347 556 l 347 417 l 417 417 l 417 208 l 486 208 l 486 69 l 556 69 l 556 0 l 0 0 z "},"ʏ":{"ha":625,"x_min":0,"x_max":556,"o":"m 347 69 l 417 69 l 417 0 l 139 0 l 139 69 l 208 69 l 208 278 l 139 278 l 139 417 l 69 417 l 69 486 l 0 486 l 0 556 l 556 556 l 556 486 l 486 486 l 486 417 l 417 417 l 417 278 l 347 278 l 347 69 m 347 486 l 208 486 l 208 417 l 347 417 l 347 486 z "},"ʐ":{"ha":556,"x_min":0,"x_max":694,"o":"m 347 69 l 347 139 l 486 139 l 486 -139 l 556 -139 l 556 -208 l 694 -208 l 694 -278 l 486 -278 l 486 -208 l 417 -208 l 417 -139 l 347 -139 l 347 0 l 0 0 l 0 139 l 69 139 l 69 208 l 139 208 l 139 278 l 208 278 l 208 347 l 278 347 l 278 417 l 347 417 l 347 486 l 139 486 l 139 417 l 0 417 l 0 556 l 486 556 l 486 417 l 417 417 l 417 347 l 347 347 l 347 278 l 278 278 l 278 208 l 208 208 l 208 139 l 139 139 l 139 69 l 347 69 z "},"ʑ":{"ha":556,"x_min":0,"x_max":486,"o":"m 0 0 l 0 139 l 69 139 l 69 208 l 139 208 l 139 278 l 208 278 l 208 347 l 278 347 l 278 417 l 347 417 l 347 486 l 139 486 l 139 417 l 0 417 l 0 556 l 486 556 l 486 417 l 417 417 l 417 347 l 347 347 l 347 278 l 278 278 l 278 208 l 208 208 l 208 139 l 139 139 l 139 69 l 208 69 l 208 139 l 278 139 l 278 208 l 417 208 l 417 139 l 486 139 l 486 69 l 417 69 l 417 0 l 278 0 l 278 -69 l 208 -69 l 208 -139 l 69 -139 l 69 -69 l 139 -69 l 139 0 l 0 0 z "},"ʒ":{"ha":556,"x_min":0,"x_max":486,"o":"m 347 69 l 278 69 l 278 139 l 69 139 l 69 208 l 139 208 l 139 278 l 208 278 l 208 347 l 278 347 l 278 417 l 347 417 l 347 486 l 139 486 l 139 417 l 0 417 l 0 556 l 486 556 l 486 417 l 417 417 l 417 347 l 347 347 l 347 278 l 278 278 l 278 208 l 347 208 l 347 139 l 417 139 l 417 69 l 486 69 l 486 -139 l 417 -139 l 417 -208 l 347 -208 l 347 -278 l 69 -278 l 69 -208 l 0 -208 l 0 -139 l 139 -139 l 139 -208 l 278 -208 l 278 -139 l 347 -139 l 347 69 z "},"ʓ":{"ha":556,"x_min":0,"x_max":486,"o":"m 486 556 l 486 417 l 417 417 l 417 347 l 347 347 l 347 278 l 278 278 l 278 208 l 347 208 l 347 139 l 417 139 l 417 69 l 486 69 l 486 -139 l 417 -139 l 417 -208 l 347 -208 l 347 -347 l 417 -347 l 417 -417 l 278 -417 l 278 -347 l 208 -347 l 208 -278 l 69 -278 l 69 -208 l 0 -208 l 0 -139 l 69 -139 l 69 -69 l 208 -69 l 208 -139 l 347 -139 l 347 69 l 278 69 l 278 139 l 69 139 l 69 208 l 139 208 l 139 278 l 208 278 l 208 347 l 278 347 l 278 417 l 347 417 l 347 486 l 139 486 l 139 417 l 0 417 l 0 556 l 486 556 z "},"ʔ":{"ha":625,"x_min":0,"x_max":556,"o":"m 347 69 l 417 69 l 417 0 l 139 0 l 139 69 l 208 69 l 208 347 l 278 347 l 278 417 l 347 417 l 347 486 l 417 486 l 417 625 l 347 625 l 347 694 l 208 694 l 208 625 l 139 625 l 139 556 l 0 556 l 0 625 l 69 625 l 69 694 l 139 694 l 139 764 l 417 764 l 417 694 l 486 694 l 486 625 l 556 625 l 556 486 l 486 486 l 486 417 l 417 417 l 417 347 l 347 347 l 347 69 z "},"ʕ":{"ha":625,"x_min":0,"x_max":556,"o":"m 347 69 l 417 69 l 417 0 l 139 0 l 139 69 l 208 69 l 208 347 l 139 347 l 139 417 l 69 417 l 69 486 l 0 486 l 0 625 l 69 625 l 69 694 l 139 694 l 139 764 l 417 764 l 417 694 l 486 694 l 486 625 l 556 625 l 556 556 l 417 556 l 417 625 l 347 625 l 347 694 l 208 694 l 208 625 l 139 625 l 139 486 l 208 486 l 208 417 l 278 417 l 278 347 l 347 347 l 347 69 z "},"ʖ":{"ha":625,"x_min":0,"x_max":556,"o":"m 347 69 l 347 139 l 417 139 l 417 278 l 347 278 l 347 347 l 278 347 l 278 417 l 208 417 l 208 694 l 139 694 l 139 764 l 417 764 l 417 694 l 347 694 l 347 417 l 417 417 l 417 347 l 486 347 l 486 278 l 556 278 l 556 139 l 486 139 l 486 69 l 417 69 l 417 0 l 139 0 l 139 69 l 69 69 l 69 139 l 0 139 l 0 208 l 139 208 l 139 139 l 208 139 l 208 69 l 347 69 z "},"ʗ":{"ha":625,"x_min":0,"x_max":556,"o":"m 417 347 l 417 417 l 347 417 l 347 486 l 208 486 l 208 417 l 139 417 l 139 -139 l 208 -139 l 208 -208 l 347 -208 l 347 -139 l 417 -139 l 417 -69 l 556 -69 l 556 -139 l 486 -139 l 486 -208 l 417 -208 l 417 -278 l 139 -278 l 139 -208 l 69 -208 l 69 -139 l 0 -139 l 0 417 l 69 417 l 69 486 l 139 486 l 139 556 l 556 556 l 556 347 l 417 347 z "},"ʘ":{"ha":625,"x_min":0,"x_max":556,"o":"m 347 69 l 347 139 l 417 139 l 417 208 l 347 208 l 347 139 l 208 139 l 208 208 l 139 208 l 139 139 l 208 139 l 208 69 l 347 69 m 417 347 l 417 417 l 347 417 l 347 486 l 208 486 l 208 417 l 139 417 l 139 347 l 208 347 l 208 417 l 347 417 l 347 347 l 417 347 m 486 139 l 486 69 l 417 69 l 417 0 l 139 0 l 139 69 l 69 69 l 69 139 l 0 139 l 0 417 l 69 417 l 69 486 l 139 486 l 139 556 l 417 556 l 417 486 l 486 486 l 486 417 l 556 417 l 556 139 l 486 139 z "},"ʙ":{"ha":625,"x_min":0,"x_max":556,"o":"m 0 0 l 0 69 l 69 69 l 69 486 l 0 486 l 0 556 l 486 556 l 486 486 l 556 486 l 556 347 l 486 347 l 486 278 l 556 278 l 556 69 l 486 69 l 486 0 l 0 0 m 417 347 l 417 486 l 208 486 l 208 347 l 417 347 m 417 278 l 208 278 l 208 69 l 417 69 l 417 278 z "},"ʚ":{"ha":694,"x_min":0,"x_max":625,"o":"m 347 69 l 347 139 l 417 139 l 417 208 l 486 208 l 486 347 l 417 347 l 417 417 l 347 417 l 347 486 l 139 486 l 139 347 l 417 347 l 417 278 l 139 278 l 139 69 l 347 69 m 625 347 l 625 208 l 556 208 l 556 139 l 486 139 l 486 69 l 417 69 l 417 0 l 69 0 l 69 69 l 0 69 l 0 278 l 69 278 l 69 347 l 0 347 l 0 486 l 69 486 l 69 556 l 417 556 l 417 486 l 486 486 l 486 417 l 556 417 l 556 347 l 625 347 z "},"ʛ":{"ha":625,"x_min":0,"x_max":764,"o":"m 347 69 l 347 139 l 417 139 l 417 278 l 278 278 l 278 347 l 556 347 l 556 0 l 139 0 l 139 69 l 69 69 l 69 139 l 0 139 l 0 417 l 69 417 l 69 486 l 139 486 l 139 556 l 417 556 l 417 694 l 486 694 l 486 764 l 556 764 l 556 833 l 764 833 l 764 764 l 625 764 l 625 694 l 556 694 l 556 417 l 347 417 l 347 486 l 208 486 l 208 417 l 139 417 l 139 139 l 208 139 l 208 69 l 347 69 z "},"ʜ":{"ha":694,"x_min":0,"x_max":625,"o":"m 347 69 l 417 69 l 417 278 l 208 278 l 208 69 l 278 69 l 278 0 l 0 0 l 0 69 l 69 69 l 69 486 l 0 486 l 0 556 l 278 556 l 278 486 l 208 486 l 208 347 l 417 347 l 417 486 l 347 486 l 347 556 l 625 556 l 625 486 l 556 486 l 556 69 l 625 69 l 625 0 l 347 0 l 347 69 z "},"ʝ":{"ha":278,"x_min":-208,"x_max":278,"o":"m 69 833 l 208 833 l 208 694 l 69 694 l 69 833 m 69 -69 l 69 486 l 0 486 l 0 556 l 208 556 l 208 -139 l 139 -139 l 139 -208 l 208 -208 l 208 -278 l 278 -278 l 278 -347 l 139 -347 l 139 -278 l -139 -278 l -139 -208 l -208 -208 l -208 -139 l -139 -139 l -139 -69 l 69 -69 m -69 -208 l 0 -208 l 0 -139 l -69 -139 l -69 -208 z "},"ʞ":{"ha":694,"x_min":0,"x_max":625,"o":"m 347 69 l 347 0 l 69 0 l 69 69 l 139 69 l 139 139 l 208 139 l 208 208 l 278 208 l 278 278 l 208 278 l 208 347 l 139 347 l 139 417 l 69 417 l 69 486 l 0 486 l 0 556 l 278 556 l 278 486 l 208 486 l 208 417 l 278 417 l 278 347 l 417 347 l 417 486 l 347 486 l 347 556 l 625 556 l 625 486 l 556 486 l 556 -208 l 625 -208 l 625 -278 l 417 -278 l 417 208 l 347 208 l 347 139 l 278 139 l 278 69 l 347 69 z "},"ʟ":{"ha":625,"x_min":0,"x_max":556,"o":"m 0 0 l 0 69 l 69 69 l 69 486 l 0 486 l 0 556 l 278 556 l 278 486 l 208 486 l 208 69 l 417 69 l 417 139 l 556 139 l 556 0 l 0 0 z "},"ʠ":{"ha":694,"x_min":0,"x_max":764,"o":"m 347 69 l 347 139 l 417 139 l 417 417 l 347 417 l 347 486 l 208 486 l 208 417 l 139 417 l 139 139 l 208 139 l 208 69 l 347 69 m 764 764 l 625 764 l 625 694 l 556 694 l 556 -208 l 625 -208 l 625 -278 l 347 -278 l 347 -208 l 417 -208 l 417 0 l 139 0 l 139 69 l 69 69 l 69 139 l 0 139 l 0 417 l 69 417 l 69 486 l 139 486 l 139 556 l 417 556 l 417 694 l 486 694 l 486 764 l 556 764 l 556 833 l 764 833 l 764 764 z "},"ʡ":{"ha":625,"x_min":0,"x_max":556,"o":"m 347 69 l 417 69 l 417 0 l 139 0 l 139 69 l 208 69 l 208 208 l 139 208 l 139 278 l 208 278 l 208 347 l 278 347 l 278 417 l 347 417 l 347 486 l 417 486 l 417 625 l 347 625 l 347 694 l 208 694 l 208 625 l 139 625 l 139 556 l 0 556 l 0 625 l 69 625 l 69 694 l 139 694 l 139 764 l 417 764 l 417 694 l 486 694 l 486 625 l 556 625 l 556 486 l 486 486 l 486 417 l 417 417 l 417 347 l 347 347 l 347 278 l 417 278 l 417 208 l 347 208 l 347 69 z "},"ʢ":{"ha":625,"x_min":0,"x_max":556,"o":"m 347 69 l 417 69 l 417 0 l 139 0 l 139 69 l 208 69 l 208 208 l 139 208 l 139 278 l 208 278 l 208 347 l 139 347 l 139 417 l 69 417 l 69 486 l 0 486 l 0 625 l 69 625 l 69 694 l 139 694 l 139 764 l 417 764 l 417 694 l 486 694 l 486 625 l 556 625 l 556 556 l 417 556 l 417 625 l 347 625 l 347 694 l 208 694 l 208 625 l 139 625 l 139 486 l 208 486 l 208 417 l 278 417 l 278 347 l 347 347 l 347 278 l 417 278 l 417 208 l 347 208 l 347 69 z "},"ʣ":{"ha":1111,"x_min":0,"x_max":1042,"o":"m 694 139 l 694 69 l 903 69 l 903 139 l 1042 139 l 1042 0 l 139 0 l 139 69 l 69 69 l 69 139 l 0 139 l 0 417 l 69 417 l 69 486 l 139 486 l 139 556 l 417 556 l 417 764 l 347 764 l 347 833 l 556 833 l 556 556 l 1042 556 l 1042 417 l 972 417 l 972 347 l 903 347 l 903 278 l 833 278 l 833 208 l 764 208 l 764 139 l 694 139 m 833 417 l 903 417 l 903 486 l 694 486 l 694 417 l 556 417 l 556 139 l 625 139 l 625 208 l 694 208 l 694 278 l 764 278 l 764 347 l 833 347 l 833 417 m 417 417 l 347 417 l 347 486 l 208 486 l 208 417 l 139 417 l 139 139 l 208 139 l 208 69 l 347 69 l 347 139 l 417 139 l 417 417 z "},"ʤ":{"ha":1111,"x_min":0,"x_max":1042,"o":"m 694 -139 l 694 -208 l 833 -208 l 833 -139 l 903 -139 l 903 69 l 833 69 l 833 139 l 625 139 l 625 208 l 694 208 l 694 278 l 764 278 l 764 347 l 833 347 l 833 417 l 903 417 l 903 486 l 694 486 l 694 417 l 556 417 l 556 69 l 625 69 l 625 0 l 139 0 l 139 69 l 69 69 l 69 139 l 0 139 l 0 417 l 69 417 l 69 486 l 139 486 l 139 556 l 417 556 l 417 764 l 347 764 l 347 833 l 556 833 l 556 556 l 1042 556 l 1042 417 l 972 417 l 972 347 l 903 347 l 903 278 l 833 278 l 833 208 l 903 208 l 903 139 l 972 139 l 972 69 l 1042 69 l 1042 -139 l 972 -139 l 972 -208 l 903 -208 l 903 -278 l 625 -278 l 625 -208 l 556 -208 l 556 -139 l 694 -139 m 417 417 l 347 417 l 347 486 l 208 486 l 208 417 l 139 417 l 139 139 l 208 139 l 208 69 l 347 69 l 347 139 l 417 139 l 417 417 z "},"ʥ":{"ha":1111,"x_min":0,"x_max":1042,"o":"m 694 139 l 694 69 l 764 69 l 764 139 l 833 139 l 833 208 l 972 208 l 972 139 l 1042 139 l 1042 69 l 972 69 l 972 0 l 833 0 l 833 -69 l 764 -69 l 764 -139 l 625 -139 l 625 -69 l 694 -69 l 694 0 l 139 0 l 139 69 l 69 69 l 69 139 l 0 139 l 0 417 l 69 417 l 69 486 l 139 486 l 139 556 l 417 556 l 417 764 l 347 764 l 347 833 l 556 833 l 556 556 l 1042 556 l 1042 417 l 972 417 l 972 347 l 903 347 l 903 278 l 833 278 l 833 208 l 764 208 l 764 139 l 694 139 m 833 417 l 903 417 l 903 486 l 694 486 l 694 417 l 556 417 l 556 139 l 625 139 l 625 208 l 694 208 l 694 278 l 764 278 l 764 347 l 833 347 l 833 417 m 417 417 l 347 417 l 347 486 l 208 486 l 208 417 l 139 417 l 139 139 l 208 139 l 208 69 l 347 69 l 347 139 l 417 139 l 417 417 z "},"ʦ":{"ha":833,"x_min":0,"x_max":764,"o":"m 625 347 l 625 417 l 556 417 l 556 486 l 417 486 l 417 347 l 556 347 l 556 278 l 694 278 l 694 208 l 764 208 l 764 69 l 694 69 l 694 0 l 139 0 l 139 69 l 69 69 l 69 486 l 0 486 l 0 556 l 69 556 l 69 833 l 208 833 l 208 556 l 278 556 l 278 486 l 208 486 l 208 69 l 278 69 l 278 208 l 417 208 l 417 139 l 486 139 l 486 69 l 625 69 l 625 208 l 486 208 l 486 278 l 347 278 l 347 347 l 278 347 l 278 486 l 347 486 l 347 556 l 764 556 l 764 347 l 625 347 z "},"ʧ":{"ha":556,"x_min":0,"x_max":625,"o":"m 69 833 l 208 833 l 208 556 l 278 556 l 278 694 l 347 694 l 347 764 l 417 764 l 417 833 l 625 833 l 625 764 l 486 764 l 486 694 l 417 694 l 417 -139 l 347 -139 l 347 -208 l 278 -208 l 278 -278 l 69 -278 l 69 -208 l 208 -208 l 208 -139 l 278 -139 l 278 0 l 139 0 l 139 69 l 69 69 l 69 486 l 0 486 l 0 556 l 69 556 l 69 833 m 278 486 l 208 486 l 208 69 l 278 69 l 278 486 z "},"ʨ":{"ha":903,"x_min":0,"x_max":833,"o":"m 764 0 l 625 0 l 625 -69 l 556 -69 l 556 -139 l 417 -139 l 417 -69 l 486 -69 l 486 0 l 417 0 l 417 69 l 347 69 l 347 0 l 139 0 l 139 69 l 69 69 l 69 486 l 0 486 l 0 556 l 69 556 l 69 833 l 208 833 l 208 556 l 278 556 l 278 486 l 208 486 l 208 69 l 278 69 l 278 417 l 347 417 l 347 486 l 417 486 l 417 556 l 833 556 l 833 347 l 694 347 l 694 417 l 625 417 l 625 486 l 486 486 l 486 417 l 417 417 l 417 139 l 486 139 l 486 69 l 556 69 l 556 139 l 625 139 l 625 208 l 764 208 l 764 139 l 833 139 l 833 69 l 764 69 l 764 0 z "},"ʩ":{"ha":903,"x_min":0,"x_max":833,"o":"m 0 0 l 0 69 l 69 69 l 69 486 l 0 486 l 0 556 l 69 556 l 69 694 l 139 694 l 139 764 l 208 764 l 208 833 l 417 833 l 417 764 l 278 764 l 278 694 l 208 694 l 208 556 l 694 556 l 694 486 l 764 486 l 764 417 l 833 417 l 833 -139 l 764 -139 l 764 -208 l 694 -208 l 694 -278 l 417 -278 l 417 -208 l 625 -208 l 625 -139 l 694 -139 l 694 417 l 625 417 l 625 486 l 556 486 l 556 417 l 486 417 l 486 69 l 556 69 l 556 0 l 0 0 m 347 69 l 347 486 l 208 486 l 208 69 l 347 69 z "},"ʪ":{"ha":764,"x_min":0,"x_max":694,"o":"m 0 0 l 0 69 l 69 69 l 69 764 l 0 764 l 0 833 l 208 833 l 208 486 l 278 486 l 278 556 l 694 556 l 694 347 l 556 347 l 556 417 l 486 417 l 486 486 l 347 486 l 347 347 l 486 347 l 486 278 l 625 278 l 625 208 l 694 208 l 694 69 l 625 69 l 625 0 l 0 0 m 417 208 l 417 278 l 278 278 l 278 347 l 208 347 l 208 208 l 347 208 l 347 139 l 417 139 l 417 69 l 556 69 l 556 208 l 417 208 z "},"ʫ":{"ha":764,"x_min":0,"x_max":694,"o":"m 347 69 l 556 69 l 556 139 l 694 139 l 694 0 l 0 0 l 0 69 l 69 69 l 69 764 l 0 764 l 0 833 l 208 833 l 208 556 l 694 556 l 694 417 l 625 417 l 625 347 l 556 347 l 556 278 l 486 278 l 486 208 l 417 208 l 417 139 l 347 139 l 347 69 m 417 347 l 486 347 l 486 417 l 556 417 l 556 486 l 347 486 l 347 417 l 208 417 l 208 139 l 278 139 l 278 208 l 347 208 l 347 278 l 417 278 l 417 347 z "},"ʬ":{"ha":764,"x_min":0,"x_max":694,"o":"m 417 208 l 486 208 l 486 278 l 417 278 l 417 347 l 694 347 l 694 278 l 625 278 l 625 208 l 556 208 l 556 139 l 486 139 l 486 0 l 208 0 l 208 139 l 139 139 l 139 208 l 69 208 l 69 278 l 0 278 l 0 347 l 278 347 l 278 278 l 208 278 l 208 208 l 278 208 l 278 278 l 417 278 l 417 208 m 556 556 l 486 556 l 486 417 l 208 417 l 208 556 l 139 556 l 139 625 l 69 625 l 69 694 l 0 694 l 0 764 l 278 764 l 278 694 l 208 694 l 208 625 l 278 625 l 278 694 l 417 694 l 417 625 l 486 625 l 486 694 l 417 694 l 417 764 l 694 764 l 694 694 l 625 694 l 625 625 l 556 625 l 556 556 z "},"ʭ":{"ha":764,"x_min":0,"x_max":694,"o":"m 0 0 l 0 347 l 694 347 l 694 0 l 556 0 l 556 278 l 139 278 l 139 0 l 0 0 m 694 417 l 556 417 l 556 694 l 139 694 l 139 417 l 0 417 l 0 764 l 694 764 l 694 417 z "},"ʮ":{"ha":694,"x_min":-69,"x_max":625,"o":"m 347 69 l 347 139 l 417 139 l 417 486 l 347 486 l 347 556 l 625 556 l 625 486 l 556 486 l 556 -208 l 625 -208 l 625 -278 l 417 -278 l 417 0 l 208 0 l 208 69 l 139 69 l 139 139 l 69 139 l 69 486 l -69 486 l -69 556 l 139 556 l 139 486 l 208 486 l 208 139 l 278 139 l 278 69 l 347 69 z "},"ʯ":{"ha":694,"x_min":-69,"x_max":764,"o":"m 347 69 l 347 139 l 417 139 l 417 486 l 347 486 l 347 556 l 625 556 l 625 486 l 556 486 l 556 -139 l 625 -139 l 625 -208 l 764 -208 l 764 -278 l 556 -278 l 556 -208 l 486 -208 l 486 -139 l 417 -139 l 417 0 l 208 0 l 208 69 l 139 69 l 139 139 l 69 139 l 69 486 l -69 486 l -69 556 l 139 556 l 139 486 l 208 486 l 208 139 l 278 139 l 278 69 l 347 69 z "},"ˆ":{"ha":486,"x_min":0,"x_max":417,"o":"m 139 625 l 0 625 l 0 694 l 69 694 l 69 764 l 139 764 l 139 833 l 278 833 l 278 764 l 347 764 l 347 694 l 417 694 l 417 625 l 278 625 l 278 694 l 139 694 l 139 625 z "},"ˇ":{"ha":486,"x_min":0,"x_max":417,"o":"m 0 764 l 0 833 l 139 833 l 139 764 l 278 764 l 278 833 l 417 833 l 417 764 l 347 764 l 347 694 l 278 694 l 278 625 l 139 625 l 139 694 l 69 694 l 69 764 l 0 764 z "},"ˈ":{"ha":347,"x_min":69,"x_max":208,"o":"m 69 833 l 208 833 l 208 625 l 69 625 l 69 833 z "},"ˉ":{"ha":486,"x_min":0,"x_max":417,"o":"m 0 764 l 0 833 l 417 833 l 417 764 l 0 764 z "},"ˊ":{"ha":278,"x_min":0,"x_max":208,"o":"m 69 833 l 208 833 l 208 764 l 139 764 l 139 694 l 0 694 l 0 764 l 69 764 l 69 833 z "},"ˋ":{"ha":278,"x_min":0,"x_max":208,"o":"m 0 764 l 0 833 l 139 833 l 139 764 l 208 764 l 208 694 l 69 694 l 69 764 l 0 764 z "},"˒":{"ha":278,"x_min":0,"x_max":208,"o":"m 0 764 l 0 833 l 139 833 l 139 764 l 208 764 l 208 625 l 139 625 l 139 556 l 0 556 l 0 625 l 69 625 l 69 764 l 0 764 z "},"˓":{"ha":278,"x_min":0,"x_max":208,"o":"m 69 833 l 208 833 l 208 764 l 139 764 l 139 625 l 208 625 l 208 556 l 69 556 l 69 625 l 0 625 l 0 764 l 69 764 l 69 833 z "},"˔":{"ha":347,"x_min":0,"x_max":278,"o":"m 69 833 l 208 833 l 208 694 l 278 694 l 278 625 l 0 625 l 0 694 l 69 694 l 69 833 z "},"˕":{"ha":347,"x_min":0,"x_max":278,"o":"m 0 764 l 0 833 l 278 833 l 278 764 l 208 764 l 208 625 l 69 625 l 69 764 l 0 764 z "},"˖":{"ha":347,"x_min":0,"x_max":278,"o":"m 69 833 l 208 833 l 208 764 l 278 764 l 278 694 l 208 694 l 208 625 l 69 625 l 69 694 l 0 694 l 0 764 l 69 764 l 69 833 z "},"˗":{"ha":347,"x_min":0,"x_max":278,"o":"m 0 764 l 278 764 l 278 694 l 0 694 l 0 764 z "},"˘":{"ha":486,"x_min":0,"x_max":417,"o":"m 0 764 l 0 833 l 139 833 l 139 764 l 278 764 l 278 833 l 417 833 l 417 764 l 347 764 l 347 694 l 69 694 l 69 764 l 0 764 z "},"˙":{"ha":417,"x_min":69,"x_max":278,"o":"m 69 833 l 278 833 l 278 764 l 69 764 l 69 833 z "},"˚":{"ha":486,"x_min":0,"x_max":417,"o":"m 69 833 l 347 833 l 347 764 l 417 764 l 417 694 l 347 694 l 347 625 l 69 625 l 69 694 l 0 694 l 0 764 l 69 764 l 69 833 m 139 694 l 278 694 l 278 764 l 139 764 l 139 694 z "},"˛":{"ha":486,"x_min":69,"x_max":347,"o":"m 69 -69 l 139 -69 l 139 0 l 278 0 l 278 -69 l 208 -69 l 208 -139 l 347 -139 l 347 -208 l 278 -208 l 278 -278 l 139 -278 l 139 -208 l 69 -208 l 69 -69 z "},"˜":{"ha":556,"x_min":0,"x_max":486,"o":"m 69 833 l 278 833 l 278 764 l 347 764 l 347 833 l 486 833 l 486 764 l 417 764 l 417 694 l 208 694 l 208 764 l 139 764 l 139 694 l 0 694 l 0 764 l 69 764 l 69 833 z "},"˝":{"ha":556,"x_min":0,"x_max":486,"o":"m 139 625 l 0 625 l 0 694 l 69 694 l 69 764 l 139 764 l 139 833 l 278 833 l 278 764 l 208 764 l 208 694 l 139 694 l 139 625 m 347 764 l 347 833 l 486 833 l 486 764 l 417 764 l 417 694 l 347 694 l 347 625 l 208 625 l 208 694 l 278 694 l 278 764 l 347 764 z "},"̀":{"ha":0,"x_min":-486,"x_max":-278,"o":"m -347 764 l -278 764 l -278 694 l -417 694 l -417 764 l -486 764 l -486 833 l -347 833 l -347 764 z "},"́":{"ha":0,"x_min":-417,"x_max":-208,"o":"m -347 764 l -347 833 l -208 833 l -208 764 l -278 764 l -278 694 l -417 694 l -417 764 l -347 764 z "},"̂":{"ha":0,"x_min":-486,"x_max":-208,"o":"m -208 694 l -486 694 l -486 764 l -417 764 l -417 833 l -278 833 l -278 764 l -208 764 l -208 694 z "},"̃":{"ha":0,"x_min":-556,"x_max":-139,"o":"m -556 694 l -556 764 l -486 764 l -486 833 l -139 833 l -139 764 l -208 764 l -208 694 l -556 694 z "},"̄":{"ha":0,"x_min":-556,"x_max":-139,"o":"m -139 764 l -556 764 l -556 833 l -139 833 l -139 764 z "},"̅":{"ha":0,"x_min":-694,"x_max":0,"o":"m -694 764 l -694 833 l 0 833 l 0 764 l -694 764 z "},"̆":{"ha":0,"x_min":-556,"x_max":-139,"o":"m -208 694 l -486 694 l -486 764 l -556 764 l -556 833 l -417 833 l -417 764 l -278 764 l -278 833 l -139 833 l -139 764 l -208 764 l -208 694 z "},"̇":{"ha":0,"x_min":-486,"x_max":-278,"o":"m -486 833 l -278 833 l -278 764 l -486 764 l -486 833 z "},"̈":{"ha":0,"x_min":-556,"x_max":-139,"o":"m -139 764 l -556 764 l -556 833 l -139 833 l -139 764 z "},"̊":{"ha":0,"x_min":-556,"x_max":-139,"o":"m -208 694 l -486 694 l -486 764 l -556 764 l -556 833 l -486 833 l -486 903 l -208 903 l -208 833 l -139 833 l -139 764 l -208 764 l -208 694 m -417 764 l -278 764 l -278 833 l -417 833 l -417 764 z "},"̋":{"ha":0,"x_min":-486,"x_max":-139,"o":"m -208 694 l -486 694 l -486 764 l -417 764 l -417 833 l -139 833 l -139 764 l -208 764 l -208 694 z "},"̌":{"ha":0,"x_min":-486,"x_max":-208,"o":"m -208 764 l -278 764 l -278 694 l -417 694 l -417 764 l -486 764 l -486 833 l -208 833 l -208 764 z "},"Ͱ":{"ha":625,"x_min":0,"x_max":556,"o":"m 0 0 l 0 69 l 69 69 l 69 694 l 0 694 l 0 764 l 278 764 l 278 694 l 208 694 l 208 417 l 556 417 l 556 347 l 208 347 l 208 69 l 278 69 l 278 0 l 0 0 z "},"ͱ":{"ha":556,"x_min":0,"x_max":486,"o":"m 0 0 l 0 69 l 69 69 l 69 486 l 0 486 l 0 556 l 139 556 l 139 486 l 208 486 l 208 347 l 486 347 l 486 278 l 208 278 l 208 69 l 278 69 l 278 0 l 0 0 z "},"Ͳ":{"ha":625,"x_min":0,"x_max":556,"o":"m 0 764 l 556 764 l 556 625 l 417 625 l 417 694 l 347 694 l 347 -278 l 208 -278 l 208 694 l 139 694 l 139 625 l 0 625 l 0 764 z "},"ͳ":{"ha":625,"x_min":0,"x_max":556,"o":"m 139 625 l 0 625 l 0 694 l 69 694 l 69 764 l 556 764 l 556 625 l 417 625 l 417 694 l 347 694 l 347 -278 l 208 -278 l 208 694 l 139 694 l 139 625 z "},"ʹ":{"ha":278,"x_min":0,"x_max":208,"o":"m 69 833 l 208 833 l 208 694 l 139 694 l 139 556 l 0 556 l 0 694 l 69 694 l 69 833 z "},"͵":{"ha":278,"x_min":0,"x_max":208,"o":"m 0 -69 l 0 69 l 69 69 l 69 208 l 208 208 l 208 69 l 139 69 l 139 -69 l 0 -69 z "},"Ͷ":{"ha":764,"x_min":0,"x_max":694,"o":"m 0 764 l 278 764 l 278 694 l 208 694 l 208 278 l 278 278 l 278 417 l 347 417 l 347 556 l 417 556 l 417 694 l 486 694 l 486 764 l 694 764 l 694 694 l 625 694 l 625 69 l 694 69 l 694 0 l 417 0 l 417 69 l 486 69 l 486 417 l 417 417 l 417 278 l 347 278 l 347 139 l 278 139 l 278 69 l 208 69 l 208 0 l 69 0 l 69 694 l 0 694 l 0 764 z "},"ͷ":{"ha":694,"x_min":0,"x_max":625,"o":"m 347 69 l 417 69 l 417 278 l 347 278 l 347 139 l 278 139 l 278 69 l 208 69 l 208 0 l 69 0 l 69 486 l 0 486 l 0 556 l 278 556 l 278 486 l 208 486 l 208 278 l 278 278 l 278 417 l 347 417 l 347 486 l 417 486 l 417 556 l 625 556 l 625 486 l 556 486 l 556 69 l 625 69 l 625 0 l 347 0 l 347 69 z "},"ͺ":{"ha":347,"x_min":0,"x_max":278,"o":"m 0 139 l 208 139 l 208 -69 l 278 -69 l 278 -139 l 139 -139 l 139 -69 l 69 -69 l 69 69 l 0 69 l 0 139 z "},"ͻ":{"ha":625,"x_min":0,"x_max":556,"o":"m 347 69 l 347 139 l 417 139 l 417 417 l 347 417 l 347 486 l 208 486 l 208 417 l 139 417 l 139 347 l 0 347 l 0 556 l 417 556 l 417 486 l 486 486 l 486 417 l 556 417 l 556 139 l 486 139 l 486 69 l 417 69 l 417 0 l 139 0 l 139 69 l 69 69 l 69 139 l 0 139 l 0 208 l 139 208 l 139 139 l 208 139 l 208 69 l 347 69 z "},"ͼ":{"ha":625,"x_min":0,"x_max":556,"o":"m 347 69 l 347 139 l 417 139 l 417 208 l 556 208 l 556 139 l 486 139 l 486 69 l 417 69 l 417 0 l 139 0 l 139 69 l 69 69 l 69 139 l 0 139 l 0 417 l 69 417 l 69 486 l 139 486 l 139 556 l 556 556 l 556 347 l 417 347 l 417 417 l 347 417 l 347 486 l 208 486 l 208 417 l 139 417 l 139 139 l 208 139 l 208 69 l 347 69 m 208 208 l 208 347 l 347 347 l 347 208 l 208 208 z "},"ͽ":{"ha":625,"x_min":0,"x_max":556,"o":"m 347 69 l 347 139 l 417 139 l 417 417 l 347 417 l 347 486 l 208 486 l 208 417 l 139 417 l 139 347 l 0 347 l 0 556 l 417 556 l 417 486 l 486 486 l 486 417 l 556 417 l 556 139 l 486 139 l 486 69 l 417 69 l 417 0 l 139 0 l 139 69 l 69 69 l 69 139 l 0 139 l 0 208 l 139 208 l 139 139 l 208 139 l 208 69 l 347 69 m 208 208 l 208 347 l 347 347 l 347 208 l 208 208 z "},";":{"ha":278,"x_min":0,"x_max":208,"o":"m 0 0 l 69 0 l 69 139 l 208 139 l 208 0 l 139 0 l 139 -69 l 0 -69 l 0 0 m 208 486 l 208 347 l 69 347 l 69 486 l 208 486 z "},"΄":{"ha":347,"x_min":0,"x_max":278,"o":"m 139 625 l 0 625 l 0 694 l 69 694 l 69 764 l 139 764 l 139 833 l 278 833 l 278 764 l 208 764 l 208 694 l 139 694 l 139 625 z "},"΅":{"ha":486,"x_min":0,"x_max":417,"o":"m 139 764 l 139 833 l 208 833 l 208 903 l 347 903 l 347 833 l 278 833 l 278 764 l 139 764 m 0 694 l 417 694 l 417 625 l 0 625 l 0 694 z "},"Ά":{"ha":764,"x_min":0,"x_max":694,"o":"m 0 0 l 0 69 l 69 69 l 69 208 l 139 208 l 139 417 l 208 417 l 208 625 l 278 625 l 278 694 l 139 694 l 139 625 l 0 625 l 0 694 l 69 694 l 69 764 l 417 764 l 417 625 l 486 625 l 486 417 l 556 417 l 556 208 l 625 208 l 625 69 l 694 69 l 694 0 l 417 0 l 417 69 l 486 69 l 486 208 l 417 208 l 417 278 l 278 278 l 278 208 l 208 208 l 208 69 l 278 69 l 278 0 l 0 0 m 417 347 l 417 417 l 278 417 l 278 347 l 417 347 z "},"·":{"ha":208,"x_min":0,"x_max":139,"o":"m 0 486 l 139 486 l 139 347 l 0 347 l 0 486 z "},"Έ":{"ha":903,"x_min":0,"x_max":833,"o":"m 694 139 l 833 139 l 833 0 l 208 0 l 208 69 l 278 69 l 278 694 l 139 694 l 139 625 l 0 625 l 0 694 l 69 694 l 69 764 l 833 764 l 833 625 l 694 625 l 694 694 l 417 694 l 417 417 l 556 417 l 556 486 l 694 486 l 694 278 l 556 278 l 556 347 l 417 347 l 417 69 l 694 69 l 694 139 z "},"Ή":{"ha":972,"x_min":0,"x_max":903,"o":"m 417 347 l 417 69 l 486 69 l 486 0 l 208 0 l 208 69 l 278 69 l 278 694 l 139 694 l 139 625 l 0 625 l 0 694 l 69 694 l 69 764 l 486 764 l 486 694 l 417 694 l 417 417 l 694 417 l 694 694 l 625 694 l 625 764 l 903 764 l 903 694 l 833 694 l 833 69 l 903 69 l 903 0 l 625 0 l 625 69 l 694 69 l 694 347 l 417 347 z "},"Ί":{"ha":556,"x_min":0,"x_max":486,"o":"m 278 69 l 278 694 l 139 694 l 139 625 l 0 625 l 0 694 l 69 694 l 69 764 l 486 764 l 486 694 l 417 694 l 417 69 l 486 69 l 486 0 l 208 0 l 208 69 l 278 69 z "},"Ό":{"ha":903,"x_min":0,"x_max":833,"o":"m 347 69 l 208 69 l 208 208 l 139 208 l 139 556 l 208 556 l 208 694 l 347 694 l 347 764 l 625 764 l 625 694 l 764 694 l 764 556 l 833 556 l 833 208 l 764 208 l 764 69 l 625 69 l 625 0 l 347 0 l 347 69 m 139 694 l 139 625 l 0 625 l 0 694 l 69 694 l 69 764 l 208 764 l 208 694 l 139 694 m 625 208 l 694 208 l 694 556 l 625 556 l 625 625 l 556 625 l 556 694 l 417 694 l 417 625 l 347 625 l 347 556 l 278 556 l 278 208 l 347 208 l 347 139 l 417 139 l 417 69 l 556 69 l 556 139 l 625 139 l 625 208 z "},"Ύ":{"ha":972,"x_min":0,"x_max":903,"o":"m 139 694 l 139 625 l 0 625 l 0 694 l 69 694 l 69 764 l 486 764 l 486 694 l 417 694 l 417 625 l 486 625 l 486 486 l 625 486 l 625 625 l 694 625 l 694 694 l 625 694 l 625 764 l 903 764 l 903 694 l 833 694 l 833 625 l 764 625 l 764 486 l 694 486 l 694 417 l 625 417 l 625 69 l 694 69 l 694 0 l 417 0 l 417 69 l 486 69 l 486 417 l 417 417 l 417 486 l 347 486 l 347 625 l 278 625 l 278 694 l 139 694 z "},"Ώ":{"ha":972,"x_min":0,"x_max":903,"o":"m 417 208 l 486 208 l 486 0 l 139 0 l 139 139 l 278 139 l 278 69 l 347 69 l 347 208 l 208 208 l 208 347 l 139 347 l 139 556 l 208 556 l 208 694 l 347 694 l 347 764 l 694 764 l 694 694 l 833 694 l 833 556 l 903 556 l 903 347 l 833 347 l 833 208 l 694 208 l 694 69 l 764 69 l 764 139 l 903 139 l 903 0 l 556 0 l 556 208 l 625 208 l 625 278 l 694 278 l 694 347 l 764 347 l 764 556 l 694 556 l 694 625 l 625 625 l 625 694 l 417 694 l 417 625 l 347 625 l 347 556 l 278 556 l 278 347 l 347 347 l 347 278 l 417 278 l 417 208 m 139 694 l 139 625 l 0 625 l 0 694 l 69 694 l 69 764 l 208 764 l 208 694 l 139 694 z "},"ΐ":{"ha":347,"x_min":-69,"x_max":347,"o":"m 69 833 l 139 833 l 139 903 l 278 903 l 278 833 l 208 833 l 208 764 l 69 764 l 69 833 m 278 69 l 278 0 l 139 0 l 139 69 l 69 69 l 69 486 l 0 486 l 0 556 l 208 556 l 208 69 l 278 69 m 347 694 l 347 625 l -69 625 l -69 694 l 347 694 z "},"Α":{"ha":764,"x_min":0,"x_max":694,"o":"m 0 0 l 0 69 l 69 69 l 69 208 l 139 208 l 139 417 l 208 417 l 208 625 l 278 625 l 278 694 l 208 694 l 208 764 l 417 764 l 417 625 l 486 625 l 486 417 l 556 417 l 556 208 l 625 208 l 625 69 l 694 69 l 694 0 l 417 0 l 417 69 l 486 69 l 486 208 l 417 208 l 417 278 l 278 278 l 278 208 l 208 208 l 208 69 l 278 69 l 278 0 l 0 0 m 417 347 l 417 417 l 278 417 l 278 347 l 417 347 z "},"Β":{"ha":694,"x_min":0,"x_max":625,"o":"m 0 0 l 0 69 l 69 69 l 69 694 l 0 694 l 0 764 l 486 764 l 486 694 l 556 694 l 556 625 l 625 625 l 625 486 l 556 486 l 556 417 l 486 417 l 486 347 l 556 347 l 556 278 l 625 278 l 625 139 l 556 139 l 556 69 l 486 69 l 486 0 l 0 0 m 486 278 l 417 278 l 417 347 l 208 347 l 208 69 l 417 69 l 417 139 l 486 139 l 486 278 m 417 417 l 417 486 l 486 486 l 486 625 l 417 625 l 417 694 l 208 694 l 208 417 l 417 417 z "},"Γ":{"ha":694,"x_min":0,"x_max":625,"o":"m 0 0 l 0 69 l 69 69 l 69 694 l 0 694 l 0 764 l 625 764 l 625 625 l 486 625 l 486 694 l 208 694 l 208 69 l 278 69 l 278 0 l 0 0 z "},"Δ":{"ha":764,"x_min":0,"x_max":694,"o":"m 694 139 l 694 0 l 0 0 l 0 139 l 69 139 l 69 278 l 139 278 l 139 486 l 208 486 l 208 625 l 278 625 l 278 764 l 417 764 l 417 625 l 486 625 l 486 486 l 556 486 l 556 278 l 625 278 l 625 139 l 694 139 m 486 278 l 417 278 l 417 486 l 278 486 l 278 278 l 208 278 l 208 139 l 139 139 l 139 69 l 556 69 l 556 139 l 486 139 l 486 278 z "},"Ε":{"ha":694,"x_min":0,"x_max":625,"o":"m 0 0 l 0 69 l 69 69 l 69 694 l 0 694 l 0 764 l 625 764 l 625 625 l 486 625 l 486 694 l 208 694 l 208 417 l 347 417 l 347 486 l 486 486 l 486 278 l 347 278 l 347 347 l 208 347 l 208 69 l 486 69 l 486 139 l 625 139 l 625 0 l 0 0 z "},"Ζ":{"ha":625,"x_min":0,"x_max":556,"o":"m 0 0 l 0 139 l 69 139 l 69 208 l 139 208 l 139 347 l 208 347 l 208 417 l 278 417 l 278 556 l 347 556 l 347 625 l 417 625 l 417 694 l 139 694 l 139 625 l 0 625 l 0 764 l 556 764 l 556 625 l 486 625 l 486 556 l 417 556 l 417 417 l 347 417 l 347 347 l 278 347 l 278 208 l 208 208 l 208 139 l 139 139 l 139 69 l 417 69 l 417 139 l 556 139 l 556 0 l 0 0 z "},"Η":{"ha":764,"x_min":0,"x_max":694,"o":"m 0 0 l 0 69 l 69 69 l 69 694 l 0 694 l 0 764 l 278 764 l 278 694 l 208 694 l 208 417 l 486 417 l 486 694 l 417 694 l 417 764 l 694 764 l 694 694 l 625 694 l 625 69 l 694 69 l 694 0 l 417 0 l 417 69 l 486 69 l 486 347 l 208 347 l 208 69 l 278 69 l 278 0 l 0 0 z "},"Θ":{"ha":764,"x_min":0,"x_max":694,"o":"m 556 556 l 486 556 l 486 625 l 417 625 l 417 694 l 278 694 l 278 625 l 208 625 l 208 556 l 139 556 l 139 486 l 278 486 l 278 417 l 417 417 l 417 486 l 556 486 l 556 556 m 556 278 l 417 278 l 417 347 l 278 347 l 278 278 l 139 278 l 139 208 l 208 208 l 208 139 l 278 139 l 278 69 l 417 69 l 417 139 l 486 139 l 486 208 l 556 208 l 556 278 m 486 0 l 208 0 l 208 69 l 69 69 l 69 208 l 0 208 l 0 556 l 69 556 l 69 694 l 208 694 l 208 764 l 486 764 l 486 694 l 625 694 l 625 556 l 694 556 l 694 208 l 625 208 l 625 69 l 486 69 l 486 0 z "},"Ι":{"ha":347,"x_min":0,"x_max":278,"o":"m 0 0 l 0 69 l 69 69 l 69 694 l 0 694 l 0 764 l 278 764 l 278 694 l 208 694 l 208 69 l 278 69 l 278 0 l 0 0 z "},"Κ":{"ha":694,"x_min":0,"x_max":625,"o":"m 347 69 l 417 69 l 417 208 l 347 208 l 347 347 l 208 347 l 208 69 l 278 69 l 278 0 l 0 0 l 0 69 l 69 69 l 69 694 l 0 694 l 0 764 l 278 764 l 278 694 l 208 694 l 208 486 l 278 486 l 278 556 l 347 556 l 347 625 l 417 625 l 417 694 l 347 694 l 347 764 l 625 764 l 625 694 l 556 694 l 556 625 l 486 625 l 486 556 l 417 556 l 417 486 l 347 486 l 347 417 l 417 417 l 417 347 l 486 347 l 486 208 l 556 208 l 556 69 l 625 69 l 625 0 l 347 0 l 347 69 z "},"Λ":{"ha":764,"x_min":0,"x_max":694,"o":"m 0 0 l 0 69 l 69 69 l 69 208 l 139 208 l 139 417 l 208 417 l 208 625 l 278 625 l 278 694 l 208 694 l 208 764 l 417 764 l 417 625 l 486 625 l 486 417 l 556 417 l 556 208 l 625 208 l 625 69 l 694 69 l 694 0 l 417 0 l 417 69 l 486 69 l 486 208 l 417 208 l 417 417 l 278 417 l 278 208 l 208 208 l 208 69 l 278 69 l 278 0 l 0 0 z "},"Μ":{"ha":903,"x_min":0,"x_max":833,"o":"m 0 0 l 0 69 l 69 69 l 69 694 l 0 694 l 0 764 l 208 764 l 208 694 l 278 694 l 278 625 l 347 625 l 347 556 l 486 556 l 486 625 l 556 625 l 556 694 l 625 694 l 625 764 l 833 764 l 833 694 l 764 694 l 764 69 l 833 69 l 833 0 l 556 0 l 556 69 l 625 69 l 625 556 l 556 556 l 556 486 l 486 486 l 486 347 l 347 347 l 347 486 l 278 486 l 278 556 l 208 556 l 208 69 l 278 69 l 278 0 l 0 0 z "},"Ν":{"ha":764,"x_min":0,"x_max":694,"o":"m 0 0 l 0 69 l 69 69 l 69 694 l 0 694 l 0 764 l 208 764 l 208 694 l 278 694 l 278 556 l 347 556 l 347 417 l 417 417 l 417 278 l 486 278 l 486 694 l 417 694 l 417 764 l 694 764 l 694 694 l 625 694 l 625 0 l 486 0 l 486 69 l 417 69 l 417 139 l 347 139 l 347 278 l 278 278 l 278 417 l 208 417 l 208 69 l 278 69 l 278 0 l 0 0 z "},"Ξ":{"ha":625,"x_min":0,"x_max":556,"o":"m 0 0 l 0 139 l 139 139 l 139 69 l 417 69 l 417 139 l 556 139 l 556 0 l 0 0 m 0 764 l 556 764 l 556 625 l 417 625 l 417 694 l 139 694 l 139 625 l 0 625 l 0 764 m 486 278 l 347 278 l 347 347 l 208 347 l 208 278 l 69 278 l 69 486 l 208 486 l 208 417 l 347 417 l 347 486 l 486 486 l 486 278 z "},"Ο":{"ha":764,"x_min":0,"x_max":694,"o":"m 486 139 l 486 208 l 556 208 l 556 556 l 486 556 l 486 625 l 417 625 l 417 694 l 278 694 l 278 625 l 208 625 l 208 556 l 139 556 l 139 208 l 208 208 l 208 139 l 278 139 l 278 69 l 417 69 l 417 139 l 486 139 m 625 208 l 625 69 l 486 69 l 486 0 l 208 0 l 208 69 l 69 69 l 69 208 l 0 208 l 0 556 l 69 556 l 69 694 l 208 694 l 208 764 l 486 764 l 486 694 l 625 694 l 625 556 l 694 556 l 694 208 l 625 208 z "},"Π":{"ha":764,"x_min":0,"x_max":694,"o":"m 0 0 l 0 69 l 69 69 l 69 694 l 0 694 l 0 764 l 694 764 l 694 694 l 625 694 l 625 69 l 694 69 l 694 0 l 417 0 l 417 69 l 486 69 l 486 694 l 208 694 l 208 69 l 278 69 l 278 0 l 0 0 z "},"Ρ":{"ha":694,"x_min":0,"x_max":625,"o":"m 0 0 l 0 69 l 69 69 l 69 694 l 0 694 l 0 764 l 486 764 l 486 694 l 556 694 l 556 625 l 625 625 l 625 486 l 556 486 l 556 417 l 486 417 l 486 347 l 208 347 l 208 69 l 278 69 l 278 0 l 0 0 m 417 417 l 417 486 l 486 486 l 486 625 l 417 625 l 417 694 l 208 694 l 208 417 l 417 417 z "},"Σ":{"ha":694,"x_min":0,"x_max":625,"o":"m 0 0 l 0 69 l 69 69 l 69 139 l 139 139 l 139 208 l 208 208 l 208 278 l 278 278 l 278 347 l 347 347 l 347 417 l 278 417 l 278 486 l 208 486 l 208 556 l 139 556 l 139 625 l 69 625 l 69 694 l 0 694 l 0 764 l 625 764 l 625 625 l 486 625 l 486 694 l 208 694 l 208 625 l 278 625 l 278 556 l 347 556 l 347 486 l 417 486 l 417 417 l 486 417 l 486 347 l 417 347 l 417 278 l 347 278 l 347 208 l 278 208 l 278 139 l 208 139 l 208 69 l 486 69 l 486 139 l 625 139 l 625 0 l 0 0 z "},"Τ":{"ha":625,"x_min":0,"x_max":556,"o":"m 347 69 l 417 69 l 417 0 l 139 0 l 139 69 l 208 69 l 208 694 l 139 694 l 139 625 l 0 625 l 0 764 l 556 764 l 556 625 l 417 625 l 417 694 l 347 694 l 347 69 z "},"Υ":{"ha":764,"x_min":0,"x_max":694,"o":"m 0 764 l 278 764 l 278 694 l 208 694 l 208 625 l 278 625 l 278 486 l 417 486 l 417 625 l 486 625 l 486 694 l 417 694 l 417 764 l 694 764 l 694 694 l 625 694 l 625 625 l 556 625 l 556 486 l 486 486 l 486 417 l 417 417 l 417 69 l 486 69 l 486 0 l 208 0 l 208 69 l 278 69 l 278 417 l 208 417 l 208 486 l 139 486 l 139 625 l 69 625 l 69 694 l 0 694 l 0 764 z "},"Φ":{"ha":625,"x_min":0,"x_max":556,"o":"m 347 69 l 417 69 l 417 0 l 139 0 l 139 69 l 208 69 l 208 139 l 139 139 l 139 208 l 69 208 l 69 278 l 0 278 l 0 486 l 69 486 l 69 556 l 139 556 l 139 625 l 208 625 l 208 694 l 139 694 l 139 764 l 417 764 l 417 694 l 347 694 l 347 625 l 417 625 l 417 556 l 486 556 l 486 486 l 556 486 l 556 278 l 486 278 l 486 208 l 417 208 l 417 139 l 347 139 l 347 69 m 139 486 l 139 278 l 208 278 l 208 486 l 139 486 m 347 486 l 347 278 l 417 278 l 417 486 l 347 486 z "},"Χ":{"ha":764,"x_min":0,"x_max":694,"o":"m 0 0 l 0 69 l 69 69 l 69 139 l 139 139 l 139 278 l 208 278 l 208 347 l 278 347 l 278 417 l 208 417 l 208 486 l 139 486 l 139 625 l 69 625 l 69 694 l 0 694 l 0 764 l 278 764 l 278 694 l 208 694 l 208 625 l 278 625 l 278 486 l 417 486 l 417 625 l 486 625 l 486 694 l 417 694 l 417 764 l 694 764 l 694 694 l 625 694 l 625 625 l 556 625 l 556 486 l 486 486 l 486 417 l 417 417 l 417 347 l 486 347 l 486 278 l 556 278 l 556 139 l 625 139 l 625 69 l 694 69 l 694 0 l 417 0 l 417 69 l 486 69 l 486 139 l 417 139 l 417 278 l 278 278 l 278 139 l 208 139 l 208 69 l 278 69 l 278 0 l 0 0 z "},"Ψ":{"ha":764,"x_min":0,"x_max":694,"o":"m 0 764 l 139 764 l 139 694 l 208 694 l 208 486 l 278 486 l 278 694 l 208 694 l 208 764 l 486 764 l 486 694 l 417 694 l 417 486 l 486 486 l 486 694 l 556 694 l 556 764 l 694 764 l 694 694 l 625 694 l 625 486 l 556 486 l 556 417 l 486 417 l 486 347 l 417 347 l 417 69 l 486 69 l 486 0 l 208 0 l 208 69 l 278 69 l 278 347 l 208 347 l 208 417 l 139 417 l 139 486 l 69 486 l 69 694 l 0 694 l 0 764 z "},"Ω":{"ha":833,"x_min":0,"x_max":764,"o":"m 0 0 l 0 139 l 139 139 l 139 69 l 208 69 l 208 208 l 69 208 l 69 347 l 0 347 l 0 556 l 69 556 l 69 694 l 208 694 l 208 764 l 556 764 l 556 694 l 694 694 l 694 556 l 764 556 l 764 347 l 694 347 l 694 208 l 556 208 l 556 69 l 625 69 l 625 139 l 764 139 l 764 0 l 417 0 l 417 208 l 486 208 l 486 278 l 556 278 l 556 347 l 625 347 l 625 556 l 556 556 l 556 625 l 486 625 l 486 694 l 278 694 l 278 625 l 208 625 l 208 556 l 139 556 l 139 347 l 208 347 l 208 278 l 278 278 l 278 208 l 347 208 l 347 0 l 0 0 z "},"Ϊ":{"ha":347,"x_min":-69,"x_max":347,"o":"m 0 0 l 0 69 l 69 69 l 69 694 l 0 694 l 0 764 l 278 764 l 278 694 l 208 694 l 208 69 l 278 69 l 278 0 l 0 0 m 347 833 l -69 833 l -69 903 l 347 903 l 347 833 z "},"Ϋ":{"ha":764,"x_min":0,"x_max":694,"o":"m 0 764 l 278 764 l 278 694 l 208 694 l 208 625 l 278 625 l 278 486 l 417 486 l 417 625 l 486 625 l 486 694 l 417 694 l 417 764 l 694 764 l 694 694 l 625 694 l 625 625 l 556 625 l 556 486 l 486 486 l 486 417 l 417 417 l 417 69 l 486 69 l 486 0 l 208 0 l 208 69 l 278 69 l 278 417 l 208 417 l 208 486 l 139 486 l 139 625 l 69 625 l 69 694 l 0 694 l 0 764 m 139 903 l 556 903 l 556 833 l 139 833 l 139 903 z "},"ά":{"ha":694,"x_min":0,"x_max":625,"o":"m 347 69 l 347 0 l 139 0 l 139 69 l 69 69 l 69 139 l 0 139 l 0 417 l 69 417 l 69 486 l 139 486 l 139 556 l 347 556 l 347 486 l 486 486 l 486 556 l 625 556 l 625 486 l 556 486 l 556 417 l 486 417 l 486 139 l 556 139 l 556 69 l 625 69 l 625 0 l 486 0 l 486 69 l 347 69 m 278 486 l 208 486 l 208 417 l 139 417 l 139 139 l 208 139 l 208 69 l 278 69 l 278 139 l 347 139 l 347 417 l 278 417 l 278 486 m 278 764 l 417 764 l 417 694 l 347 694 l 347 625 l 208 625 l 208 694 l 278 694 l 278 764 z "},"έ":{"ha":556,"x_min":0,"x_max":486,"o":"m 347 69 l 347 139 l 486 139 l 486 69 l 417 69 l 417 0 l 69 0 l 69 69 l 0 69 l 0 278 l 69 278 l 69 347 l 0 347 l 0 486 l 69 486 l 69 556 l 417 556 l 417 486 l 486 486 l 486 417 l 347 417 l 347 486 l 139 486 l 139 347 l 417 347 l 417 278 l 139 278 l 139 69 l 347 69 m 139 694 l 208 694 l 208 764 l 347 764 l 347 694 l 278 694 l 278 625 l 139 625 l 139 694 z "},"ή":{"ha":625,"x_min":0,"x_max":556,"o":"m 0 0 l 0 69 l 69 69 l 69 486 l 0 486 l 0 556 l 417 556 l 417 486 l 486 486 l 486 417 l 556 417 l 556 -278 l 417 -278 l 417 417 l 347 417 l 347 486 l 278 486 l 278 417 l 208 417 l 208 69 l 278 69 l 278 0 l 0 0 m 278 764 l 417 764 l 417 694 l 347 694 l 347 625 l 208 625 l 208 694 l 278 694 l 278 764 z "},"ί":{"ha":347,"x_min":0,"x_max":278,"o":"m 278 69 l 278 0 l 139 0 l 139 69 l 69 69 l 69 486 l 0 486 l 0 556 l 208 556 l 208 69 l 278 69 m 139 694 l 139 764 l 278 764 l 278 694 l 208 694 l 208 625 l 69 625 l 69 694 l 139 694 z "},"ΰ":{"ha":625,"x_min":0,"x_max":556,"o":"m 347 69 l 347 139 l 417 139 l 417 417 l 347 417 l 347 486 l 278 486 l 278 556 l 417 556 l 417 486 l 486 486 l 486 417 l 556 417 l 556 139 l 486 139 l 486 69 l 417 69 l 417 0 l 208 0 l 208 69 l 139 69 l 139 139 l 69 139 l 69 486 l 0 486 l 0 556 l 208 556 l 208 139 l 278 139 l 278 69 l 347 69 m 69 625 l 69 694 l 486 694 l 486 625 l 69 625 m 278 903 l 417 903 l 417 833 l 347 833 l 347 764 l 208 764 l 208 833 l 278 833 l 278 903 z "},"α":{"ha":694,"x_min":0,"x_max":625,"o":"m 347 69 l 347 0 l 139 0 l 139 69 l 69 69 l 69 139 l 0 139 l 0 417 l 69 417 l 69 486 l 139 486 l 139 556 l 347 556 l 347 486 l 486 486 l 486 556 l 625 556 l 625 486 l 556 486 l 556 417 l 486 417 l 486 139 l 556 139 l 556 69 l 625 69 l 625 0 l 486 0 l 486 69 l 347 69 m 278 486 l 208 486 l 208 417 l 139 417 l 139 139 l 208 139 l 208 69 l 278 69 l 278 139 l 347 139 l 347 417 l 278 417 l 278 486 z "},"β":{"ha":625,"x_min":0,"x_max":556,"o":"m 347 69 l 347 139 l 417 139 l 417 278 l 347 278 l 347 347 l 208 347 l 208 417 l 347 417 l 347 486 l 417 486 l 417 625 l 347 625 l 347 694 l 208 694 l 208 625 l 139 625 l 139 -278 l 0 -278 l 0 625 l 69 625 l 69 694 l 139 694 l 139 764 l 417 764 l 417 694 l 486 694 l 486 625 l 556 625 l 556 486 l 486 486 l 486 417 l 417 417 l 417 347 l 486 347 l 486 278 l 556 278 l 556 139 l 486 139 l 486 69 l 417 69 l 417 0 l 208 0 l 208 69 l 347 69 z "},"γ":{"ha":556,"x_min":0,"x_max":486,"o":"m 278 486 l 278 556 l 347 556 l 347 625 l 486 625 l 486 556 l 417 556 l 417 417 l 347 417 l 347 208 l 278 208 l 278 0 l 208 0 l 208 -208 l 69 -208 l 69 0 l 139 0 l 139 208 l 208 208 l 208 417 l 139 417 l 139 486 l 0 486 l 0 556 l 208 556 l 208 486 l 278 486 z "},"δ":{"ha":625,"x_min":0,"x_max":556,"o":"m 347 69 l 347 139 l 417 139 l 417 417 l 347 417 l 347 486 l 208 486 l 208 417 l 139 417 l 139 139 l 208 139 l 208 69 l 347 69 m 486 139 l 486 69 l 417 69 l 417 0 l 139 0 l 139 69 l 69 69 l 69 139 l 0 139 l 0 417 l 69 417 l 69 486 l 139 486 l 139 556 l 208 556 l 208 625 l 139 625 l 139 764 l 208 764 l 208 833 l 417 833 l 417 764 l 486 764 l 486 694 l 347 694 l 347 764 l 278 764 l 278 625 l 347 625 l 347 556 l 417 556 l 417 486 l 486 486 l 486 417 l 556 417 l 556 139 l 486 139 z "},"ε":{"ha":556,"x_min":0,"x_max":486,"o":"m 347 69 l 347 139 l 486 139 l 486 69 l 417 69 l 417 0 l 69 0 l 69 69 l 0 69 l 0 278 l 69 278 l 69 347 l 0 347 l 0 486 l 69 486 l 69 556 l 417 556 l 417 486 l 486 486 l 486 417 l 347 417 l 347 486 l 139 486 l 139 347 l 417 347 l 417 278 l 139 278 l 139 69 l 347 69 z "},"ζ":{"ha":556,"x_min":0,"x_max":486,"o":"m 69 833 l 0 833 l 0 903 l 139 903 l 139 833 l 208 833 l 208 764 l 486 764 l 486 694 l 208 694 l 208 556 l 139 556 l 139 139 l 208 139 l 208 69 l 417 69 l 417 0 l 486 0 l 486 -139 l 417 -139 l 417 -208 l 347 -208 l 347 -278 l 139 -278 l 139 -208 l 278 -208 l 278 -139 l 347 -139 l 347 0 l 139 0 l 139 69 l 69 69 l 69 139 l 0 139 l 0 556 l 69 556 l 69 694 l 139 694 l 139 764 l 69 764 l 69 833 z "},"η":{"ha":625,"x_min":0,"x_max":556,"o":"m 0 0 l 0 69 l 69 69 l 69 486 l 0 486 l 0 556 l 417 556 l 417 486 l 486 486 l 486 417 l 556 417 l 556 -278 l 417 -278 l 417 417 l 347 417 l 347 486 l 278 486 l 278 417 l 208 417 l 208 69 l 278 69 l 278 0 l 0 0 z "},"θ":{"ha":625,"x_min":0,"x_max":556,"o":"m 347 69 l 347 0 l 139 0 l 139 69 l 69 69 l 69 139 l 0 139 l 0 556 l 69 556 l 69 694 l 208 694 l 208 764 l 417 764 l 417 694 l 486 694 l 486 625 l 556 625 l 556 208 l 486 208 l 486 69 l 347 69 m 417 208 l 417 347 l 139 347 l 139 139 l 208 139 l 208 69 l 278 69 l 278 139 l 347 139 l 347 208 l 417 208 m 417 417 l 417 625 l 347 625 l 347 694 l 278 694 l 278 625 l 208 625 l 208 556 l 139 556 l 139 417 l 417 417 z "},"ι":{"ha":347,"x_min":0,"x_max":278,"o":"m 278 69 l 278 0 l 139 0 l 139 69 l 69 69 l 69 486 l 0 486 l 0 556 l 208 556 l 208 69 l 278 69 z "},"κ":{"ha":694,"x_min":0,"x_max":625,"o":"m 347 69 l 417 69 l 417 139 l 347 139 l 347 208 l 208 208 l 208 69 l 278 69 l 278 0 l 0 0 l 0 69 l 69 69 l 69 486 l 0 486 l 0 556 l 556 556 l 556 486 l 486 486 l 486 417 l 417 417 l 417 347 l 347 347 l 347 278 l 417 278 l 417 208 l 486 208 l 486 139 l 556 139 l 556 69 l 625 69 l 625 0 l 347 0 l 347 69 m 208 347 l 278 347 l 278 417 l 347 417 l 347 486 l 208 486 l 208 347 z "},"λ":{"ha":625,"x_min":0,"x_max":556,"o":"m 347 69 l 347 208 l 208 208 l 208 69 l 347 69 m 0 0 l 0 69 l 69 69 l 69 208 l 139 208 l 139 417 l 208 417 l 208 556 l 139 556 l 139 694 l 69 694 l 69 764 l 0 764 l 0 833 l 139 833 l 139 764 l 208 764 l 208 694 l 278 694 l 278 556 l 347 556 l 347 417 l 417 417 l 417 208 l 486 208 l 486 69 l 556 69 l 556 0 l 0 0 z "},"μ":{"ha":694,"x_min":0,"x_max":625,"o":"m 347 69 l 347 139 l 417 139 l 417 486 l 347 486 l 347 556 l 556 556 l 556 69 l 625 69 l 625 0 l 208 0 l 208 -278 l 69 -278 l 69 486 l 0 486 l 0 556 l 208 556 l 208 139 l 278 139 l 278 69 l 347 69 z "},"ν":{"ha":625,"x_min":0,"x_max":556,"o":"m 347 69 l 347 0 l 69 0 l 69 486 l 0 486 l 0 556 l 208 556 l 208 69 l 278 69 l 278 139 l 347 139 l 347 278 l 417 278 l 417 486 l 347 486 l 347 556 l 556 556 l 556 278 l 486 278 l 486 139 l 417 139 l 417 69 l 347 69 z "},"ξ":{"ha":556,"x_min":0,"x_max":486,"o":"m 69 833 l 0 833 l 0 903 l 139 903 l 139 833 l 208 833 l 208 764 l 486 764 l 486 694 l 208 694 l 208 556 l 417 556 l 417 486 l 208 486 l 208 417 l 139 417 l 139 139 l 208 139 l 208 69 l 417 69 l 417 0 l 486 0 l 486 -139 l 417 -139 l 417 -208 l 347 -208 l 347 -278 l 139 -278 l 139 -208 l 278 -208 l 278 -139 l 347 -139 l 347 0 l 139 0 l 139 69 l 69 69 l 69 139 l 0 139 l 0 417 l 69 417 l 69 486 l 139 486 l 139 556 l 69 556 l 69 694 l 139 694 l 139 764 l 69 764 l 69 833 z "},"ο":{"ha":625,"x_min":0,"x_max":556,"o":"m 347 69 l 347 139 l 417 139 l 417 417 l 347 417 l 347 486 l 208 486 l 208 417 l 139 417 l 139 139 l 208 139 l 208 69 l 347 69 m 486 139 l 486 69 l 417 69 l 417 0 l 139 0 l 139 69 l 69 69 l 69 139 l 0 139 l 0 417 l 69 417 l 69 486 l 139 486 l 139 556 l 417 556 l 417 486 l 486 486 l 486 417 l 556 417 l 556 139 l 486 139 z "},"π":{"ha":694,"x_min":0,"x_max":625,"o":"m 347 69 l 347 486 l 278 486 l 278 139 l 208 139 l 208 0 l 69 0 l 69 139 l 139 139 l 139 417 l 0 417 l 0 486 l 69 486 l 69 556 l 486 556 l 486 625 l 625 625 l 625 556 l 556 556 l 556 486 l 486 486 l 486 69 l 556 69 l 556 0 l 417 0 l 417 69 l 347 69 z "},"ρ":{"ha":625,"x_min":0,"x_max":556,"o":"m 347 69 l 347 139 l 417 139 l 417 417 l 347 417 l 347 486 l 208 486 l 208 417 l 139 417 l 139 139 l 208 139 l 208 69 l 347 69 m 0 -278 l 0 417 l 69 417 l 69 486 l 139 486 l 139 556 l 417 556 l 417 486 l 486 486 l 486 417 l 556 417 l 556 139 l 486 139 l 486 69 l 417 69 l 417 0 l 139 0 l 139 -278 l 0 -278 z "},"ς":{"ha":625,"x_min":0,"x_max":556,"o":"m 486 -139 l 486 -208 l 417 -208 l 417 -278 l 139 -278 l 139 -208 l 347 -208 l 347 -139 l 417 -139 l 417 0 l 139 0 l 139 69 l 69 69 l 69 139 l 0 139 l 0 417 l 69 417 l 69 486 l 139 486 l 139 556 l 556 556 l 556 486 l 208 486 l 208 417 l 139 417 l 139 139 l 208 139 l 208 69 l 486 69 l 486 0 l 556 0 l 556 -139 l 486 -139 z "},"σ":{"ha":625,"x_min":0,"x_max":625,"o":"m 347 69 l 347 139 l 417 139 l 417 417 l 347 417 l 347 486 l 208 486 l 208 417 l 139 417 l 139 139 l 208 139 l 208 69 l 347 69 m 486 139 l 486 69 l 417 69 l 417 0 l 139 0 l 139 69 l 69 69 l 69 139 l 0 139 l 0 417 l 69 417 l 69 486 l 139 486 l 139 556 l 625 556 l 625 486 l 486 486 l 486 417 l 556 417 l 556 139 l 486 139 z "},"τ":{"ha":625,"x_min":0,"x_max":556,"o":"m 347 69 l 417 69 l 417 0 l 278 0 l 278 69 l 208 69 l 208 486 l 139 486 l 139 417 l 0 417 l 0 486 l 69 486 l 69 556 l 556 556 l 556 486 l 347 486 l 347 69 z "},"υ":{"ha":625,"x_min":0,"x_max":556,"o":"m 347 69 l 347 139 l 417 139 l 417 417 l 347 417 l 347 486 l 278 486 l 278 556 l 417 556 l 417 486 l 486 486 l 486 417 l 556 417 l 556 139 l 486 139 l 486 69 l 417 69 l 417 0 l 208 0 l 208 69 l 139 69 l 139 139 l 69 139 l 69 486 l 0 486 l 0 556 l 208 556 l 208 139 l 278 139 l 278 69 l 347 69 z "},"φ":{"ha":625,"x_min":0,"x_max":556,"o":"m 278 486 l 278 556 l 417 556 l 417 486 l 486 486 l 486 417 l 556 417 l 556 139 l 486 139 l 486 69 l 417 69 l 417 0 l 347 0 l 347 -278 l 208 -278 l 208 0 l 139 0 l 139 69 l 69 69 l 69 139 l 0 139 l 0 486 l 69 486 l 69 556 l 208 556 l 208 486 l 139 486 l 139 139 l 208 139 l 208 486 l 278 486 m 417 417 l 347 417 l 347 139 l 417 139 l 417 417 z "},"χ":{"ha":694,"x_min":0,"x_max":625,"o":"m 0 -278 l 0 -208 l 69 -208 l 69 -69 l 139 -69 l 139 0 l 208 0 l 208 347 l 139 347 l 139 417 l 0 417 l 0 556 l 208 556 l 208 486 l 278 486 l 278 347 l 417 347 l 417 486 l 486 486 l 486 556 l 625 556 l 625 486 l 556 486 l 556 347 l 486 347 l 486 278 l 417 278 l 417 -69 l 486 -69 l 486 -139 l 625 -139 l 625 -278 l 417 -278 l 417 -208 l 347 -208 l 347 -69 l 208 -69 l 208 -208 l 139 -208 l 139 -278 l 0 -278 z "},"ψ":{"ha":764,"x_min":0,"x_max":694,"o":"m 486 139 l 486 486 l 556 486 l 556 556 l 694 556 l 694 486 l 625 486 l 625 139 l 556 139 l 556 69 l 486 69 l 486 0 l 417 0 l 417 -278 l 278 -278 l 278 0 l 208 0 l 208 69 l 139 69 l 139 139 l 69 139 l 69 486 l 0 486 l 0 556 l 139 556 l 139 486 l 208 486 l 208 139 l 278 139 l 278 556 l 417 556 l 417 139 l 486 139 z "},"ω":{"ha":903,"x_min":0,"x_max":833,"o":"m 347 69 l 347 0 l 139 0 l 139 69 l 69 69 l 69 139 l 0 139 l 0 417 l 69 417 l 69 486 l 139 486 l 139 556 l 278 556 l 278 486 l 208 486 l 208 417 l 139 417 l 139 139 l 208 139 l 208 69 l 278 69 l 278 139 l 347 139 l 347 347 l 486 347 l 486 139 l 556 139 l 556 69 l 625 69 l 625 139 l 694 139 l 694 417 l 625 417 l 625 486 l 556 486 l 556 556 l 694 556 l 694 486 l 764 486 l 764 417 l 833 417 l 833 139 l 764 139 l 764 69 l 694 69 l 694 0 l 486 0 l 486 69 l 347 69 z "},"ϊ":{"ha":347,"x_min":-69,"x_max":347,"o":"m 278 69 l 278 0 l 139 0 l 139 69 l 69 69 l 69 486 l 0 486 l 0 556 l 208 556 l 208 69 l 278 69 m 347 694 l 347 625 l -69 625 l -69 694 l 347 694 z "},"ϋ":{"ha":625,"x_min":0,"x_max":556,"o":"m 347 69 l 347 139 l 417 139 l 417 417 l 347 417 l 347 486 l 278 486 l 278 556 l 417 556 l 417 486 l 486 486 l 486 417 l 556 417 l 556 139 l 486 139 l 486 69 l 417 69 l 417 0 l 208 0 l 208 69 l 139 69 l 139 139 l 69 139 l 69 486 l 0 486 l 0 556 l 208 556 l 208 139 l 278 139 l 278 69 l 347 69 m 69 625 l 69 694 l 486 694 l 486 625 l 69 625 z "},"ό":{"ha":625,"x_min":0,"x_max":556,"o":"m 347 69 l 347 139 l 417 139 l 417 417 l 347 417 l 347 486 l 208 486 l 208 417 l 139 417 l 139 139 l 208 139 l 208 69 l 347 69 m 486 139 l 486 69 l 417 69 l 417 0 l 139 0 l 139 69 l 69 69 l 69 139 l 0 139 l 0 417 l 69 417 l 69 486 l 139 486 l 139 556 l 417 556 l 417 486 l 486 486 l 486 417 l 556 417 l 556 139 l 486 139 m 278 764 l 417 764 l 417 694 l 347 694 l 347 625 l 208 625 l 208 694 l 278 694 l 278 764 z "},"ύ":{"ha":625,"x_min":0,"x_max":556,"o":"m 347 69 l 347 139 l 417 139 l 417 417 l 347 417 l 347 486 l 278 486 l 278 556 l 417 556 l 417 486 l 486 486 l 486 417 l 556 417 l 556 139 l 486 139 l 486 69 l 417 69 l 417 0 l 208 0 l 208 69 l 139 69 l 139 139 l 69 139 l 69 486 l 0 486 l 0 556 l 208 556 l 208 139 l 278 139 l 278 69 l 347 69 m 278 764 l 417 764 l 417 694 l 347 694 l 347 625 l 208 625 l 208 694 l 278 694 l 278 764 z "},"ώ":{"ha":903,"x_min":0,"x_max":833,"o":"m 694 139 l 694 417 l 625 417 l 625 486 l 556 486 l 556 556 l 694 556 l 694 486 l 764 486 l 764 417 l 833 417 l 833 139 l 764 139 l 764 69 l 694 69 l 694 0 l 486 0 l 486 69 l 347 69 l 347 0 l 139 0 l 139 69 l 69 69 l 69 139 l 0 139 l 0 417 l 69 417 l 69 486 l 139 486 l 139 556 l 278 556 l 278 486 l 208 486 l 208 417 l 139 417 l 139 139 l 208 139 l 208 69 l 278 69 l 278 139 l 347 139 l 347 347 l 486 347 l 486 139 l 556 139 l 556 69 l 625 69 l 625 139 l 694 139 m 347 625 l 347 694 l 417 694 l 417 764 l 556 764 l 556 694 l 486 694 l 486 625 l 347 625 z "},"Ѐ":{"ha":694,"x_min":0,"x_max":625,"o":"m 0 0 l 0 69 l 69 69 l 69 694 l 0 694 l 0 764 l 625 764 l 625 625 l 486 625 l 486 694 l 208 694 l 208 417 l 347 417 l 347 486 l 486 486 l 486 278 l 347 278 l 347 347 l 208 347 l 208 69 l 486 69 l 486 139 l 625 139 l 625 0 l 0 0 m 278 903 l 208 903 l 208 972 l 347 972 l 347 903 l 417 903 l 417 833 l 278 833 l 278 903 z "},"Ё":{"ha":694,"x_min":0,"x_max":625,"o":"m 69 833 l 69 903 l 278 903 l 278 833 l 69 833 m 0 0 l 0 69 l 69 69 l 69 694 l 0 694 l 0 764 l 625 764 l 625 625 l 486 625 l 486 694 l 208 694 l 208 417 l 347 417 l 347 486 l 486 486 l 486 278 l 347 278 l 347 347 l 208 347 l 208 69 l 486 69 l 486 139 l 625 139 l 625 0 l 0 0 m 347 833 l 347 903 l 556 903 l 556 833 l 347 833 z "},"Ђ":{"ha":764,"x_min":0,"x_max":694,"o":"m 347 69 l 417 69 l 417 0 l 139 0 l 139 69 l 208 69 l 208 694 l 139 694 l 139 625 l 0 625 l 0 764 l 556 764 l 556 625 l 417 625 l 417 694 l 347 694 l 347 556 l 556 556 l 556 486 l 625 486 l 625 417 l 694 417 l 694 -139 l 625 -139 l 625 -208 l 556 -208 l 556 -278 l 347 -278 l 347 -208 l 278 -208 l 278 -139 l 417 -139 l 417 -208 l 486 -208 l 486 -139 l 556 -139 l 556 417 l 486 417 l 486 486 l 417 486 l 417 417 l 347 417 l 347 69 z "},"Ѓ":{"ha":694,"x_min":0,"x_max":625,"o":"m 0 0 l 0 69 l 69 69 l 69 694 l 0 694 l 0 764 l 625 764 l 625 625 l 486 625 l 486 694 l 208 694 l 208 69 l 278 69 l 278 0 l 0 0 m 278 972 l 417 972 l 417 903 l 347 903 l 347 833 l 208 833 l 208 903 l 278 903 l 278 972 z "},"Є":{"ha":694,"x_min":0,"x_max":625,"o":"m 486 278 l 347 278 l 347 347 l 139 347 l 139 208 l 208 208 l 208 139 l 278 139 l 278 69 l 417 69 l 417 139 l 486 139 l 486 208 l 625 208 l 625 69 l 486 69 l 486 0 l 208 0 l 208 69 l 69 69 l 69 208 l 0 208 l 0 556 l 69 556 l 69 694 l 208 694 l 208 764 l 625 764 l 625 556 l 486 556 l 486 625 l 417 625 l 417 694 l 278 694 l 278 625 l 208 625 l 208 556 l 139 556 l 139 417 l 347 417 l 347 486 l 486 486 l 486 278 z "},"Ѕ":{"ha":625,"x_min":0,"x_max":556,"o":"m 347 69 l 347 139 l 417 139 l 417 278 l 347 278 l 347 347 l 139 347 l 139 417 l 69 417 l 69 486 l 0 486 l 0 625 l 69 625 l 69 694 l 139 694 l 139 764 l 556 764 l 556 556 l 417 556 l 417 625 l 347 625 l 347 694 l 208 694 l 208 625 l 139 625 l 139 486 l 208 486 l 208 417 l 417 417 l 417 347 l 486 347 l 486 278 l 556 278 l 556 139 l 486 139 l 486 69 l 417 69 l 417 0 l 0 0 l 0 208 l 139 208 l 139 139 l 208 139 l 208 69 l 347 69 z "},"І":{"ha":347,"x_min":0,"x_max":278,"o":"m 0 0 l 0 69 l 69 69 l 69 694 l 0 694 l 0 764 l 278 764 l 278 694 l 208 694 l 208 69 l 278 69 l 278 0 l 0 0 z "},"Ї":{"ha":347,"x_min":-69,"x_max":347,"o":"m 0 0 l 0 69 l 69 69 l 69 694 l 0 694 l 0 764 l 278 764 l 278 694 l 208 694 l 208 69 l 278 69 l 278 0 l 0 0 m 347 833 l -69 833 l -69 903 l 347 903 l 347 833 z "},"Ј":{"ha":694,"x_min":0,"x_max":625,"o":"m 347 69 l 347 0 l 139 0 l 139 69 l 0 69 l 0 208 l 139 208 l 139 139 l 208 139 l 208 69 l 278 69 l 278 139 l 347 139 l 347 208 l 417 208 l 417 694 l 347 694 l 347 764 l 625 764 l 625 694 l 556 694 l 556 208 l 486 208 l 486 69 l 347 69 z "},"Љ":{"ha":1111,"x_min":0,"x_max":1042,"o":"m 625 347 l 625 69 l 833 69 l 833 139 l 903 139 l 903 278 l 833 278 l 833 347 l 625 347 m 347 69 l 278 69 l 278 0 l 69 0 l 69 69 l 0 69 l 0 208 l 139 208 l 139 69 l 208 69 l 208 694 l 139 694 l 139 764 l 694 764 l 694 694 l 625 694 l 625 417 l 903 417 l 903 347 l 972 347 l 972 278 l 1042 278 l 1042 139 l 972 139 l 972 69 l 903 69 l 903 0 l 417 0 l 417 69 l 486 69 l 486 694 l 347 694 l 347 69 z "},"Њ":{"ha":1042,"x_min":0,"x_max":972,"o":"m 0 0 l 0 69 l 69 69 l 69 694 l 0 694 l 0 764 l 278 764 l 278 694 l 208 694 l 208 417 l 417 417 l 417 694 l 347 694 l 347 764 l 625 764 l 625 694 l 556 694 l 556 417 l 833 417 l 833 347 l 903 347 l 903 278 l 972 278 l 972 139 l 903 139 l 903 69 l 833 69 l 833 0 l 347 0 l 347 69 l 417 69 l 417 347 l 208 347 l 208 69 l 278 69 l 278 0 l 0 0 m 764 139 l 833 139 l 833 278 l 764 278 l 764 347 l 556 347 l 556 69 l 764 69 l 764 139 z "},"Ћ":{"ha":833,"x_min":0,"x_max":764,"o":"m 347 69 l 417 69 l 417 0 l 139 0 l 139 69 l 208 69 l 208 694 l 139 694 l 139 625 l 0 625 l 0 764 l 556 764 l 556 625 l 417 625 l 417 694 l 347 694 l 347 556 l 556 556 l 556 486 l 625 486 l 625 417 l 694 417 l 694 69 l 764 69 l 764 0 l 486 0 l 486 69 l 556 69 l 556 417 l 486 417 l 486 486 l 417 486 l 417 417 l 347 417 l 347 69 z "},"Ќ":{"ha":694,"x_min":0,"x_max":625,"o":"m 0 0 l 0 69 l 69 69 l 69 694 l 0 694 l 0 764 l 278 764 l 278 694 l 208 694 l 208 486 l 278 486 l 278 556 l 347 556 l 347 625 l 417 625 l 417 694 l 347 694 l 347 764 l 625 764 l 625 694 l 556 694 l 556 625 l 486 625 l 486 556 l 417 556 l 417 486 l 347 486 l 347 417 l 417 417 l 417 347 l 486 347 l 486 208 l 556 208 l 556 69 l 625 69 l 625 0 l 347 0 l 347 69 l 417 69 l 417 208 l 347 208 l 347 347 l 208 347 l 208 69 l 278 69 l 278 0 l 0 0 m 278 903 l 278 972 l 417 972 l 417 903 l 347 903 l 347 833 l 208 833 l 208 903 l 278 903 z "},"Ѝ":{"ha":764,"x_min":0,"x_max":694,"o":"m 0 764 l 278 764 l 278 694 l 208 694 l 208 278 l 278 278 l 278 417 l 347 417 l 347 556 l 417 556 l 417 694 l 486 694 l 486 764 l 694 764 l 694 694 l 625 694 l 625 69 l 694 69 l 694 0 l 417 0 l 417 69 l 486 69 l 486 417 l 417 417 l 417 278 l 347 278 l 347 139 l 278 139 l 278 69 l 208 69 l 208 0 l 69 0 l 69 694 l 0 694 l 0 764 m 278 903 l 208 903 l 208 972 l 347 972 l 347 903 l 417 903 l 417 833 l 278 833 l 278 903 z "},"Ў":{"ha":764,"x_min":0,"x_max":694,"o":"m 69 625 l 69 694 l 0 694 l 0 764 l 278 764 l 278 694 l 208 694 l 208 625 l 278 625 l 278 486 l 417 486 l 417 625 l 486 625 l 486 694 l 417 694 l 417 764 l 694 764 l 694 694 l 625 694 l 625 625 l 556 625 l 556 486 l 486 486 l 486 417 l 417 417 l 417 278 l 347 278 l 347 139 l 278 139 l 278 69 l 208 69 l 208 0 l 69 0 l 69 69 l 0 69 l 0 139 l 208 139 l 208 278 l 278 278 l 278 417 l 208 417 l 208 486 l 139 486 l 139 625 l 69 625 m 278 903 l 417 903 l 417 972 l 556 972 l 556 903 l 486 903 l 486 833 l 208 833 l 208 903 l 139 903 l 139 972 l 278 972 l 278 903 z "},"Џ":{"ha":764,"x_min":0,"x_max":694,"o":"m 0 0 l 0 69 l 69 69 l 69 694 l 0 694 l 0 764 l 278 764 l 278 694 l 208 694 l 208 69 l 486 69 l 486 694 l 417 694 l 417 764 l 694 764 l 694 694 l 625 694 l 625 69 l 694 69 l 694 0 l 417 0 l 417 -139 l 278 -139 l 278 0 l 0 0 z "},"А":{"ha":764,"x_min":0,"x_max":694,"o":"m 0 0 l 0 69 l 69 69 l 69 208 l 139 208 l 139 417 l 208 417 l 208 625 l 278 625 l 278 694 l 208 694 l 208 764 l 417 764 l 417 625 l 486 625 l 486 417 l 556 417 l 556 208 l 625 208 l 625 69 l 694 69 l 694 0 l 417 0 l 417 69 l 486 69 l 486 208 l 417 208 l 417 278 l 278 278 l 278 208 l 208 208 l 208 69 l 278 69 l 278 0 l 0 0 m 417 347 l 417 417 l 278 417 l 278 347 l 417 347 z "},"Б":{"ha":694,"x_min":0,"x_max":625,"o":"m 0 0 l 0 69 l 69 69 l 69 694 l 0 694 l 0 764 l 556 764 l 556 625 l 417 625 l 417 694 l 208 694 l 208 417 l 486 417 l 486 347 l 556 347 l 556 278 l 625 278 l 625 139 l 556 139 l 556 69 l 486 69 l 486 0 l 0 0 m 486 278 l 417 278 l 417 347 l 208 347 l 208 69 l 417 69 l 417 139 l 486 139 l 486 278 z "},"В":{"ha":694,"x_min":0,"x_max":625,"o":"m 0 0 l 0 69 l 69 69 l 69 694 l 0 694 l 0 764 l 486 764 l 486 694 l 556 694 l 556 625 l 625 625 l 625 486 l 556 486 l 556 417 l 486 417 l 486 347 l 556 347 l 556 278 l 625 278 l 625 139 l 556 139 l 556 69 l 486 69 l 486 0 l 0 0 m 486 278 l 417 278 l 417 347 l 208 347 l 208 69 l 417 69 l 417 139 l 486 139 l 486 278 m 417 417 l 417 486 l 486 486 l 486 625 l 417 625 l 417 694 l 208 694 l 208 417 l 417 417 z "},"Г":{"ha":694,"x_min":0,"x_max":625,"o":"m 0 0 l 0 69 l 69 69 l 69 694 l 0 694 l 0 764 l 625 764 l 625 625 l 486 625 l 486 694 l 208 694 l 208 69 l 278 69 l 278 0 l 0 0 z "},"Д":{"ha":764,"x_min":0,"x_max":694,"o":"m 694 -139 l 556 -139 l 556 0 l 139 0 l 139 -139 l 0 -139 l 0 69 l 69 69 l 69 139 l 139 139 l 139 278 l 208 278 l 208 694 l 139 694 l 139 764 l 694 764 l 694 694 l 625 694 l 625 69 l 694 69 l 694 -139 m 208 69 l 486 69 l 486 694 l 347 694 l 347 278 l 278 278 l 278 139 l 208 139 l 208 69 z "},"Е":{"ha":694,"x_min":0,"x_max":625,"o":"m 0 0 l 0 69 l 69 69 l 69 694 l 0 694 l 0 764 l 625 764 l 625 625 l 486 625 l 486 694 l 208 694 l 208 417 l 347 417 l 347 486 l 486 486 l 486 278 l 347 278 l 347 347 l 208 347 l 208 69 l 486 69 l 486 139 l 625 139 l 625 0 l 0 0 z "}}}
